<svg xmlns="http://www.w3.org/2000/svg" xmlns:xlink="http://www.w3.org/1999/xlink" width="1080" zoomAndPan="magnify" viewBox="0 0 810 809.999993" height="1080" preserveAspectRatio="xMidYMid meet" version="1.0"><defs><clipPath id="19f2f88aff"><path d="M 61.222656 173 L 748.972656 173 L 748.972656 637.199219 L 61.222656 637.199219 Z M 61.222656 173 " clip-rule="nonzero"/></clipPath></defs><g clip-path="url(#19f2f88aff)"><path fill="#144295" d="M 249.789062 174.082031 C 227.179688 176.71875 213.070312 181.089844 192.398438 191.859375 C 138.480469 219.953125 106.824219 282.121094 115.308594 343.265625 C 116.972656 355.273438 121.257812 374.347656 124.828125 385.65625 L 131.320312 406.210938 L 162.109375 406.210938 L 155.855469 392.515625 C 147.757812 374.773438 142.285156 353.425781 140.175781 331.304688 C 133.542969 261.835938 181.214844 202.566406 249.75 195.0625 C 305.398438 188.976562 352.875 211.59375 387.273438 260.59375 C 402.96875 282.945312 408.144531 283.140625 420.246094 261.84375 C 454.125 202.214844 533.277344 178.726562 597.546875 209.226562 C 620.648438 220.1875 643.550781 242.046875 653.660156 262.777344 C 661.238281 278.332031 668.363281 307.597656 668.4375 323.496094 C 668.503906 337.855469 661.636719 368.804688 654.144531 387.921875 C 650.570312 397.042969 647.976562 404.835938 648.382812 405.242188 C 648.792969 405.652344 654.890625 406.328125 661.9375 406.746094 L 674.75 407.515625 L 682.316406 384.035156 C 692.1875 353.417969 694.683594 313.949219 688.332031 288.816406 C 675.40625 237.671875 639.691406 199.519531 588.917969 182.628906 C 570.945312 176.648438 563.703125 175.6875 536.742188 175.699219 C 509.496094 175.714844 502.773438 176.632812 484.855469 182.808594 C 454.15625 193.382812 427.371094 213.382812 409.625 238.972656 L 405.300781 245.210938 L 385.808594 225.53125 C 346.824219 186.164062 299.527344 168.277344 249.789062 174.082031 M 311.746094 280.367188 C 309.058594 283.070312 299.195312 313.679688 287.804688 354.640625 L 268.429688 424.320312 L 262 414.613281 C 244.183594 387.71875 236.726562 386.597656 214.792969 407.515625 L 199.753906 421.859375 L 133.132812 421.859375 C 76.527344 421.859375 66.019531 422.460938 63.203125 425.851562 C 60.671875 428.902344 60.582031 431.359375 62.832031 436.289062 L 65.765625 442.730469 L 212.1875 442.730469 L 237.171875 419.363281 L 250 438.222656 C 260.894531 454.230469 264.089844 457.199219 271.148438 457.882812 C 277.53125 458.503906 280.347656 457.285156 283.238281 452.667969 C 285.308594 449.355469 293.796875 421.699219 302.101562 391.207031 C 310.40625 360.722656 318.003906 335.777344 318.984375 335.777344 C 320.917969 335.777344 321.457031 338.210938 345.007812 453.164062 C 362.609375 539.070312 364.433594 545.96875 370.125 548.152344 C 378.433594 551.339844 386.699219 549.570312 390.382812 543.816406 C 392.453125 540.585938 401.90625 515.765625 411.394531 488.65625 C 420.878906 461.546875 429.375 438.183594 430.261719 436.746094 C 431.15625 435.304688 434.191406 438.703125 437.015625 444.296875 C 444.222656 458.582031 449.214844 463.601562 456.21875 463.601562 C 464.496094 463.601562 467.8125 457.410156 480.683594 417.949219 C 486.765625 399.296875 492.566406 383.125 493.574219 382.007812 C 494.578125 380.890625 498.707031 391.460938 502.75 405.488281 C 506.792969 419.515625 511.71875 433.632812 513.695312 436.859375 L 517.296875 442.730469 L 630.398438 442.730469 C 728.71875 442.730469 743.929688 442.210938 746.808594 438.742188 C 749.332031 435.695312 749.421875 433.230469 747.195312 428.335938 L 744.273438 421.921875 L 531.527344 420.558594 L 519.773438 381.160156 C 513.3125 359.492188 506.417969 339.832031 504.457031 337.464844 C 502.496094 335.101562 497.539062 333.167969 493.445312 333.167969 C 484.152344 333.167969 481.886719 337.390625 468.929688 378.820312 C 453.527344 428.070312 455.449219 425.277344 447.230469 410.296875 C 438.433594 394.261719 433.738281 391.125 424.703125 395.238281 C 420.960938 396.945312 417.417969 399.816406 416.828125 401.621094 C 410.625 420.550781 390.359375 478.421875 386.085938 489.410156 C 381.007812 502.480469 380.449219 503.039062 378.265625 497.238281 C 376.96875 493.800781 366.609375 444.621094 355.242188 387.949219 C 337.847656 301.253906 333.695312 284.179688 329.0625 280.339844 C 322.097656 274.5625 317.511719 274.570312 311.746094 280.367188 M 170.507812 466.605469 C 191.183594 495.648438 243.171875 541.480469 292.832031 574.457031 C 328.378906 598.058594 383.878906 629.28125 400.417969 634.976562 C 410.480469 638.445312 411.441406 638.25 428.949219 629.191406 C 450.769531 617.898438 487.523438 595.753906 513.207031 578.425781 C 555.839844 549.65625 617.484375 493.867188 637.136719 466.265625 L 642.75 458.382812 L 612.835938 458.382812 L 583.921875 486.554688 C 541.226562 528.15625 491.929688 565.042969 435.578125 597.558594 L 410.066406 612.28125 L 391.230469 602.804688 C 329.675781 571.839844 262.175781 523.621094 218.546875 479.449219 L 197.738281 458.382812 L 164.652344 458.382812 Z M 170.507812 466.605469 " fill-opacity="1" fill-rule="evenodd"/></g></svg>