<svg xmlns="http://www.w3.org/2000/svg" xmlns:xlink="http://www.w3.org/1999/xlink" width="1080" zoomAndPan="magnify" viewBox="0 0 810 817.92" height="1080" preserveAspectRatio="xMidYMid meet" version="1.0"><defs><clipPath id="c21469e86d"><path d="M 105 106.304688 L 702 106.304688 L 702 703.246094 L 105 703.246094 Z M 105 106.304688 " clip-rule="nonzero"/></clipPath></defs><g clip-path="url(#c21469e86d)"><path fill="#05439a" d="M 688.671875 282.972656 C 664.535156 212.300781 608.757812 159.121094 546.578125 147.5 C 493.476562 137.570312 441.480469 158.5 399.773438 206.476562 C 356.300781 204.238281 329.773438 173.765625 318.734375 113.457031 C 318.320312 111.203125 316.996094 109.222656 315.070312 107.980469 C 313.144531 106.742188 310.792969 106.351562 308.566406 106.90625 L 245.554688 122.660156 C 241.707031 123.621094 239.082031 127.175781 239.289062 131.136719 C 240.589844 156.171875 246.121094 180.425781 255.425781 202.417969 C 244.734375 199.179688 233.40625 197.429688 221.671875 197.429688 C 157.359375 197.429688 105.039062 249.753906 105.039062 314.066406 C 105.039062 378.375 157.359375 430.699219 221.671875 430.699219 C 285.984375 430.699219 338.304688 378.375 338.304688 314.066406 C 338.304688 305.761719 337.425781 297.664062 335.769531 289.847656 C 351.859375 297.757812 369.210938 302.855469 387.636719 305.035156 C 390.492188 326.519531 401.957031 345.945312 419.425781 358.832031 C 415.335938 377.632812 416.777344 397.105469 423.542969 415.039062 C 402.234375 422.007812 386.5 440.054688 382.515625 462.148438 C 352.949219 456.597656 322.777344 462.945312 292.609375 481.085938 C 253.609375 453.484375 210.191406 447.222656 172.710938 463.996094 C 137.230469 479.878906 112.363281 514.292969 109.355469 551.671875 C 106.375 588.746094 124.394531 622.082031 160.09375 645.542969 C 162.832031 647.339844 165.589844 649.109375 168.332031 650.871094 C 189.628906 664.527344 208.019531 676.320312 208.542969 695.546875 C 208.667969 700.035156 212.34375 703.609375 216.832031 703.609375 L 274.570312 703.609375 C 279.148438 703.609375 282.863281 699.898438 282.863281 695.320312 C 282.863281 638.242188 239.445312 610.914062 210.714844 592.828125 C 207.269531 590.660156 204.019531 588.613281 201.019531 586.636719 C 188.253906 578.226562 182.691406 569.230469 186.503906 563.160156 C 190.152344 557.34375 202.300781 553.449219 213.796875 560.316406 C 215.324219 561.230469 216.886719 562.210938 218.496094 563.222656 C 233.023438 572.328125 252.714844 584.675781 286.296875 576.070312 C 330.304688 607.535156 382.613281 624.21875 436.265625 624.214844 C 445.171875 624.214844 454.128906 623.753906 463.082031 622.828125 C 527.285156 616.164062 586.285156 585.949219 629.21875 537.75 C 664.695312 497.925781 687.417969 453.96875 696.753906 407.113281 C 705.027344 365.597656 702.234375 322.671875 688.675781 282.976562 Z M 221.671875 414.113281 C 166.503906 414.113281 121.621094 369.234375 121.621094 314.0625 C 121.621094 258.894531 166.503906 214.011719 221.671875 214.011719 C 276.839844 214.011719 321.722656 258.894531 321.722656 314.0625 C 321.722656 369.234375 276.839844 414.113281 221.671875 414.113281 Z M 616.835938 526.71875 C 533.234375 620.570312 393.953125 635.027344 292.863281 560.347656 C 290.769531 558.804688 288.074219 558.332031 285.582031 559.066406 C 256.726562 567.617188 241.09375 557.816406 227.304688 549.171875 C 225.589844 548.09375 223.925781 547.054688 222.296875 546.082031 C 202.871094 534.476562 180.84375 540.980469 172.457031 554.34375 C 165.300781 565.746094 166.648438 583.855469 191.894531 600.484375 C 195.042969 602.554688 198.363281 604.648438 201.878906 606.859375 C 228.863281 623.847656 262.054688 644.738281 265.90625 687.027344 L 224.210938 687.027344 C 219.554688 664.019531 198.101562 650.261719 177.285156 636.914062 C 174.59375 635.183594 171.882812 633.449219 169.199219 631.6875 C 138.792969 611.703125 123.410156 583.761719 125.882812 553.003906 C 128.410156 521.570312 149.449219 492.574219 179.484375 479.132812 C 199.039062 470.378906 239.03125 461.152344 287.222656 497.691406 C 289.996094 499.796875 293.789062 499.941406 296.714844 498.058594 C 328.046875 477.898438 357.785156 472.105469 387.621094 480.339844 C 390.09375 481.023438 392.742188 480.523438 394.796875 478.984375 C 396.851562 477.445312 398.078125 475.042969 398.117188 472.480469 C 398.460938 450.46875 414.523438 432.191406 436.304688 429.023438 C 438.941406 428.636719 441.230469 427.011719 442.460938 424.652344 C 443.691406 422.292969 443.714844 419.484375 442.523438 417.105469 C 433.25 398.589844 431.234375 377.414062 436.84375 357.480469 C 437.84375 353.9375 436.382812 350.160156 433.265625 348.207031 C 415.542969 337.109375 404.441406 318.007812 403.574219 297.113281 C 403.402344 292.917969 400.121094 289.515625 395.933594 289.191406 C 371.035156 287.261719 348.238281 279.59375 328.121094 266.421875 C 317.84375 243.546875 300.398438 224.5625 278.664062 212.339844 C 266.304688 190.011719 258.628906 164.167969 256.3125 137.066406 L 304.15625 125.105469 C 318.148438 189.496094 351.5 222.480469 403.378906 223.179688 C 405.917969 223.207031 408.238281 222.128906 409.839844 220.226562 C 447.964844 174.847656 495.441406 154.808594 543.53125 163.800781 C 599.929688 174.34375 650.746094 223.226562 672.984375 288.335938 C 700.496094 368.886719 680.03125 455.773438 616.835938 526.722656 Z M 637.195312 331.492188 C 634.253906 330.355469 630.925781 330.984375 628.601562 333.113281 C 618.285156 342.566406 578.753906 372.773438 503.148438 364.554688 C 501.117188 364.335938 499.066406 364.875 497.40625 366.074219 C 473.074219 383.617188 461.949219 409.984375 464.265625 444.546875 C 435.015625 447.492188 427.691406 465.96875 421.703125 481.074219 C 418.039062 490.3125 414.878906 498.292969 407.3125 502.691406 C 400.363281 506.730469 392.828125 505.871094 382.402344 504.679688 C 364.535156 502.640625 340.058594 499.847656 303.675781 521.003906 C 301.230469 522.421875 299.679688 524.992188 299.558594 527.816406 C 299.4375 530.640625 300.765625 533.328125 303.078125 534.953125 C 336.878906 558.691406 376.554688 572.191406 417.820312 573.996094 C 420.988281 574.136719 424.15625 574.203125 427.316406 574.203125 C 465.304688 574.203125 502.535156 564.226562 535.53125 545.121094 C 571.277344 524.425781 600.203125 494.097656 619.183594 457.417969 C 638.164062 420.734375 646.214844 379.601562 642.457031 338.46875 C 642.171875 335.332031 640.132812 332.625 637.191406 331.488281 Z M 527.222656 530.773438 C 464.230469 567.246094 386.015625 566.175781 324.222656 528.949219 C 348.902344 517.546875 365.574219 519.449219 380.523438 521.15625 C 392.566406 522.53125 403.945312 523.832031 415.644531 517.027344 C 428.175781 509.742188 432.925781 497.757812 437.117188 487.183594 C 443.199219 471.84375 447.601562 460.726562 472.664062 460.726562 C 472.894531 460.726562 473.140625 460.726562 473.367188 460.726562 C 475.734375 460.726562 477.992188 459.710938 479.566406 457.9375 C 481.15625 456.148438 481.890625 453.757812 481.589844 451.386719 C 477.546875 419.734375 485.09375 396.796875 504.644531 381.375 C 566.53125 387.324219 606.433594 368.992188 626.75 355.441406 C 627.664062 426.964844 589.746094 494.578125 527.226562 530.773438 Z M 453.394531 530.769531 C 453.394531 537.402344 448.019531 542.777344 441.386719 542.777344 C 434.757812 542.777344 429.378906 537.402344 429.378906 530.769531 C 429.378906 524.140625 434.757812 518.765625 441.386719 518.765625 C 448.019531 518.765625 453.394531 524.140625 453.394531 530.769531 Z M 524.992188 488.523438 C 524.992188 481.894531 530.367188 476.515625 537 476.515625 C 543.632812 476.515625 549.007812 481.894531 549.007812 488.523438 C 549.007812 495.15625 543.632812 500.53125 537 500.53125 C 530.367188 500.53125 524.992188 495.15625 524.992188 488.523438 Z M 524.417969 447.246094 C 524.417969 452.25 520.359375 456.308594 515.355469 456.308594 C 510.347656 456.308594 506.289062 452.25 506.289062 447.246094 C 506.289062 442.238281 510.347656 438.179688 515.355469 438.179688 C 520.359375 438.179688 524.417969 442.238281 524.417969 447.246094 Z M 551.058594 447.335938 C 551.058594 439.628906 557.308594 433.382812 565.015625 433.382812 C 572.722656 433.382812 578.972656 439.628906 578.972656 447.335938 C 578.972656 455.042969 572.722656 461.289062 565.015625 461.289062 C 557.304688 461.289062 551.058594 455.042969 551.058594 447.335938 Z M 497.644531 496.304688 C 497.644531 506.375 489.480469 514.539062 479.410156 514.539062 C 469.339844 514.539062 461.175781 506.375 461.175781 496.304688 C 461.175781 486.234375 469.339844 478.074219 479.410156 478.074219 C 489.480469 478.074219 497.644531 486.234375 497.644531 496.304688 Z M 286.492188 284.429688 L 251.300781 284.429688 L 251.300781 249.242188 C 251.300781 244.664062 247.589844 240.953125 243.011719 240.953125 L 200.332031 240.953125 C 195.75 240.953125 192.039062 244.664062 192.039062 249.242188 L 192.039062 284.429688 L 156.851562 284.429688 C 152.273438 284.429688 148.558594 288.144531 148.558594 292.722656 L 148.558594 335.402344 C 148.558594 339.980469 152.273438 343.695312 156.851562 343.695312 L 192.039062 343.695312 L 192.039062 378.882812 C 192.039062 383.460938 195.75 387.171875 200.332031 387.171875 L 243.011719 387.171875 C 247.589844 387.171875 251.300781 383.460938 251.300781 378.882812 L 251.300781 343.695312 L 286.492188 343.695312 C 291.070312 343.695312 294.78125 339.980469 294.78125 335.402344 L 294.78125 292.722656 C 294.78125 288.144531 291.070312 284.429688 286.492188 284.429688 Z M 278.199219 327.113281 L 243.011719 327.113281 C 238.433594 327.113281 234.71875 330.824219 234.71875 335.402344 L 234.71875 370.589844 L 208.621094 370.589844 L 208.621094 335.402344 C 208.621094 330.824219 204.910156 327.113281 200.332031 327.113281 L 165.140625 327.113281 L 165.140625 301.011719 L 200.332031 301.011719 C 204.910156 301.011719 208.621094 297.300781 208.621094 292.722656 L 208.621094 257.53125 L 234.71875 257.53125 L 234.71875 292.722656 C 234.71875 297.300781 238.433594 301.011719 243.011719 301.011719 L 278.199219 301.011719 Z M 278.199219 327.113281 " fill-opacity="1" fill-rule="nonzero"/></g></svg>