<svg xmlns="http://www.w3.org/2000/svg" xmlns:xlink="http://www.w3.org/1999/xlink" width="1080" zoomAndPan="magnify" viewBox="0 0 810 817.92" height="1080" preserveAspectRatio="xMidYMid meet" version="1.0"><defs><clipPath id="9869b84281"><path d="M 138 80.992188 L 671.859375 80.992188 L 671.859375 736.429688 L 138 736.429688 Z M 138 80.992188 " clip-rule="nonzero"/></clipPath></defs><g clip-path="url(#9869b84281)"><path fill="#144295" d="M 329.867188 472.15625 C 329.605469 468.710938 330.589844 452.945312 329.011719 449.988281 C 328.792969 449.378906 328.527344 448.785156 328.214844 448.214844 C 327.902344 447.644531 327.546875 447.101562 327.152344 446.589844 C 326.753906 446.074219 326.320312 445.589844 325.851562 445.140625 C 325.382812 444.691406 324.878906 444.28125 324.347656 443.910156 C 323.8125 443.539062 323.253906 443.210938 322.667969 442.925781 C 322.085938 442.640625 321.484375 442.402344 320.863281 442.210938 C 320.242188 442.019531 319.609375 441.875 318.964844 441.78125 C 318.324219 441.6875 317.675781 441.640625 317.027344 441.644531 L 296.269531 441.644531 C 296.105469 441.640625 295.945312 441.609375 295.796875 441.542969 C 295.644531 441.476562 295.511719 441.386719 295.394531 441.269531 C 295.277344 441.15625 295.1875 441.023438 295.125 440.871094 C 295.058594 440.71875 295.023438 440.5625 295.019531 440.398438 L 295.019531 419.640625 C 295.019531 418.800781 294.9375 417.964844 294.773438 417.140625 C 294.609375 416.3125 294.367188 415.511719 294.046875 414.734375 C 293.722656 413.957031 293.332031 413.21875 292.863281 412.515625 C 292.394531 411.816406 291.867188 411.167969 291.269531 410.570312 C 290.675781 409.976562 290.03125 409.445312 289.332031 408.976562 C 288.632812 408.507812 287.894531 408.109375 287.117188 407.785156 C 286.339844 407.460938 285.539062 407.21875 284.710938 407.050781 C 283.886719 406.886719 283.054688 406.800781 282.210938 406.800781 L 264.507812 406.800781 C 263.667969 406.800781 262.832031 406.886719 262.007812 407.050781 C 261.179688 407.21875 260.378906 407.460938 259.601562 407.785156 C 258.820312 408.109375 258.082031 408.503906 257.382812 408.972656 C 256.683594 409.441406 256.035156 409.972656 255.4375 410.570312 C 254.84375 411.164062 254.308594 411.8125 253.839844 412.515625 C 253.371094 413.214844 252.976562 413.953125 252.652344 414.730469 C 252.328125 415.511719 252.085938 416.3125 251.917969 417.136719 C 251.753906 417.964844 251.667969 418.796875 251.667969 419.640625 L 251.667969 440.429688 C 251.664062 440.589844 251.628906 440.746094 251.566406 440.890625 C 251.503906 441.039062 251.414062 441.167969 251.300781 441.28125 C 251.1875 441.394531 251.058594 441.480469 250.914062 441.546875 C 250.765625 441.609375 250.613281 441.640625 250.453125 441.644531 L 229.660156 441.644531 C 228.820312 441.648438 227.984375 441.730469 227.160156 441.898438 C 226.332031 442.0625 225.53125 442.308594 224.753906 442.632812 C 223.976562 442.957031 223.234375 443.351562 222.535156 443.820312 C 221.835938 444.289062 221.1875 444.820312 220.589844 445.417969 C 219.996094 446.011719 219.464844 446.660156 218.996094 447.359375 C 218.527344 448.0625 218.128906 448.800781 217.804688 449.578125 C 217.484375 450.355469 217.238281 451.160156 217.074219 451.984375 C 216.90625 452.8125 216.824219 453.644531 216.820312 454.488281 L 216.820312 472.191406 C 216.824219 473.03125 216.90625 473.867188 217.074219 474.695312 C 217.238281 475.519531 217.484375 476.320312 217.804688 477.101562 C 218.128906 477.878906 218.527344 478.617188 218.996094 479.316406 C 219.464844 480.019531 219.996094 480.664062 220.589844 481.261719 C 221.1875 481.855469 221.835938 482.390625 222.535156 482.859375 C 223.234375 483.328125 223.976562 483.722656 224.753906 484.046875 C 225.53125 484.371094 226.332031 484.613281 227.160156 484.78125 C 227.984375 484.945312 228.820312 485.03125 229.660156 485.03125 L 250.417969 485.03125 C 250.582031 485.027344 250.742188 485.054688 250.894531 485.113281 C 251.046875 485.175781 251.183594 485.261719 251.300781 485.375 C 251.417969 485.492188 251.507812 485.625 251.570312 485.773438 C 251.636719 485.925781 251.667969 486.082031 251.667969 486.246094 L 251.667969 506.972656 C 251.667969 507.816406 251.75 508.652344 251.914062 509.480469 C 252.078125 510.3125 252.320312 511.117188 252.644531 511.894531 C 252.964844 512.675781 253.359375 513.417969 253.828125 514.121094 C 254.296875 514.824219 254.828125 515.476562 255.425781 516.074219 C 256.019531 516.675781 256.667969 517.210938 257.371094 517.679688 C 258.070312 518.152344 258.808594 518.550781 259.589844 518.878906 C 260.367188 519.203125 261.171875 519.453125 262 519.621094 C 262.828125 519.789062 263.664062 519.875 264.507812 519.878906 L 282.179688 519.878906 C 283.019531 519.867188 283.851562 519.777344 284.675781 519.605469 C 285.5 519.433594 286.300781 519.183594 287.074219 518.855469 C 287.851562 518.527344 288.585938 518.128906 289.285156 517.660156 C 289.984375 517.1875 290.628906 516.65625 291.222656 516.058594 C 291.816406 515.464844 292.347656 514.816406 292.816406 514.117188 C 293.285156 513.417969 293.683594 512.679688 294.007812 511.902344 C 294.335938 511.128906 294.582031 510.328125 294.753906 509.503906 C 294.921875 508.679688 295.011719 507.847656 295.019531 507.003906 L 295.019531 486.246094 C 295.152344 485.625 295.480469 485 296.269531 485.03125 L 317.027344 485.03125 C 317.871094 485.03125 318.707031 484.945312 319.53125 484.78125 C 320.359375 484.613281 321.164062 484.367188 321.941406 484.042969 C 322.722656 483.71875 323.460938 483.320312 324.164062 482.851562 C 324.863281 482.382812 325.511719 481.847656 326.109375 481.25 C 326.703125 480.652344 327.238281 480.003906 327.703125 479.300781 C 328.171875 478.597656 328.566406 477.855469 328.890625 477.078125 C 329.214844 476.296875 329.457031 475.492188 329.621094 474.664062 C 329.785156 473.835938 329.867188 473 329.867188 472.15625 Z M 318.273438 472.15625 C 318.273438 472.324219 318.242188 472.480469 318.179688 472.636719 C 318.117188 472.789062 318.023438 472.921875 317.910156 473.039062 C 317.792969 473.15625 317.65625 473.246094 317.503906 473.3125 C 317.351562 473.375 317.191406 473.40625 317.027344 473.40625 L 296.269531 473.40625 C 289.140625 473.339844 283.394531 479.316406 283.425781 486.246094 L 283.425781 506.972656 C 283.410156 507.226562 283.320312 507.457031 283.164062 507.660156 C 282.953125 508.027344 282.636719 508.214844 282.210938 508.21875 L 264.507812 508.21875 C 264.347656 508.214844 264.195312 508.183594 264.050781 508.117188 C 263.902344 508.054688 263.773438 507.96875 263.660156 507.855469 C 263.546875 507.742188 263.457031 507.613281 263.394531 507.464844 C 263.332031 507.316406 263.296875 507.164062 263.292969 507.003906 L 263.292969 486.214844 C 263.292969 485.371094 263.207031 484.539062 263.042969 483.714844 C 262.875 482.890625 262.628906 482.085938 262.308594 481.308594 C 261.984375 480.535156 261.585938 479.796875 261.117188 479.097656 C 260.648438 478.398438 260.117188 477.75 259.519531 477.15625 C 258.925781 476.5625 258.277344 476.03125 257.578125 475.5625 C 256.875 475.097656 256.136719 474.703125 255.359375 474.378906 C 254.582031 474.058594 253.777344 473.816406 252.953125 473.652344 C 252.128906 473.488281 251.292969 473.40625 250.453125 473.40625 L 229.660156 473.40625 C 229.5 473.402344 229.34375 473.367188 229.195312 473.300781 C 229.046875 473.238281 228.914062 473.144531 228.800781 473.027344 C 228.6875 472.914062 228.601562 472.777344 228.539062 472.628906 C 228.476562 472.476562 228.445312 472.320312 228.445312 472.15625 L 228.445312 454.488281 C 228.449219 454.164062 228.558594 453.878906 228.773438 453.632812 C 229.023438 453.394531 229.316406 453.273438 229.660156 453.273438 L 250.417969 453.273438 C 251.261719 453.269531 252.097656 453.183594 252.925781 453.015625 C 253.753906 452.847656 254.558594 452.601562 255.335938 452.273438 C 256.113281 451.949219 256.855469 451.554688 257.554688 451.082031 C 258.257812 450.613281 258.90625 450.078125 259.503906 449.484375 C 260.101562 448.886719 260.632812 448.238281 261.105469 447.535156 C 261.574219 446.835938 261.972656 446.09375 262.296875 445.316406 C 262.621094 444.535156 262.867188 443.734375 263.035156 442.90625 C 263.203125 442.078125 263.289062 441.242188 263.292969 440.398438 L 263.292969 419.640625 C 263.296875 419.480469 263.332031 419.328125 263.394531 419.179688 C 263.457031 419.035156 263.546875 418.902344 263.660156 418.789062 C 263.773438 418.679688 263.902344 418.589844 264.050781 418.527344 C 264.195312 418.464844 264.347656 418.429688 264.507812 418.425781 L 282.179688 418.425781 C 282.34375 418.421875 282.5 418.449219 282.652344 418.507812 C 282.808594 418.570312 282.941406 418.65625 283.058594 418.769531 C 283.175781 418.882812 283.265625 419.015625 283.332031 419.167969 C 283.394531 419.320312 283.425781 419.476562 283.425781 419.640625 L 283.425781 440.429688 C 283.429688 441.273438 283.511719 442.109375 283.679688 442.933594 C 283.84375 443.761719 284.089844 444.5625 284.414062 445.339844 C 284.738281 446.117188 285.132812 446.859375 285.601562 447.558594 C 286.070312 448.257812 286.601562 448.90625 287.199219 449.503906 C 287.792969 450.097656 288.441406 450.628906 289.140625 451.097656 C 289.84375 451.566406 290.582031 451.964844 291.359375 452.285156 C 292.136719 452.609375 292.941406 452.855469 293.765625 453.019531 C 294.589844 453.1875 295.425781 453.269531 296.269531 453.273438 L 317.519531 453.503906 L 317.847656 453.699219 C 317.976562 453.929688 318.207031 454.421875 318.273438 454.488281 Z M 641.945312 152.164062 C 618.132812 124.507812 563.84375 113.210938 530.375 124.675781 C 460.421875 66.410156 349.804688 66.441406 279.878906 124.675781 C 182.136719 98.925781 110.472656 187.699219 148.40625 283.273438 C 130.835938 315.953125 153.957031 353.164062 190.085938 348.832031 C 198.230469 350.175781 209.792969 353.59375 219.613281 362.328125 C 236.921875 378.652344 272.0625 365.546875 286.121094 358.125 C 291.113281 369.488281 298.109375 377.929688 304.316406 387.882812 C 252.355469 365.417969 190.710938 406.503906 191.859375 463.324219 C 190.777344 519.191406 250.550781 560.277344 302.277344 539.488281 C 306.121094 564.382812 312.953125 574.367188 319.523438 603.234375 C 325.105469 625.832031 332.394531 660.023438 337.222656 684.71875 L 339.851562 698.152344 C 348.128906 741.144531 397.820312 738.089844 431.714844 734.542969 C 451.058594 732.179688 466.628906 717.53125 470.371094 698.152344 C 470.40625 698.121094 473 684.71875 473 684.71875 C 480.257812 648.921875 489.914062 599.753906 501.015625 567.601562 C 512.117188 535.445312 512.804688 504.410156 499.601562 469.890625 C 487.976562 438.921875 490.4375 407.160156 511.917969 378.816406 C 516.660156 372.332031 520.722656 365.445312 524.105469 358.15625 C 538.160156 365.582031 573.304688 378.683594 590.613281 362.363281 C 600.496094 353.59375 612.027344 350.175781 620.171875 348.863281 C 656.296875 353.230469 679.421875 315.886719 661.847656 283.273438 C 680.636719 236.539062 672.820312 184.121094 641.945312 152.164062 Z M 355.125 98.925781 C 406.523438 83.390625 474.9375 95.835938 517.207031 129.109375 C 509.027344 132.589844 502.886719 135.972656 493.984375 139.289062 C 429.941406 164.90625 354.007812 160.242188 293.050781 129.109375 C 311.835938 115.3125 333.117188 104.933594 355.125 98.925781 Z M 189.824219 337.238281 C 161.085938 341.113281 144.464844 311.914062 159.769531 286.296875 C 168.113281 270.992188 186.242188 259.429688 203.421875 259.726562 C 221.089844 259.429688 234.949219 272.730469 234.425781 290.304688 C 234.785156 312.40625 212.253906 335.429688 189.824219 337.238281 Z M 271.734375 312.375 C 266.613281 314.078125 261.378906 315.304688 256.035156 316.054688 C 254.164062 316.445312 253.210938 315.921875 252.457031 315.296875 C 248.25 311.847656 246.019531 299.730469 246.019531 290.171875 C 246.609375 266.953125 228.054688 248.492188 204.832031 248.164062 C 201.121094 211.9375 218.035156 182.871094 270.847656 193.285156 C 271.109375 198.605469 269.992188 311.617188 271.734375 312.375 Z M 227.296875 353.660156 C 222.316406 349.246094 216.789062 345.6875 210.710938 342.984375 C 213.679688 341.5 216.523438 339.800781 219.242188 337.894531 C 221.960938 335.984375 224.519531 333.886719 226.925781 331.59375 C 229.328125 329.304688 231.550781 326.847656 233.589844 324.226562 C 235.628906 321.605469 237.460938 318.847656 239.089844 315.953125 C 245.394531 332.144531 261.226562 327.84375 274 323.871094 C 276.019531 331.902344 278.515625 339.785156 281.488281 347.515625 C 267.5625 354.609375 240.074219 364.988281 227.296875 353.660156 Z M 294.167969 347.8125 C 288.023438 332.441406 282.671875 317.269531 282.410156 300.519531 L 282.410156 196.832031 C 299.683594 203.695312 311.507812 219.199219 310.785156 238.871094 C 309.996094 314.707031 317.386719 333.917969 345.074219 365.054688 C 370.59375 394.089844 370.890625 428.179688 370.890625 429.625 L 370.890625 510.816406 C 371.019531 516.824219 362.449219 519.289062 359.03125 514.199219 C 355.617188 509.105469 350.425781 505.230469 344.679688 502.800781 C 364.484375 468.347656 354.171875 421.675781 322.378906 398.128906 C 315.746094 379.867188 301.523438 366.796875 294.167969 347.8125 Z M 203.453125 463.324219 C 202.761719 407.160156 269.042969 373.167969 314.199219 406.503906 C 356.175781 435.703125 351.3125 502.800781 305.433594 525.460938 C 260.273438 549.800781 202.566406 514.691406 203.453125 463.324219 Z M 459.007812 695.921875 C 451.488281 731.753906 407.507812 724.988281 379.953125 723.050781 C 363.335938 721.242188 351.773438 706.890625 350.199219 690.5 C 368.425781 692.949219 386.734375 694.171875 405.128906 694.171875 C 423.519531 694.171875 441.832031 692.949219 460.058594 690.5 Z M 462.421875 678.414062 C 443.421875 681.222656 424.320312 682.625 405.113281 682.625 C 385.90625 682.625 366.800781 681.222656 347.800781 678.414062 C 345.894531 668.855469 343.859375 658.839844 341.722656 648.855469 C 362.722656 652.105469 383.847656 653.734375 405.09375 653.734375 C 426.34375 653.734375 447.46875 652.105469 468.46875 648.855469 C 466.363281 658.839844 464.328125 668.855469 462.421875 678.414062 Z M 471.09375 636.605469 C 449.25 640.316406 427.25 642.171875 405.09375 642.171875 C 382.9375 642.171875 360.941406 640.316406 339.097656 636.605469 C 336.832031 626.359375 334.792969 617.292969 332.890625 609.214844 C 356.785156 613.410156 380.867188 615.507812 405.128906 615.507812 C 429.390625 615.507812 453.46875 613.410156 477.367188 609.214844 C 475.296875 617.949219 473.195312 627.179688 471.09375 636.605469 Z M 480.390625 596.796875 C 467.984375 599.179688 455.496094 600.964844 442.921875 602.160156 C 430.347656 603.355469 417.742188 603.953125 405.113281 603.953125 C 392.480469 603.953125 379.878906 603.355469 367.304688 602.160156 C 354.730469 600.964844 342.238281 599.179688 329.835938 596.796875 C 326.515625 583.824219 323.660156 573.839844 321.132812 566.515625 C 334.949219 569.355469 348.871094 571.488281 362.90625 572.914062 C 376.9375 574.339844 391.007812 575.050781 405.113281 575.050781 C 419.21875 575.050781 433.285156 574.339844 447.320312 572.914062 C 461.351562 571.488281 475.277344 569.355469 489.09375 566.515625 C 486.5625 573.875 483.707031 583.859375 480.390625 596.796875 Z M 527.816406 300.519531 C 527.222656 317.890625 523.710938 328.238281 516.089844 347.84375 C 512.246094 356.910156 507.714844 365.023438 502.625 371.917969 C 487.84375 391.855469 480.390625 413.828125 481.078125 435.472656 C 480.75 460.53125 495.925781 486.148438 497.5 509.730469 C 484.59375 498.433594 465.378906 496.066406 451.160156 514.230469 C 447.777344 519.222656 439.171875 516.890625 439.335938 510.816406 L 439.335938 429.625 C 439.335938 428.179688 439.628906 394.089844 465.148438 365.089844 C 492.871094 333.917969 500.257812 314.707031 499.472656 238.835938 C 498.714844 219.328125 510.574219 203.597656 527.816406 196.832031 Z M 582.925781 353.691406 C 570.183594 364.988281 542.691406 354.644531 528.734375 347.550781 C 531.722656 339.820312 534.230469 331.9375 536.257812 323.902344 C 549.230469 327.941406 564.828125 332.082031 571.167969 315.988281 C 572.796875 318.878906 574.625 321.636719 576.664062 324.253906 C 578.699219 326.875 580.917969 329.332031 583.320312 331.621094 C 585.722656 333.910156 588.277344 336.011719 590.992188 337.921875 C 593.707031 339.832031 596.546875 341.53125 599.511719 343.015625 C 593.4375 345.726562 587.910156 349.285156 582.925781 353.691406 Z M 539.410156 193.285156 C 592.15625 182.808594 609.167969 212.003906 605.390625 248.230469 C 582.105469 248.625 563.648438 266.953125 564.207031 290.238281 L 564.238281 290.238281 C 564.207031 299.796875 562.003906 311.914062 557.800781 315.332031 C 557.046875 315.953125 556.125 316.480469 553.925781 316.054688 C 548.671875 315.292969 543.527344 314.078125 538.488281 312.40625 C 540.195312 311.488281 539.144531 198.605469 539.410156 193.285156 Z M 649.269531 327.089844 C 617.773438 361.082031 554.222656 306.132812 582.761719 270.171875 C 614.457031 236.011719 677.84375 291.617188 649.269531 327.089844 Z M 654.03125 271.089844 C 651.671875 268.296875 649.09375 265.714844 646.304688 263.351562 C 643.511719 260.984375 640.542969 258.863281 637.402344 256.992188 C 634.257812 255.121094 630.980469 253.519531 627.570312 252.195312 C 624.160156 250.867188 620.664062 249.832031 617.082031 249.085938 C 621.945312 206.257812 597.082031 167.566406 533.332031 182.839844 C 505.875 189.769531 487.21875 210.492188 487.878906 238.96875 C 488.632812 311.453125 482.261719 328.433594 456.480469 357.402344 C 428.070312 389.6875 427.773438 428.015625 427.773438 429.625 L 427.773438 510.816406 C 427.773438 520.632812 435.886719 528.582031 445.835938 528.582031 C 447.253906 528.574219 448.652344 528.402344 450.027344 528.066406 C 451.40625 527.734375 452.726562 527.25 453.992188 526.613281 C 455.253906 525.972656 456.429688 525.199219 457.515625 524.289062 C 458.601562 523.378906 459.570312 522.359375 460.421875 521.226562 C 467.21875 512.292969 473.6875 512.785156 473.851562 512.785156 C 488.4375 511.703125 495.300781 523.820312 496.582031 532.0625 C 497.566406 539.386719 494.707031 546.875 493.265625 553.675781 C 478.800781 556.929688 464.203125 559.375 449.46875 561.011719 C 434.734375 562.648438 419.953125 563.464844 405.128906 563.464844 C 390.304688 563.464844 375.523438 562.648438 360.789062 561.011719 C 346.054688 559.375 331.457031 556.929688 316.992188 553.675781 C 315.351562 547.5 313.808594 541.097656 313.25 534.394531 C 318.042969 531.660156 322.527344 528.484375 326.699219 524.871094 C 330.871094 521.257812 334.652344 517.273438 338.046875 512.917969 C 342.875 513.835938 346.683594 517.285156 349.804688 521.191406 C 359.65625 535.019531 382.746094 527.828125 382.484375 510.816406 L 382.484375 429.625 C 382.484375 428.015625 382.152344 389.6875 353.746094 357.402344 C 327.996094 328.402344 321.589844 311.453125 322.378906 239.003906 C 322.542969 226.949219 319.457031 215.878906 313.480469 207.210938 C 305.332031 195.15625 293.179688 187.273438 277.351562 182.972656 C 236.460938 171.246094 212.8125 191.019531 211.796875 191.90625 C 197.210938 204.582031 190.21875 226.519531 193.171875 249.085938 C 178.886719 252.039062 165.550781 259.859375 156.222656 271.089844 C 127.847656 184.480469 194.75 111.929688 279.484375 136.628906 C 285.691406 138.371094 291.703125 141.09375 297.679688 143.921875 C 359.097656 172.757812 433.355469 175.320312 496.875 150.488281 C 503.804688 148.089844 509.554688 145.332031 515.597656 142.507812 C 603.027344 103.261719 684.839844 176.140625 654.03125 271.089844 Z M 440.714844 178.503906 C 427.28125 181.328125 418.609375 188.226562 405.113281 188.355469 C 391.613281 188.488281 382.976562 181.328125 369.476562 178.503906 C 355.976562 175.679688 343.039062 180.902344 335.386719 192.429688 C 324.546875 208.65625 330.425781 228 344.976562 240.183594 C 358.246094 252.535156 362.972656 271.8125 357.324219 290.46875 C 350.363281 313.523438 354.46875 332.277344 369.609375 344.265625 C 369.707031 344.332031 377.6875 349.488281 381.070312 361.375 C 387.933594 385.910156 422.355469 386.042969 429.085938 361.410156 C 432.996094 348.632812 440.121094 344.855469 441.304688 343.773438 C 455.820312 331.6875 459.796875 313.226562 452.867188 290.433594 C 447.21875 271.8125 451.945312 252.566406 465.578125 239.890625 C 494.347656 217.160156 477.828125 171.835938 440.714844 178.503906 Z M 464.855469 223.269531 C 462.652344 226.355469 461.308594 228.066406 457.332031 231.710938 C 440.78125 247.148438 434.800781 270.925781 441.765625 293.816406 C 447.28125 311.914062 444.722656 325.675781 434.113281 334.675781 C 431.878906 336.1875 422.222656 343.445312 417.953125 358.222656 C 416.277344 364.265625 410.992188 368.472656 405.113281 368.472656 C 399.234375 368.472656 393.976562 364.332031 392.203125 358.191406 C 388 343.445312 378.34375 336.1875 376.109375 334.675781 C 365.535156 325.675781 362.941406 311.914062 368.425781 293.816406 C 375.386719 270.894531 369.410156 247.082031 352.53125 231.347656 C 348.882812 228.03125 347.570312 226.324219 345.402344 223.269531 C 334.335938 206.847656 347.539062 186.15625 366.949219 189.835938 C 380.972656 193.019531 389.476562 199.886719 405.113281 199.949219 C 414.800781 199.949219 422.15625 197.125 429.25 194.402344 C 442.289062 188.488281 457.039062 185.992188 465.183594 198.835938 C 469.15625 204.8125 471.160156 214.402344 464.855469 223.269531 Z M 464.855469 223.269531 " fill-opacity="1" fill-rule="nonzero"/></g></svg>