<svg xmlns="http://www.w3.org/2000/svg" xmlns:xlink="http://www.w3.org/1999/xlink" width="1080" zoomAndPan="magnify" viewBox="0 0 810 817.92" height="1080" preserveAspectRatio="xMidYMid meet" version="1.0"><defs><clipPath id="0c3de8f8d8"><path d="M 50.859375 140 L 758.789062 140 L 758.789062 669.996094 L 50.859375 669.996094 Z M 50.859375 140 " clip-rule="nonzero"/></clipPath></defs><g clip-path="url(#0c3de8f8d8)"><path fill="#144295" d="M 303.339844 435.433594 L 157.144531 435.433594 C 98.542969 435.433594 50.859375 483.117188 50.859375 541.714844 L 50.859375 661.109375 C 50.859375 665.972656 54.8125 669.925781 59.675781 669.925781 L 400.792969 669.925781 C 405.65625 669.925781 409.609375 665.972656 409.609375 661.109375 L 409.609375 541.714844 C 409.609375 483.117188 361.925781 435.433594 303.324219 435.433594 Z M 391.976562 652.277344 L 349.640625 652.277344 L 349.640625 563.566406 C 349.640625 558.703125 345.6875 554.75 340.824219 554.75 C 335.960938 554.75 332.007812 558.703125 332.007812 563.566406 L 332.007812 652.277344 L 128.460938 652.277344 L 128.460938 563.566406 C 128.460938 558.703125 124.507812 554.75 119.644531 554.75 C 114.78125 554.75 110.828125 558.703125 110.828125 563.566406 L 110.828125 652.277344 L 68.492188 652.277344 L 68.492188 541.703125 C 68.492188 492.828125 108.257812 453.050781 157.144531 453.050781 L 303.339844 453.050781 C 352.214844 453.050781 391.992188 492.8125 391.992188 541.703125 L 391.992188 652.277344 Z M 116.03125 312.277344 L 118.835938 312.277344 C 123.070312 370.058594 171.398438 415.769531 230.234375 415.769531 C 289.070312 415.769531 337.402344 370.058594 341.632812 312.277344 L 344.441406 312.277344 C 359.148438 312.277344 371.109375 300.316406 371.109375 285.609375 C 371.109375 273.765625 363.351562 263.714844 352.652344 260.246094 C 350.304688 216.089844 319.679688 177.574219 277.273438 165.230469 C 274.714844 151.007812 262.285156 140.164062 247.324219 140.164062 L 213.101562 140.164062 C 198.15625 140.164062 185.710938 151.007812 183.152344 165.230469 C 140.761719 177.574219 110.121094 216.101562 107.773438 260.246094 C 97.074219 263.714844 89.316406 273.765625 89.316406 285.609375 C 89.316406 300.316406 101.277344 312.277344 115.984375 312.277344 Z M 230.234375 398.136719 C 181.125 398.136719 140.703125 360.3125 136.515625 312.277344 L 323.957031 312.277344 C 319.769531 360.3125 279.34375 398.136719 230.234375 398.136719 Z M 182.683594 183.894531 L 182.683594 231.03125 C 182.683594 235.898438 186.636719 239.847656 191.5 239.847656 C 196.363281 239.847656 200.316406 235.898438 200.316406 231.03125 L 200.316406 170.59375 C 200.316406 163.527344 206.0625 157.78125 213.128906 157.78125 L 247.355469 157.78125 C 254.421875 157.78125 260.167969 163.527344 260.167969 170.59375 L 260.167969 231.03125 C 260.167969 235.898438 264.121094 239.847656 268.984375 239.847656 C 273.847656 239.847656 277.800781 235.898438 277.800781 231.03125 L 277.800781 183.894531 C 309.539062 195.472656 332.230469 225.039062 334.917969 258.921875 L 125.566406 258.921875 C 128.253906 225.039062 150.957031 195.472656 182.683594 183.894531 Z M 116.03125 276.554688 L 344.453125 276.554688 C 349.4375 276.554688 353.492188 280.613281 353.492188 285.59375 C 353.492188 290.574219 349.4375 294.628906 344.453125 294.628906 L 116.03125 294.628906 C 111.046875 294.628906 106.992188 290.574219 106.992188 285.59375 C 106.992188 280.613281 111.046875 276.554688 116.03125 276.554688 Z M 757.234375 231.828125 L 754.589844 199.761719 C 754.222656 195.296875 750.5625 191.8125 746.082031 191.679688 L 713.929688 190.636719 C 677.578125 189.460938 647.585938 179.25 622.238281 159.414062 L 600.003906 142.015625 C 596.816406 139.515625 592.335938 139.515625 589.144531 142.015625 L 566.914062 159.414062 C 541.566406 179.25 511.574219 189.460938 475.21875 190.636719 L 443.070312 191.679688 C 438.585938 191.828125 434.929688 195.3125 434.5625 199.761719 L 431.914062 231.828125 C 419.984375 376.714844 465.316406 469.539062 574.554688 523.921875 L 590.628906 531.929688 C 591.863281 532.546875 593.214844 532.855469 594.554688 532.855469 C 595.890625 532.855469 597.242188 532.546875 598.476562 531.929688 L 614.550781 523.921875 C 723.804688 469.539062 769.121094 376.726562 757.207031 231.828125 Z M 606.734375 508.125 L 594.582031 514.179688 L 582.429688 508.125 C 479.085938 456.679688 438.085938 371.90625 449.503906 233.265625 L 451.503906 209.035156 L 475.792969 208.242188 C 516.027344 206.933594 549.382812 195.5 577.785156 173.285156 L 594.582031 160.132812 L 611.378906 173.285156 C 639.78125 195.5 673.140625 206.933594 713.371094 208.242188 L 737.664062 209.035156 L 739.660156 233.265625 C 751.078125 371.90625 710.082031 456.679688 606.734375 508.125 Z M 712.769531 226.699219 C 669.113281 225.289062 631.171875 212.210938 600.003906 187.832031 C 596.816406 185.332031 592.335938 185.332031 589.144531 187.832031 C 557.992188 212.210938 520.050781 225.289062 476.382812 226.699219 C 471.898438 226.84375 468.238281 230.328125 467.871094 234.78125 C 461.949219 306.695312 471.121094 362.929688 495.910156 406.75 C 516.171875 442.558594 546.265625 469.523438 590.644531 491.609375 C 591.878906 492.226562 593.230469 492.535156 594.566406 492.535156 C 595.90625 492.535156 597.257812 492.226562 598.492188 491.609375 C 642.855469 469.523438 672.960938 442.558594 693.226562 406.75 C 718.015625 362.945312 727.183594 306.695312 721.261719 234.78125 C 720.894531 230.3125 717.238281 226.832031 712.753906 226.699219 Z M 594.582031 473.84375 C 533.925781 442.71875 475 390.042969 484.890625 243.949219 C 526.605469 241.304688 563.445312 228.492188 594.582031 205.832031 C 625.71875 228.503906 662.558594 241.304688 704.277344 243.949219 C 714.164062 390.042969 655.242188 442.734375 594.582031 473.84375 Z M 655.460938 305.679688 L 625.398438 305.679688 L 625.398438 275.617188 C 625.398438 270.75 621.445312 266.800781 616.582031 266.800781 L 572.601562 266.800781 C 567.734375 266.800781 563.785156 270.75 563.785156 275.617188 L 563.785156 305.679688 L 533.71875 305.679688 C 528.855469 305.679688 524.902344 309.632812 524.902344 314.496094 L 524.902344 358.476562 C 524.902344 363.339844 528.855469 367.292969 533.71875 367.292969 L 563.785156 367.292969 L 563.785156 397.359375 C 563.785156 402.222656 567.734375 406.175781 572.601562 406.175781 L 616.582031 406.175781 C 621.445312 406.175781 625.398438 402.222656 625.398438 397.359375 L 625.398438 367.292969 L 655.460938 367.292969 C 660.324219 367.292969 664.277344 363.339844 664.277344 358.476562 L 664.277344 314.496094 C 664.277344 309.632812 660.324219 305.679688 655.460938 305.679688 Z M 646.644531 349.675781 L 616.582031 349.675781 C 611.714844 349.675781 607.761719 353.628906 607.761719 358.492188 L 607.761719 388.558594 L 581.417969 388.558594 L 581.417969 358.492188 C 581.417969 353.628906 577.464844 349.675781 572.601562 349.675781 L 542.535156 349.675781 L 542.535156 323.328125 L 572.601562 323.328125 C 577.464844 323.328125 581.417969 319.375 581.417969 314.511719 L 581.417969 284.445312 L 607.761719 284.445312 L 607.761719 314.511719 C 607.761719 319.375 611.714844 323.328125 616.582031 323.328125 L 646.644531 323.328125 Z M 646.644531 349.675781 " fill-opacity="1" fill-rule="nonzero"/></g></svg>