<svg xmlns="http://www.w3.org/2000/svg" xmlns:xlink="http://www.w3.org/1999/xlink" width="1080" zoomAndPan="magnify" viewBox="0 0 810 817.92" height="1080" preserveAspectRatio="xMidYMid meet" version="1.0"><defs><clipPath id="28a6e30d90"><path d="M 167.242188 79.753906 L 642.695312 79.753906 L 642.695312 729 L 167.242188 729 Z M 167.242188 79.753906 " clip-rule="nonzero"/></clipPath></defs><g clip-path="url(#28a6e30d90)"><path fill="#144295" d="M 269.015625 82.371094 C 261.894531 83.953125 254.703125 85.96875 253.046875 86.757812 C 249.234375 88.628906 244.488281 93.953125 243.335938 97.546875 C 242.617188 99.996094 242.1875 100.355469 239.957031 100.785156 C 218.160156 104.453125 204.132812 111 191.1875 123.585938 C 178.457031 135.886719 171.046875 150.703125 168.167969 169.046875 C 166.15625 182.28125 166.804688 187.605469 176.585938 236.660156 C 181.40625 260.757812 186.800781 288.019531 188.597656 297.152344 L 191.90625 313.769531 L 190.179688 317.292969 C 189.101562 319.597656 188.382812 322.472656 188.238281 325.566406 C 187.949219 329.882812 188.382812 331.609375 192.265625 343.1875 C 205.71875 383.542969 218.953125 407.855469 238.375 427.851562 C 256.355469 446.410156 277.070312 458.636719 300.664062 464.679688 L 307.136719 466.332031 L 307.496094 507.910156 C 307.859375 546.894531 307.929688 549.699219 309.222656 552.074219 C 309.945312 553.441406 310.949219 555.023438 311.382812 555.597656 C 311.886719 556.246094 312.101562 559.699219 311.957031 565.667969 C 311.667969 576.601562 312.820312 596.957031 314.332031 607.386719 C 322.242188 661.839844 354.613281 703.34375 403.164062 721.324219 C 420.429688 727.726562 441.863281 730.316406 460.566406 728.230469 C 511.921875 722.691406 556.589844 687.589844 578.171875 635.871094 C 589.101562 609.617188 593.777344 581.0625 593.777344 540.132812 L 593.777344 524.164062 L 599.964844 521.214844 C 617.300781 512.945312 631.183594 498.199219 637.726562 481.222656 C 651.683594 445.1875 635.28125 404.546875 600.035156 388.074219 C 589.535156 383.183594 583.707031 382.03125 569.683594 382.03125 C 556.160156 382.03125 551.773438 382.894531 540.839844 387.425781 C 524.582031 394.1875 509.550781 409.21875 502.5 425.910156 C 498.113281 436.265625 497.03125 441.875 497.03125 454.96875 C 497.105469 465.039062 497.320312 467.773438 498.757812 472.949219 C 504.441406 493.953125 519.476562 511.863281 539.472656 521.214844 L 545.371094 524.019531 L 545.800781 529.917969 C 546.59375 539.414062 546.378906 575.667969 545.585938 583.792969 C 542.636719 612.78125 531.917969 636.230469 512.859375 655.292969 C 493.941406 674.355469 472 683.847656 447.042969 683.921875 C 429.996094 683.992188 416.113281 680.109375 401.941406 671.40625 C 393.453125 666.152344 379.570312 652.488281 374.03125 643.929688 C 364.324219 628.894531 358.640625 611.128906 356.410156 588.828125 C 355.402344 578.617188 355.476562 555.167969 356.480469 554.519531 C 356.914062 554.304688 357.921875 552.722656 358.640625 551.066406 C 359.863281 548.332031 360.007812 545.671875 360.007812 507.40625 L 360.007812 466.621094 L 366.265625 465.109375 C 388.132812 459.570312 407.910156 448.496094 425.03125 431.949219 C 446.898438 410.875 461.210938 385.269531 475.8125 341.320312 C 479.121094 331.390625 479.480469 329.667969 479.195312 325.496094 C 478.980469 322.402344 478.257812 319.597656 477.109375 317.292969 L 475.308594 313.839844 L 480.128906 289.601562 C 482.789062 276.292969 488.1875 249.390625 492.070312 229.828125 L 499.191406 194.222656 L 499.117188 180.554688 C 499.117188 167.96875 498.902344 166.3125 497.105469 159.695312 C 491.0625 137.613281 477.179688 119.992188 457.902344 110.207031 C 449.917969 106.109375 444.8125 104.382812 434.167969 102.222656 C 429.417969 101.289062 425.175781 100.28125 424.816406 100.066406 C 424.457031 99.777344 423.953125 98.699219 423.664062 97.621094 C 422.945312 94.3125 418.703125 89.347656 414.890625 87.261719 C 410.214844 84.671875 384.824219 79.207031 380.289062 79.78125 C 373.167969 80.71875 366.335938 85.535156 363.890625 91.433594 C 363.316406 92.730469 361.375 101.074219 359.574219 109.847656 C 355.90625 127.542969 355.691406 132.21875 358.425781 137.398438 C 360.152344 140.707031 363.675781 144.304688 366.984375 145.957031 C 370.941406 147.972656 397.265625 153.078125 401.4375 152.648438 C 405.96875 152.144531 409.855469 150.273438 413.449219 146.675781 L 416.183594 143.941406 L 424.457031 145.453125 C 441.648438 148.617188 450.351562 155.8125 454.667969 170.484375 C 457.183594 178.972656 456.679688 183 446.824219 232.703125 C 441.789062 257.808594 436.753906 283.199219 435.53125 289.097656 C 434.382812 294.996094 433.375 299.960938 433.375 300.03125 C 433.375 300.175781 432.296875 300.75 430.929688 301.324219 C 427.332031 302.835938 422.226562 307.800781 420.570312 311.324219 C 418.703125 315.425781 416.6875 323.984375 412.515625 345.058594 C 410.574219 354.839844 408.128906 365.34375 407.121094 368.4375 C 400.070312 389.367188 385.828125 405.769531 366.265625 415.40625 C 333.609375 431.519531 293.113281 420.730469 271.605469 390.230469 C 263.1875 378.289062 259.878906 369.15625 254.917969 344.699219 C 248.945312 314.921875 247.21875 309.597656 241.753906 304.777344 C 240.386719 303.554688 238.085938 302.1875 236.648438 301.683594 C 235.136719 301.109375 233.914062 300.175781 233.769531 299.238281 C 232.257812 292.910156 227.871094 270.828125 220.175781 231.625 C 210.609375 183 210.03125 178.828125 212.117188 171.0625 C 213.703125 165.019531 216.074219 160.917969 220.535156 156.097656 C 226.792969 149.480469 234.5625 146.101562 247.21875 144.589844 C 251.25 144.085938 251.320312 144.085938 253.695312 146.820312 C 256.714844 150.273438 262.253906 152.863281 266.570312 152.863281 C 269.949219 152.863281 295.558594 147.828125 299.296875 146.390625 C 304.910156 144.230469 309.007812 138.835938 310.230469 132.074219 C 310.878906 128.621094 310.519531 126.105469 307.496094 110.785156 C 305.554688 101 303.398438 92.082031 302.535156 90.425781 C 300.59375 86.542969 296.996094 83.164062 293.183594 81.4375 C 287.789062 79.0625 283.257812 79.207031 269.015625 82.371094 Z M 286.855469 96.902344 C 287.644531 97.546875 288.941406 102.367188 290.953125 112.222656 C 292.535156 120.132812 293.976562 127.183594 294.117188 127.832031 C 294.695312 130.421875 292.894531 131.285156 281.601562 133.441406 C 275.488281 134.59375 269.808594 135.742188 268.945312 135.960938 C 265.851562 136.679688 265.203125 135.097656 261.824219 119.128906 C 258.875 105.246094 258.65625 103.589844 259.664062 102.582031 C 260.238281 101.9375 265.851562 100.28125 272.46875 98.84375 C 286.421875 95.679688 285.34375 95.824219 286.855469 96.902344 Z M 395.324219 98.988281 C 401.4375 100.210938 406.832031 101.578125 407.410156 102.007812 C 408.632812 103.015625 408.273438 105.75 404.675781 121.933594 C 401.796875 134.59375 400.789062 136.824219 398.203125 135.960938 C 397.554688 135.816406 392.375 134.664062 386.621094 133.511719 C 374.824219 131.140625 373.960938 130.851562 373.386719 129.414062 C 372.953125 128.191406 378.636719 98.914062 379.644531 97.621094 C 380.652344 96.324219 383.097656 96.542969 395.324219 98.988281 Z M 245.496094 122.582031 C 245.925781 125.167969 246.214844 127.328125 246.140625 127.328125 C 246.070312 127.398438 242.113281 128.335938 237.367188 129.339844 C 225.136719 132.003906 216.9375 136.246094 209.671875 143.511719 C 199.601562 153.652344 195.289062 163.796875 194.785156 178.757812 L 194.425781 187.75 L 205.644531 243.78125 C 211.832031 274.566406 217.011719 300.390625 217.226562 301.039062 C 217.585938 302.117188 216.792969 302.546875 212.765625 303.773438 C 210.105469 304.632812 207.660156 305.066406 207.445312 304.777344 C 206.582031 303.773438 184.355469 189.835938 183.996094 184.511719 C 183.203125 173.21875 186.65625 158.328125 192.339844 148.617188 C 199.960938 135.742188 212.621094 125.53125 226.648438 120.925781 C 231.46875 119.34375 243.695312 117.042969 244.273438 117.546875 C 244.488281 117.761719 245.0625 120.0625 245.496094 122.582031 Z M 430.210938 118.335938 C 439.34375 120.207031 443.230469 121.5 449.992188 124.882812 C 467.039062 133.371094 478.691406 149.554688 482.289062 169.695312 C 484.015625 179.621094 483.292969 187.246094 478.257812 213.066406 C 471.210938 249.609375 460.707031 302.691406 460.277344 303.988281 C 459.988281 304.996094 459.484375 304.996094 454.953125 303.699219 C 450.636719 302.40625 449.992188 301.972656 450.277344 300.75 C 451.429688 295.570312 470.996094 195.804688 471.929688 190.265625 C 474.375 175.664062 470.777344 160.128906 462.074219 148.402344 C 454.808594 138.691406 444.957031 132.648438 430.859375 129.484375 C 426.542969 128.476562 422.371094 127.6875 421.578125 127.6875 C 420.789062 127.6875 420.429688 127.328125 420.644531 126.679688 C 420.859375 126.105469 421.433594 123.730469 421.9375 121.285156 C 422.371094 118.839844 422.875 116.898438 422.945312 116.898438 C 423.089844 116.898438 426.324219 117.546875 430.210938 118.335938 Z M 231.179688 317.871094 C 232.617188 319.523438 234.058594 325.351562 238.085938 345.347656 C 243.550781 372.609375 247.652344 384.1875 256.5 397.785156 C 261.175781 404.976562 274.410156 418.285156 281.601562 423.101562 C 298.074219 434.109375 314.476562 439.144531 334.183594 439.144531 C 369.859375 439.144531 400.648438 419.722656 417.191406 386.777344 C 421.722656 377.714844 424.960938 367.5 427.621094 353.835938 C 430.859375 336.859375 434.8125 320.316406 435.964844 318.445312 C 436.539062 317.582031 437.617188 316.863281 438.339844 316.863281 C 439.058594 316.863281 444.453125 318.300781 450.351562 320.097656 C 460.421875 323.121094 462.867188 324.414062 462.867188 326.644531 C 462.867188 328.730469 453.011719 356.855469 448.769531 366.855469 C 428.914062 413.679688 396.691406 442.523438 355.332031 450.582031 C 347.921875 452.019531 346.050781 452.882812 344.757812 455.183594 C 344.039062 456.40625 343.75 466.980469 343.460938 500.644531 L 343.101562 544.519531 L 334.832031 544.878906 C 330.300781 545.097656 325.984375 545.023438 325.335938 544.664062 C 324.113281 544.160156 324.042969 541.355469 324.042969 501.289062 C 324.042969 454.609375 324.042969 454.679688 319.941406 452.59375 C 318.863281 452.019531 315.050781 451.011719 311.453125 450.292969 C 292.824219 446.839844 273.042969 437.058594 258.152344 423.894531 C 236.71875 404.90625 222.117188 380.015625 208.523438 339.375 C 206.363281 332.976562 204.636719 327.078125 204.636719 326.285156 C 204.636719 324.199219 205.933594 323.550781 217.296875 320.097656 C 228.445312 316.648438 230.03125 316.429688 231.179688 317.871094 Z M 585.507812 400.300781 C 610.96875 408.359375 627.226562 431.160156 625.929688 457.125 C 625.5 466.476562 624.203125 471.511719 620.03125 479.785156 C 612.480469 494.816406 597.808594 506.324219 581.765625 509.921875 C 571.410156 512.222656 557.09375 510.929688 547.527344 506.828125 C 534.867188 501.363281 522.710938 488.992188 517.246094 475.972656 C 513.289062 466.621094 512.136719 453.457031 514.222656 443.386719 C 518.828125 421.953125 536.523438 404.113281 558.101562 399.152344 C 564.71875 397.640625 579.03125 398.289062 585.507812 400.300781 Z M 577.234375 538.40625 C 577.164062 554.160156 576.011719 576.671875 574.71875 585.160156 C 570.1875 615.445312 560.402344 640.257812 544.722656 661.261719 C 525.230469 687.230469 499.765625 703.703125 468.621094 710.390625 C 457.757812 712.765625 436.46875 712.765625 425.460938 710.390625 C 379.929688 700.679688 345.332031 666.800781 333.824219 620.621094 C 330.660156 608.035156 329.722656 599.476562 329.292969 580.269531 L 328.859375 562.144531 L 338.929688 562.144531 L 339.363281 576.3125 C 340.226562 603.863281 344.613281 623.570312 354.109375 642.417969 C 364.609375 663.347656 382.953125 681.332031 403.882812 691.1875 C 442.726562 709.527344 489.410156 700.894531 522.136719 669.320312 C 546.304688 646.015625 559.109375 618.175781 562.128906 582.285156 C 562.632812 576.960938 562.921875 562.71875 562.777344 550.636719 C 562.703125 538.550781 562.703125 528.480469 562.777344 528.265625 C 562.777344 528.046875 566.085938 527.90625 570.042969 527.90625 L 577.234375 527.976562 Z M 577.234375 538.40625 " fill-opacity="1" fill-rule="nonzero"/></g><path fill="#144295" d="M 560.691406 416.558594 C 546.089844 420.371094 535.011719 431.734375 531.558594 446.410156 C 528.464844 459.714844 532.566406 472.949219 543.066406 482.875 C 550.765625 490.214844 559.539062 493.808594 570.042969 493.808594 C 586.226562 493.808594 601.402344 482.660156 606.871094 466.621094 C 609.101562 459.929688 609.171875 450.148438 606.941406 443.101562 C 603.847656 433.246094 596.871094 424.757812 588.023438 420.152344 C 579.464844 415.621094 569.25 414.253906 560.691406 416.558594 Z M 580.183594 434.898438 C 587.664062 438.925781 591.910156 445.976562 591.910156 454.679688 C 591.910156 458.996094 591.621094 460.507812 589.605469 464.535156 C 585.507812 472.808594 578.816406 476.90625 569.324219 476.90625 C 562.632812 476.90625 557.09375 474.460938 552.851562 469.640625 C 544.363281 459.929688 546.160156 443.746094 556.445312 436.554688 C 564 431.375 572.34375 430.726562 580.183594 434.898438 Z M 580.183594 434.898438 " fill-opacity="1" fill-rule="nonzero"/></svg>