<svg xmlns="http://www.w3.org/2000/svg" xmlns:xlink="http://www.w3.org/1999/xlink" width="1080" zoomAndPan="magnify" viewBox="0 0 810 817.92" height="1080" preserveAspectRatio="xMidYMid meet" version="1.0"><defs><clipPath id="5a47f7d97c"><path d="M 113.539062 116.777344 L 696.230469 116.777344 L 696.230469 693.46875 L 113.539062 693.46875 Z M 113.539062 116.777344 " clip-rule="nonzero"/></clipPath></defs><g clip-path="url(#5a47f7d97c)"><path fill="#144295" d="M 535.984375 164.03125 L 591.148438 164.03125 C 595.996094 164.03125 599.898438 167.984375 599.898438 172.820312 L 599.898438 213.105469 L 640.222656 213.105469 C 645.070312 213.105469 649.011719 217.058594 649.011719 221.894531 L 649.011719 277.019531 C 649.011719 281.890625 645.058594 285.808594 640.222656 285.808594 L 599.898438 285.808594 L 599.898438 326.09375 C 599.898438 330.964844 595.984375 334.882812 591.148438 334.882812 L 535.984375 334.882812 C 531.140625 334.882812 527.199219 330.964844 527.199219 326.09375 L 527.199219 285.808594 L 486.910156 285.808594 C 482.066406 285.808594 478.125 281.890625 478.125 277.019531 L 478.125 221.894531 C 478.125 217.046875 482.078125 213.105469 486.910156 213.105469 L 527.199219 213.105469 L 527.199219 172.820312 C 527.199219 167.984375 531.152344 164.03125 535.984375 164.03125 Z M 582.363281 181.605469 L 544.785156 181.605469 L 544.785156 221.894531 C 544.785156 226.726562 540.871094 230.679688 536 230.679688 L 495.710938 230.679688 L 495.710938 268.230469 L 536 268.230469 C 540.871094 268.230469 544.785156 272.1875 544.785156 277.019531 L 544.785156 317.34375 L 582.363281 317.34375 L 582.363281 277.019531 C 582.363281 272.171875 586.277344 268.230469 591.148438 268.230469 L 631.4375 268.230469 L 631.4375 230.679688 L 591.148438 230.679688 C 586.277344 230.679688 582.363281 226.726562 582.363281 221.894531 Z M 563.566406 116.777344 C 636.847656 116.777344 696.265625 176.171875 696.265625 249.476562 C 696.265625 290.867188 677.257812 328.191406 646.902344 352.746094 C 653.808594 382.714844 646.765625 414.449219 627.933594 438.71875 C 672.488281 481.0625 670.53125 553.125 622.8125 592.632812 C 605.585938 606.945312 583.742188 615.582031 560.316406 616.296875 C 552.132812 665.296875 506.859375 698.929688 456.757812 692.3125 C 423.238281 687.871094 398.929688 665.296875 386.96875 635.871094 C 375.015625 665.257812 350.558594 687.855469 317.039062 692.3125 C 266.972656 698.890625 221.664062 665.273438 213.480469 616.296875 C 163.726562 614.804688 121.695312 577.582031 114.765625 527.613281 C 110.109375 494.308594 121.984375 461.429688 145.863281 438.71875 C 117.425781 402.058594 117.113281 350.75 145.109375 313.664062 C 160.878906 292.8125 184.542969 277.898438 212.402344 273.84375 C 218.878906 228.898438 257.308594 195.015625 303.683594 194.875 C 336.925781 194.800781 370.761719 212.203125 386.316406 241.492188 C 397.664062 221.378906 418.339844 206.828125 440.4375 199.785156 C 460.398438 150.410156 508.59375 116.777344 563.566406 116.777344 Z M 631.109375 363.707031 C 578.933594 394.628906 512.460938 386.015625 469.726562 343.316406 C 438.339844 311.894531 424.140625 266.273438 433.855469 221.328125 C 412.753906 231.546875 394.714844 250.90625 394.8125 275.425781 L 395.667969 589.582031 C 395.742188 611.613281 402.007812 632.503906 413.882812 648.222656 C 424.453125 662.171875 439.507812 672.0625 458.652344 674.839844 C 459.003906 674.875 459.40625 674.9375 459.757812 675.015625 C 479.929688 677.648438 499.328125 671.949219 514.457031 660.5625 C 531.078125 647.996094 542.175781 628.675781 543.820312 606.792969 C 544.210938 601.921875 548.265625 598.394531 553.460938 598.722656 C 575.242188 599.6875 595.769531 592.28125 611.652344 579.113281 C 653.53125 544.414062 652.503906 480.148438 610.230469 446.515625 C 606.140625 443.273438 605.851562 437.300781 609.378906 433.558594 C 626.703125 415.242188 634.636719 388.726562 631.109375 363.707031 Z M 644.996094 168.046875 C 600.011719 123.105469 527.136719 123.105469 482.152344 168.046875 C 437.210938 212.992188 437.210938 285.90625 482.152344 330.863281 C 527.136719 375.847656 600.011719 375.847656 644.996094 330.863281 C 689.9375 285.921875 689.9375 213.003906 644.996094 168.046875 Z M 375.027344 397.550781 C 375.957031 397.664062 376.847656 397.878906 377.664062 398.269531 L 377.339844 275.425781 C 377.414062 219.773438 293.929688 187.707031 248.945312 236.242188 C 237.699219 248.40625 230.542969 264.25 229.261719 281.363281 L 241.363281 303.671875 L 279.402344 281.714844 C 283.59375 279.292969 288.945312 280.746094 291.355469 284.953125 C 293.738281 289.121094 292.320312 294.496094 288.117188 296.878906 L 250.289062 318.722656 L 266.835938 344.234375 C 269.472656 348.289062 268.292969 353.699219 264.238281 356.335938 C 260.183594 358.972656 254.769531 357.832031 252.132812 353.777344 L 230.957031 321.109375 L 214.621094 291.253906 C 157.863281 299.753906 125.652344 360.757812 150.070312 412.316406 C 153.773438 420.113281 158.605469 427.230469 164.34375 433.457031 L 184.203125 450.820312 L 215.589844 439.824219 C 220.785156 438.039062 226.410156 441.277344 227.1875 447.15625 L 233.164062 485.371094 C 233.917969 490.140625 230.640625 494.621094 225.832031 495.375 C 221.0625 496.128906 216.617188 492.851562 215.867188 488.042969 L 211.457031 459.859375 L 188.222656 467.96875 L 171.773438 496.503906 C 169.351562 500.699219 164.015625 502.128906 159.824219 499.742188 C 155.628906 497.320312 154.199219 491.984375 156.585938 487.792969 L 171.109375 462.632812 L 158.117188 451.285156 C 120.992188 486.335938 122.523438 546.269531 162.171875 579.113281 C 178.039062 592.28125 198.617188 599.675781 220.359375 598.722656 C 225.558594 598.394531 229.613281 601.921875 230 606.792969 C 231.671875 628.675781 242.78125 648.007812 259.390625 660.5625 C 274.480469 671.949219 293.878906 677.648438 314.050781 675.015625 C 314.441406 674.9375 314.804688 674.875 315.195312 674.839844 C 334.339844 672.027344 349.503906 662.132812 360.0625 648.148438 C 372.164062 632.128906 378.027344 611.777344 378.140625 589.429688 L 377.675781 414.238281 C 376.285156 414.878906 374.726562 415.167969 373.082031 414.992188 L 348.386719 412.253906 L 342.664062 420.324219 L 348.113281 441.039062 C 349.355469 445.734375 346.542969 450.542969 341.886719 451.75 C 337.191406 452.992188 332.382812 450.179688 331.175781 445.523438 L 324.660156 420.867188 C 324.019531 418.40625 324.445312 415.742188 326.015625 413.535156 L 333.914062 402.398438 L 323.027344 382.574219 C 320.679688 378.308594 322.25 372.972656 326.480469 370.648438 C 330.710938 368.300781 336.058594 369.871094 338.40625 374.101562 L 349.757812 394.742188 Z M 480.472656 428.046875 L 463.925781 402.535156 C 461.289062 398.480469 462.429688 393.070312 466.484375 390.398438 C 470.539062 387.761719 475.953125 388.941406 478.589844 392.996094 L 499.792969 425.660156 L 518.9375 460.714844 C 521.246094 464.945312 519.652344 470.292969 515.386719 472.601562 C 511.117188 474.910156 505.78125 473.355469 503.457031 469.074219 L 489.359375 443.097656 L 451.320312 465.058594 C 447.152344 467.441406 441.777344 466.023438 439.394531 461.816406 C 436.972656 457.625 438.425781 452.277344 442.59375 449.867188 Z M 553.789062 517.308594 C 553.5 512.460938 557.164062 508.304688 562.011719 508.015625 C 566.855469 507.730469 571.011719 511.433594 571.300781 516.277344 L 573.183594 547.878906 C 573.433594 551.792969 571.050781 555.246094 567.597656 556.566406 L 536.175781 570.585938 L 524.5 583.96875 C 521.335938 587.636719 515.785156 588.027344 512.121094 584.863281 C 508.453125 581.660156 508.066406 576.113281 511.265625 572.445312 L 524.148438 557.644531 L 524.183594 557.644531 C 525 556.714844 526.003906 555.9375 527.210938 555.398438 L 555.320312 542.867188 Z M 340.015625 553.136719 C 344.496094 551.214844 349.617188 553.3125 351.539062 557.769531 C 353.421875 562.214844 351.363281 567.375 346.882812 569.269531 L 323.21875 579.339844 L 303.683594 608.652344 C 301.007812 612.667969 295.535156 613.773438 291.515625 611.074219 C 287.460938 608.402344 286.394531 602.925781 289.058594 598.910156 L 303.507812 577.277344 L 285.464844 571.792969 C 282.191406 570.800781 279.917969 568.050781 279.378906 564.925781 L 275.183594 541.902344 C 274.332031 537.128906 277.496094 532.574219 282.265625 531.71875 C 287.035156 530.867188 291.554688 534.03125 292.410156 538.800781 L 295.648438 556.589844 L 316.851562 562.992188 Z M 340.015625 553.136719 " fill-opacity="1" fill-rule="nonzero"/></g></svg>