<svg xmlns="http://www.w3.org/2000/svg" xmlns:xlink="http://www.w3.org/1999/xlink" width="1080" zoomAndPan="magnify" viewBox="0 0 810 817.92" height="1080" preserveAspectRatio="xMidYMid meet" version="1.0"><defs><clipPath id="154abe2498"><path d="M 202.046875 189 L 607.753906 189 L 607.753906 676.691406 L 202.046875 676.691406 Z M 202.046875 189 " clip-rule="nonzero"/></clipPath></defs><path fill="#144295" d="M 318.109375 159.207031 C 332.328125 162.648438 358.210938 171.765625 371.816406 194.148438 C 379.496094 206.785156 380.902344 221.46875 376.257812 234.363281 C 359.0625 214.679688 335.066406 194.457031 301.632812 177.539062 C 296.808594 175.097656 290.914062 177.03125 288.472656 181.855469 C 286.027344 186.679688 287.960938 192.574219 292.785156 195.015625 C 322.605469 210.105469 346.839844 229.007812 365.246094 251.449219 C 357.820312 258.832031 348.753906 262.90625 338.210938 263.566406 C 321.644531 264.605469 302.695312 256.6875 288.75 242.914062 C 274.335938 228.675781 265.386719 210.164062 258.535156 193.929688 C 256.976562 190.238281 255.511719 186.507812 253.957031 182.554688 C 250.644531 174.132812 247.261719 165.519531 242.929688 157.28125 C 269.03125 153.054688 295.292969 153.6875 318.109375 159.207031 Z M 235.722656 189.722656 C 237.253906 193.609375 238.835938 197.628906 240.488281 201.550781 C 248.089844 219.554688 258.128906 240.199219 274.984375 256.851562 C 291.910156 273.574219 314.140625 283.25 335.21875 283.25 C 336.628906 283.25 338.035156 283.203125 339.429688 283.117188 C 353.734375 282.226562 366.503906 276.8125 376.917969 267.359375 C 381.027344 273.628906 384.734375 280.140625 388.023438 286.882812 C 402.070312 315.640625 403.0625 338.152344 403.070312 338.347656 C 403.238281 343.644531 407.589844 347.835938 412.851562 347.835938 C 412.957031 347.835938 413.0625 347.835938 413.167969 347.828125 C 418.570312 347.660156 422.820312 343.136719 422.648438 337.734375 C 422.617188 336.679688 421.664062 311.597656 406.113281 279.292969 C 402.058594 270.855469 396.722656 261.425781 389.769531 251.546875 C 401.777344 230.980469 401.542969 205.34375 388.554688 183.976562 C 375.75 162.902344 352.367188 147.34375 322.71875 140.167969 C 293.058594 132.988281 258.367188 133.21875 225.035156 140.820312 C 221.832031 141.550781 219.203125 143.84375 218.046875 146.921875 C 216.886719 150.003906 217.351562 153.457031 219.285156 156.117188 C 226.347656 165.859375 230.902344 177.449219 235.722656 189.722656 " fill-opacity="1" fill-rule="nonzero"/><path fill="#144295" d="M 447.925781 341.523438 C 411.179688 367.765625 380.050781 343.085938 378.648438 341.941406 C 374.492188 338.507812 368.332031 339.074219 364.878906 343.222656 C 361.417969 347.375 361.980469 353.554688 366.136719 357.015625 C 375 364.402344 392.191406 373.082031 412.941406 373.082031 C 427.234375 373.082031 443.21875 368.960938 459.3125 357.460938 C 463.714844 354.320312 464.734375 348.203125 461.585938 343.800781 C 458.445312 339.398438 452.328125 338.375 447.925781 341.523438 " fill-opacity="1" fill-rule="nonzero"/><path fill="#144295" d="M 554.457031 446.398438 C 555.019531 446.398438 555.589844 446.347656 556.167969 446.25 C 561.492188 445.3125 565.054688 440.230469 564.113281 434.90625 C 559.25 407.285156 547.472656 382.742188 530.058594 363.929688 C 526.386719 359.957031 520.191406 359.714844 516.21875 363.394531 C 512.25 367.066406 512.007812 373.265625 515.683594 377.234375 C 530.324219 393.054688 540.667969 414.738281 544.820312 438.300781 C 545.65625 443.050781 549.789062 446.398438 554.457031 446.398438 " fill-opacity="1" fill-rule="nonzero"/><g clip-path="url(#154abe2498)"><path fill="#144295" d="M 572.582031 351.3125 C 549.65625 322.292969 518.4375 305.007812 482.296875 301.339844 C 472.800781 300.375 463.148438 300.367188 453.464844 301.304688 C 459.414062 267.3125 496.574219 238.933594 496.980469 238.628906 C 500.996094 235.621094 502.082031 230.058594 499.5 225.753906 L 480.757812 194.515625 C 479.355469 192.175781 477.035156 190.527344 474.355469 189.972656 C 471.683594 189.410156 468.890625 189.996094 466.667969 191.589844 C 420.0625 224.875 412.964844 271.1875 412.683594 273.140625 C 411.925781 278.480469 415.625 283.414062 420.964844 284.199219 C 426.304688 284.980469 431.269531 281.28125 432.074219 275.945312 C 432.132812 275.578125 437.601562 241.542969 469.664062 214.097656 L 478.371094 228.613281 C 463.828125 241.394531 431.558594 274.242188 433.132812 313.042969 C 433.242188 315.871094 434.582031 318.511719 436.785156 320.285156 C 439 322.058594 441.871094 322.785156 444.652344 322.285156 C 456.628906 320.128906 468.628906 319.644531 480.3125 320.828125 C 511.058594 323.949219 537.648438 338.691406 557.207031 363.453125 C 581.386719 394.074219 592.5 437.28125 586.929688 479.046875 C 577.984375 546.105469 536.144531 625.570312 462.835938 651.9375 C 447.289062 657.53125 438.667969 655.53125 424.394531 652.21875 C 421.042969 651.445312 417.578125 650.644531 413.679688 649.851562 C 402.535156 647.585938 392.816406 650.792969 384.238281 653.621094 C 377.351562 655.890625 371.398438 657.855469 365.261719 657.171875 C 332.390625 653.515625 299.519531 628.042969 279.722656 605.429688 C 235.851562 555.3125 204.128906 472.121094 232.160156 399.242188 C 254.113281 342.160156 309.613281 312.121094 376.96875 320.824219 C 382.335938 321.527344 387.25 317.738281 387.945312 312.371094 C 388.632812 307.003906 384.847656 302.089844 379.484375 301.398438 C 343.6875 296.769531 309.640625 302.015625 281.027344 316.5625 C 250.078125 332.296875 226.863281 358.457031 213.878906 392.207031 C 182.914062 472.710938 217.230469 563.785156 264.984375 618.335938 C 293.761719 651.210938 330.441406 673.007812 363.097656 676.640625 C 364.6875 676.820312 366.242188 676.898438 367.765625 676.898438 C 376.203125 676.898438 383.667969 674.4375 390.375 672.222656 C 397.542969 669.859375 403.730469 667.824219 409.78125 669.050781 C 413.414062 669.785156 416.746094 670.558594 419.964844 671.304688 C 435.269531 674.847656 448.488281 677.921875 469.464844 670.371094 C 550.519531 641.222656 596.621094 554.574219 606.347656 481.632812 C 612.605469 434.726562 599.984375 386.007812 572.582031 351.3125 " fill-opacity="1" fill-rule="nonzero"/></g><path fill="#144295" d="M 465.566406 514.503906 L 429.316406 514.503906 C 423.910156 514.503906 419.519531 518.882812 419.519531 524.296875 L 419.519531 560.546875 L 395.773438 560.546875 L 395.773438 524.296875 C 395.773438 518.882812 391.390625 514.503906 385.980469 514.503906 L 349.730469 514.503906 L 349.730469 490.753906 L 385.980469 490.753906 C 391.390625 490.753906 395.773438 486.367188 395.773438 480.960938 L 395.773438 444.710938 L 419.519531 444.710938 L 419.519531 480.960938 C 419.519531 486.367188 423.910156 490.753906 429.316406 490.753906 L 465.566406 490.753906 Z M 439.109375 471.164062 L 439.109375 443.214844 C 439.109375 433.238281 430.992188 425.121094 421.015625 425.121094 L 394.285156 425.121094 C 384.304688 425.121094 376.183594 433.238281 376.183594 443.214844 L 376.183594 471.164062 L 348.238281 471.164062 C 338.261719 471.164062 330.140625 479.28125 330.140625 489.261719 L 330.140625 515.992188 C 330.140625 525.96875 338.261719 534.089844 348.238281 534.089844 L 376.183594 534.089844 L 376.183594 562.035156 C 376.183594 572.015625 384.300781 580.132812 394.285156 580.136719 L 421.015625 580.136719 C 430.992188 580.136719 439.109375 572.015625 439.109375 562.035156 L 439.109375 534.089844 L 467.0625 534.089844 C 471.898438 534.089844 476.4375 532.210938 479.855469 528.792969 C 483.277344 525.375 485.160156 520.828125 485.15625 515.992188 L 485.15625 489.261719 C 485.15625 479.28125 477.039062 471.164062 467.0625 471.164062 L 439.109375 471.164062 " fill-opacity="1" fill-rule="nonzero"/><path fill="#144295" d="M 407.648438 594.042969 C 357.242188 594.042969 316.234375 553.03125 316.234375 502.625 C 316.234375 452.21875 357.242188 411.210938 407.648438 411.210938 C 458.058594 411.210938 499.066406 452.21875 499.066406 502.625 C 499.066406 553.03125 458.058594 594.042969 407.648438 594.042969 Z M 407.648438 391.621094 C 346.4375 391.621094 296.644531 441.417969 296.644531 502.625 C 296.644531 563.835938 346.4375 613.632812 407.648438 613.632812 C 468.855469 613.632812 518.65625 563.835938 518.65625 502.625 C 518.65625 441.417969 468.855469 391.621094 407.648438 391.621094 " fill-opacity="1" fill-rule="nonzero"/></svg>