<svg xmlns="http://www.w3.org/2000/svg" xmlns:xlink="http://www.w3.org/1999/xlink" width="1080" zoomAndPan="magnify" viewBox="0 0 810 817.92" height="1080" preserveAspectRatio="xMidYMid meet" version="1.0"><defs><clipPath id="49804faeb0"><path d="M 112.347656 112.308594 L 697.289062 112.308594 L 697.289062 697.25 L 112.347656 697.25 Z M 112.347656 112.308594 " clip-rule="nonzero"/></clipPath></defs><g clip-path="url(#49804faeb0)"><path fill="#144295" d="M 548.601562 478.933594 C 548.601562 401.152344 485.324219 337.886719 407.558594 337.886719 C 383.40625 337.886719 356.53125 345.941406 331.882812 360.5625 C 307.542969 375.003906 287.425781 394.574219 275.246094 415.679688 C 259.945312 442.171875 258.136719 469.511719 270 493.171875 C 262.074219 505.28125 256.542969 516.808594 252.035156 526.257812 C 249.15625 532.25 246.679688 537.4375 244.636719 540.414062 C 238.863281 548.753906 240.589844 560.183594 248.550781 566.441406 C 254.867188 571.414062 259.542969 575.078125 262.550781 577.445312 C 259.730469 585.109375 258.316406 588.9375 258.316406 588.9375 C 257.578125 590.9375 257.769531 593.148438 258.828125 594.992188 C 260.671875 598.195312 263.015625 601.027344 265.796875 603.441406 C 262.992188 610.875 264.242188 616.441406 264.429688 617.191406 C 264.929688 619.121094 266.203125 620.761719 267.953125 621.703125 L 275.601562 625.828125 C 273.078125 641.269531 274.984375 652.371094 281.371094 659.640625 C 287.058594 666.097656 295.777344 668.894531 307.292969 667.953125 C 307.996094 667.894531 308.6875 667.730469 309.339844 667.480469 C 331.515625 658.675781 345.992188 652.917969 352.796875 650.21875 C 362.492188 661.421875 367.789062 675.542969 367.789062 690.488281 C 367.789062 694.425781 370.988281 697.625 374.925781 697.625 L 410.042969 697.625 C 410.042969 697.625 410.054688 697.625 410.054688 697.625 C 410.054688 697.625 410.066406 697.625 410.066406 697.625 L 512.816406 697.625 C 515.503906 697.625 517.96875 696.113281 519.195312 693.710938 C 520.40625 691.308594 520.167969 688.429688 518.574219 686.261719 C 482.230469 636.929688 500.410156 602.308594 521.453125 562.21875 C 534.800781 536.773438 548.601562 510.480469 548.601562 478.933594 Z M 359.746094 636.714844 C 357.734375 634.703125 354.714844 634.085938 352.070312 635.132812 C 352.070312 635.132812 336.429688 641.332031 305.105469 653.773438 C 298.871094 654.132812 294.492188 652.929688 292.089844 650.195312 C 289.4375 647.171875 287.023438 640.09375 290.554688 623.496094 C 291.222656 620.394531 289.757812 617.226562 286.960938 615.730469 L 279.789062 611.863281 C 300.871094 620.511719 335.441406 619.15625 374.710938 597.910156 C 387.605469 612.578125 394.351562 642.878906 401.5625 683.335938 L 381.730469 683.335938 C 380.113281 665.730469 372.4375 649.382812 359.746094 636.714844 Z M 416.074219 683.335938 C 407.308594 633.765625 399.621094 599.929688 380.550781 583.644531 C 378.257812 581.683594 374.972656 581.382812 372.34375 582.894531 C 342.734375 599.976562 316.109375 604.59375 297.539062 601.953125 C 328.921875 591.019531 355.011719 573.699219 375.328125 550.273438 C 381.910156 546.386719 390.058594 546.695312 398.371094 551.191406 C 419.894531 562.8125 444.910156 604.332031 446.339844 683.335938 Z M 499.421875 683.335938 L 460.617188 683.335938 C 459.984375 646.019531 454.371094 614.039062 443.890625 588.226562 C 434.144531 564.207031 420.75 547.050781 405.140625 538.628906 C 391.855469 531.441406 377.828125 531.527344 366.691406 538.832031 C 366.132812 539.199219 365.621094 539.652344 365.183594 540.164062 C 343.019531 566.050781 313.074219 583.953125 276.171875 593.472656 C 274.972656 592.554688 273.886719 591.554688 272.960938 590.425781 C 273.960938 587.714844 275.554688 583.394531 277.71875 577.480469 C 278.789062 574.578125 277.863281 571.308594 275.410156 569.40625 C 275.410156 569.40625 269.378906 564.679688 257.351562 555.210938 C 255.304688 553.605469 254.867188 550.679688 256.363281 548.515625 C 259.054688 544.613281 261.625 539.234375 264.882812 532.417969 C 269.640625 522.496094 275.554688 510.136719 284.179688 497.632812 C 285.738281 495.359375 285.867188 492.398438 284.488281 490.019531 C 269.738281 464.464844 278.027344 439.375 287.59375 422.828125 C 310.46875 383.214844 363.160156 352.175781 407.535156 352.175781 C 477.4375 352.175781 534.300781 409.039062 534.300781 478.945312 C 534.300781 506.984375 521.335938 531.679688 508.796875 555.582031 C 488.941406 593.410156 468.441406 632.457031 499.421875 683.335938 Z M 548.636719 370.875 C 552.050781 377.015625 558.75 381.296875 566.542969 382.34375 C 571.964844 383.070312 577.460938 382.140625 582.125 379.847656 C 585.71875 383.035156 591.046875 386.078125 600.195312 386.078125 C 609.34375 386.078125 614.664062 383.035156 618.253906 379.847656 C 621.859375 381.617188 625.964844 382.582031 630.152344 382.582031 C 631.378906 382.582031 632.601562 382.5 633.816406 382.332031 C 641.667969 381.285156 648.367188 376.992188 651.742188 370.828125 C 651.792969 370.734375 651.839844 370.648438 651.886719 370.554688 C 656.015625 362.191406 659.5 346.144531 637.800781 330.890625 C 637.0625 328.679688 636.171875 325.65625 635.195312 322.304688 C 628.558594 299.699219 619.457031 268.734375 600.207031 268.734375 C 580.898438 268.734375 571.800781 299.769531 565.160156 322.433594 C 564.199219 325.730469 563.328125 328.703125 562.605469 330.890625 C 540.929688 346.121094 544.378906 362.179688 548.484375 370.53125 C 548.53125 370.664062 548.578125 370.769531 548.636719 370.875 Z M 572.441406 341.480469 C 573.691406 340.660156 574.65625 339.480469 575.191406 338.089844 C 576.25 335.367188 577.402344 331.441406 578.855469 326.46875 C 581.425781 317.6875 584.945312 305.671875 589.347656 296.332031 C 593.960938 286.519531 597.984375 283.03125 600.207031 283.03125 C 602.421875 283.03125 606.417969 286.507812 611.011719 296.273438 C 615.398438 305.589844 618.921875 317.59375 621.503906 326.359375 C 622.976562 331.390625 624.15625 335.378906 625.226562 338.125 C 625.773438 339.503906 626.726562 340.683594 627.960938 341.492188 C 644.617188 352.378906 640.941406 360.503906 639.167969 364.09375 C 638.480469 365.285156 637.277344 366.308594 635.777344 367.046875 C 635.957031 366.414062 636.0625 365.75 636.0625 365.058594 C 636.0625 361.121094 632.863281 357.921875 628.925781 357.921875 C 618.957031 357.921875 614.472656 362.964844 611.199219 366.652344 C 608.332031 369.878906 606.609375 371.816406 600.195312 371.816406 C 593.773438 371.816406 592.035156 369.863281 589.167969 366.640625 C 585.886719 362.964844 581.386719 357.921875 571.429688 357.921875 C 567.492188 357.921875 564.292969 361.121094 564.292969 365.058594 C 564.292969 365.75 564.398438 366.402344 564.578125 367.035156 C 563.089844 366.296875 561.890625 365.273438 561.1875 364.082031 C 559.425781 360.457031 555.835938 352.339844 572.441406 341.480469 Z M 574.976562 421.542969 C 583.375 423.792969 591.882812 424.910156 600.351562 424.910156 C 617.242188 424.910156 633.910156 420.472656 648.925781 411.800781 C 695.453125 384.960938 711.441406 325.253906 684.589844 278.691406 C 671.5625 256.148438 650.554688 240.015625 625.417969 233.28125 C 600.28125 226.546875 574.023438 230.011719 551.480469 243.023438 C 528.9375 256.027344 512.804688 277.035156 506.070312 302.1875 C 499.339844 327.324219 502.800781 353.589844 515.816406 376.132812 C 528.816406 398.679688 549.839844 414.808594 574.976562 421.542969 Z M 519.859375 305.886719 C 525.605469 284.425781 539.371094 266.496094 558.617188 255.398438 C 571.441406 247.996094 585.660156 244.214844 600.078125 244.214844 C 607.296875 244.214844 614.566406 245.167969 621.71875 247.082031 C 643.167969 252.828125 661.105469 266.59375 672.21875 285.839844 C 695.140625 325.574219 681.484375 376.539062 641.785156 399.453125 C 622.550781 410.5625 600.125 413.523438 578.675781 407.765625 C 557.214844 402.019531 539.285156 388.257812 528.1875 369.007812 C 517.0625 349.761719 514.113281 327.347656 519.859375 305.886719 Z M 161.015625 411.5625 C 176.300781 420.390625 193.003906 424.578125 209.503906 424.578125 C 243.171875 424.578125 275.957031 407.125 293.980469 375.933594 C 320.785156 329.476562 304.808594 269.839844 258.351562 243 C 235.84375 230.011719 209.613281 226.558594 184.5 233.292969 C 159.386719 240.027344 138.398438 256.125 125.410156 278.632812 C 112.40625 301.140625 108.945312 327.371094 115.664062 352.484375 C 122.398438 377.585938 138.496094 398.570312 161.015625 411.5625 Z M 137.78125 285.757812 C 148.855469 266.554688 166.773438 252.816406 188.199219 247.070312 C 195.359375 245.15625 202.617188 244.203125 209.835938 244.203125 C 224.222656 244.203125 238.425781 247.972656 251.214844 255.351562 C 290.851562 278.25 304.484375 329.144531 281.621094 368.78125 C 258.707031 408.445312 207.804688 422.078125 168.152344 399.191406 C 148.941406 388.101562 135.210938 370.199219 129.464844 348.773438 C 123.730469 327.359375 126.679688 304.96875 137.78125 285.757812 Z M 365.492188 231.058594 L 380.777344 231.058594 L 380.777344 246.378906 C 380.777344 254.054688 387.035156 260.296875 394.734375 260.296875 L 415.265625 260.296875 C 422.964844 260.296875 429.21875 254.054688 429.21875 246.378906 L 429.21875 231.058594 L 444.507812 231.058594 C 452.203125 231.058594 458.460938 224.8125 458.460938 217.136719 L 458.460938 196.570312 C 458.460938 188.894531 452.203125 182.652344 444.507812 182.652344 L 429.21875 182.652344 L 429.21875 167.339844 C 429.21875 159.667969 422.964844 153.421875 415.265625 153.421875 L 394.734375 153.421875 C 387.035156 153.421875 380.777344 159.667969 380.777344 167.339844 L 380.777344 182.664062 L 365.492188 182.664062 C 357.792969 182.664062 351.535156 188.90625 351.535156 196.582031 L 351.535156 217.148438 C 351.546875 224.8125 357.804688 231.058594 365.492188 231.058594 Z M 365.824219 196.9375 L 387.929688 196.9375 C 391.867188 196.9375 395.066406 193.738281 395.066406 189.800781 L 395.066406 167.695312 L 414.945312 167.695312 L 414.945312 189.800781 C 414.945312 193.738281 418.144531 196.9375 422.082031 196.9375 L 444.1875 196.9375 L 444.1875 216.792969 L 422.082031 216.792969 C 418.144531 216.792969 414.945312 219.992188 414.945312 223.929688 L 414.945312 246.035156 L 395.066406 246.035156 L 395.066406 223.929688 C 395.066406 219.992188 391.867188 216.792969 387.929688 216.792969 L 365.824219 216.792969 Z M 405.023438 301.402344 C 457.152344 301.402344 499.5625 258.988281 499.5625 206.859375 C 499.5625 154.730469 457.152344 112.320312 405.023438 112.320312 C 352.894531 112.320312 310.480469 154.730469 310.480469 206.859375 C 310.46875 258.988281 352.882812 301.402344 405.023438 301.402344 Z M 405.023438 126.582031 C 449.289062 126.582031 485.289062 162.59375 485.289062 206.847656 C 485.289062 251.113281 449.277344 287.113281 405.023438 287.113281 C 360.757812 287.113281 324.757812 251.101562 324.757812 206.847656 C 324.746094 162.59375 360.757812 126.582031 405.023438 126.582031 Z M 198.261719 402.402344 C 214.609375 402.402344 227.707031 393.847656 231.644531 380.609375 C 231.8125 380.035156 231.90625 379.441406 231.929688 378.847656 C 232.644531 360.242188 238.019531 353.601562 245.457031 344.40625 C 249.5 339.410156 254.082031 333.746094 258.410156 325.621094 C 270.59375 302.804688 267.738281 280.164062 250.941406 266.53125 C 236.035156 254.480469 215.40625 249.605469 195.789062 253.480469 C 169.03125 258.703125 167.023438 278.523438 165.070312 297.703125 C 164.929688 299.082031 164.785156 300.484375 164.632812 301.914062 C 164.609375 302.164062 164.59375 302.425781 164.59375 302.675781 L 164.59375 378.585938 C 164.59375 379.273438 164.691406 379.953125 164.894531 380.621094 C 168.820312 393.847656 181.917969 402.402344 198.261719 402.402344 Z M 178.859375 303.042969 C 179.003906 301.722656 179.132812 300.414062 179.265625 299.128906 C 181.273438 279.394531 182.820312 270.542969 198.535156 267.472656 C 214.074219 264.402344 230.3125 268.199219 241.957031 277.609375 C 258.730469 291.21875 249.15625 312.644531 245.824219 318.890625 C 242.125 325.824219 238.1875 330.703125 234.367188 335.414062 C 226.363281 345.3125 218.796875 354.660156 217.726562 377.277344 C 214.859375 385.257812 205.542969 388.113281 198.273438 388.113281 C 191.042969 388.113281 181.796875 385.296875 178.871094 377.40625 L 178.871094 303.042969 Z M 184.6875 309.179688 L 184.890625 307.125 C 185.34375 302.292969 185.890625 296.546875 188.339844 291.644531 C 188.566406 291.085938 188.851562 290.5625 189.199219 290.085938 C 191.683594 286.042969 195.730469 282.746094 202.507812 281.332031 C 215.441406 278.632812 227.835938 282.617188 234.878906 291.753906 C 241.519531 300.378906 242.207031 312.097656 236.699219 323.113281 C 233.929688 328.632812 230.265625 332.09375 227.039062 335.164062 C 222.601562 339.375 219.925781 341.910156 219.675781 348.9375 C 219.652344 349.5 219.570312 350.058594 219.425781 350.59375 C 216.191406 362.226562 207.683594 367.855469 200.25 367.855469 C 199.59375 367.855469 198.964844 367.808594 198.332031 367.722656 C 192.027344 366.867188 184.675781 361.359375 184.675781 348.675781 C 184.675781 344.738281 187.878906 341.539062 191.816406 341.539062 C 195.753906 341.539062 198.953125 344.738281 198.953125 348.675781 C 198.953125 352.222656 199.988281 353.542969 200.261719 353.578125 C 201.226562 353.722656 203.960938 352.117188 205.460938 347.476562 C 206.1875 335.269531 212.289062 329.476562 217.214844 324.800781 C 219.9375 322.21875 222.292969 319.984375 223.933594 316.710938 C 227.015625 310.550781 226.886719 304.78125 223.566406 300.472656 C 221.378906 297.628906 218.011719 295.796875 214.0625 295.097656 C 214.976562 296.117188 215.785156 297.226562 216.476562 298.425781 C 220.09375 304.695312 219.867188 312.332031 215.882812 319.386719 C 214.679688 321.53125 213.289062 323.410156 212.0625 325.074219 C 210.835938 326.753906 209.671875 328.335938 209.027344 329.726562 C 207.828125 332.332031 205.246094 333.867188 202.546875 333.867188 C 201.546875 333.867188 200.523438 333.652344 199.546875 333.199219 C 195.964844 331.546875 194.421875 327.300781 196.074219 323.71875 C 197.324219 321.03125 198.964844 318.792969 200.546875 316.628906 C 201.628906 315.152344 202.652344 313.761719 203.4375 312.359375 C 204.949219 309.691406 205.164062 307.410156 204.09375 305.542969 C 203.269531 304.113281 201.75 302.996094 199.820312 302.292969 C 199.546875 303.910156 199.320312 305.933594 199.082031 308.46875 L 198.882812 310.597656 C 198.488281 314.523438 195.015625 317.390625 191.078125 316.996094 C 187.164062 316.59375 184.296875 313.09375 184.6875 309.179688 Z M 184.6875 309.179688 " fill-opacity="1" fill-rule="nonzero"/></g></svg>