<svg xmlns="http://www.w3.org/2000/svg" xmlns:xlink="http://www.w3.org/1999/xlink" width="1080" zoomAndPan="magnify" viewBox="0 0 810 817.92" height="1080" preserveAspectRatio="xMidYMid meet" version="1.0"><defs><clipPath id="0ea9a23418"><path d="M 81.03125 123.613281 L 674.972656 123.613281 L 674.972656 674 L 81.03125 674 Z M 81.03125 123.613281 " clip-rule="nonzero"/></clipPath></defs><g clip-path="url(#0ea9a23418)"><path fill="#144295" d="M 242.191406 503.0625 C 238.15625 505.886719 232.53125 504.933594 229.671875 500.839844 C 220.390625 487.558594 200.769531 487.621094 191.539062 500.839844 C 188.699219 504.914062 183.105469 505.90625 179.03125 503.0625 C 174.953125 500.222656 173.957031 494.621094 176.796875 490.550781 C 193.191406 467.074219 228.019531 467.074219 244.410156 490.550781 C 247.25 494.621094 246.257812 500.222656 242.191406 503.0625 Z M 372.339844 490.550781 C 376.53125 496.53125 372.171875 504.683594 364.984375 504.683594 C 362.152344 504.683594 359.355469 503.34375 357.617188 500.84375 C 348.402344 487.621094 328.742188 487.5625 319.484375 500.84375 C 316.644531 504.914062 311.035156 505.910156 306.964844 503.0625 C 302.898438 500.222656 301.90625 494.621094 304.742188 490.550781 C 321.121094 467.074219 355.960938 467.074219 372.339844 490.550781 Z M 310.273438 591.292969 C 294.410156 618.6875 254.746094 618.6875 238.890625 591.292969 C 236.40625 587 237.867188 581.507812 242.171875 579.019531 C 246.460938 576.53125 251.957031 578.003906 254.453125 582.296875 C 263.40625 597.753906 285.746094 597.765625 294.703125 582.296875 C 297.199219 578.003906 302.683594 576.53125 306.984375 579.019531 C 311.289062 581.503906 312.75 587 310.273438 591.292969 Z M 656.589844 412.59375 L 656.589844 316.6875 C 656.589844 305.429688 647.4375 296.261719 636.171875 296.261719 L 510.851562 296.261719 C 505.894531 296.261719 501.871094 292.238281 501.871094 287.28125 L 501.871094 161.960938 C 501.871094 150.703125 492.703125 141.535156 481.4375 141.535156 L 385.53125 141.535156 C 374.273438 141.535156 365.105469 150.703125 365.105469 161.960938 L 365.105469 287.28125 C 365.105469 292.238281 361.089844 296.261719 356.117188 296.261719 L 230.796875 296.261719 C 219.546875 296.261719 210.386719 305.429688 210.386719 316.6875 L 210.386719 342.957031 C 230.5 334.277344 252.324219 329.695312 274.582031 329.695312 C 351.65625 329.695312 418.128906 384.121094 433.410156 459.457031 C 452.855469 463.398438 467.636719 482.550781 467.636719 505.503906 C 467.636719 530.417969 450.214844 550.851562 428.328125 552.222656 C 426.195312 564.546875 422.359375 576.476562 416.96875 587.746094 L 481.4375 587.746094 C 492.703125 587.746094 501.871094 578.585938 501.871094 567.328125 L 501.871094 442.007812 C 501.871094 437.042969 505.894531 433.019531 510.851562 433.019531 L 636.171875 433.019531 C 647.4375 433.019531 656.589844 423.859375 656.589844 412.59375 Z M 274.582031 655.800781 C 345.675781 655.800781 404.59375 606.804688 411.648438 541.828125 C 412.21875 536.617188 417.140625 532.988281 422.28125 533.972656 C 436.914062 536.773438 449.667969 522.851562 449.667969 505.503906 C 449.667969 489.632812 439.074219 476.71875 426.027344 476.683594 C 421.324219 476.675781 417.597656 473.574219 416.882812 469.101562 C 405.574219 398.355469 345.96875 347.671875 274.011719 347.671875 C 255.992188 374.605469 245.878906 411.519531 260.382812 427.449219 C 268.117188 435.957031 284.996094 439.136719 293.347656 431.089844 C 300.675781 424.027344 299.355469 408.097656 285.722656 407.101562 C 280.769531 406.742188 277.042969 402.433594 277.40625 397.488281 C 277.773438 392.535156 282.074219 388.808594 287.027344 389.179688 C 316.265625 391.332031 324.308594 426.1875 305.808594 444.023438 C 289.761719 459.5 261.351562 455.238281 247.074219 439.542969 C 228.136719 418.71875 234.894531 380.671875 251.96875 349.40625 C 190.902344 358.898438 142.175781 406.316406 132.253906 469.097656 C 131.554688 473.515625 127.773438 476.761719 123.253906 476.679688 C 110.234375 476.566406 99.476562 489.546875 99.476562 505.503906 C 99.476562 522.847656 112.21875 536.769531 126.871094 533.972656 C 132.039062 532.984375 136.933594 536.621094 137.503906 541.828125 C 144.5625 606.800781 203.480469 655.800781 274.582031 655.800781 Z M 636.171875 278.292969 L 519.839844 278.292969 L 519.839844 161.960938 C 519.839844 140.792969 502.613281 123.566406 481.4375 123.566406 L 385.53125 123.566406 C 364.363281 123.566406 347.128906 140.792969 347.128906 161.960938 L 347.128906 278.292969 L 230.796875 278.292969 C 209.628906 278.292969 192.410156 295.515625 192.410156 316.683594 L 192.410156 352.066406 C 152.839844 375.335938 124.839844 414.527344 115.746094 459.457031 C 96.300781 463.398438 81.503906 482.546875 81.503906 505.503906 C 81.503906 530.417969 98.9375 550.851562 120.824219 552.222656 C 126.417969 584.554688 143.695312 614.167969 170.066406 636.359375 C 229.347656 686.242188 319.800781 686.234375 379.085938 636.359375 C 389.882812 627.277344 399.144531 616.957031 406.707031 605.714844 L 481.4375 605.714844 C 502.613281 605.714844 519.839844 588.496094 519.839844 567.328125 L 519.839844 450.988281 L 636.171875 450.988281 C 657.339844 450.988281 674.558594 433.769531 674.558594 412.59375 L 674.558594 316.683594 C 674.558594 295.519531 657.339844 278.292969 636.171875 278.292969 Z M 636.171875 278.292969 " fill-opacity="1" fill-rule="evenodd"/></g></svg>