<svg xmlns="http://www.w3.org/2000/svg" xmlns:xlink="http://www.w3.org/1999/xlink" width="1080" zoomAndPan="magnify" viewBox="0 0 810 817.92" height="1080" preserveAspectRatio="xMidYMid meet" version="1.0"><defs><clipPath id="6a77660e17"><path d="M 129 128.175781 L 682 128.175781 L 682 681.621094 L 129 681.621094 Z M 129 128.175781 " clip-rule="nonzero"/></clipPath></defs><g clip-path="url(#6a77660e17)"><path fill="#144295" d="M 336.640625 305.910156 C 336.640625 301.753906 340.011719 298.382812 344.167969 298.382812 L 509.796875 298.382812 C 513.953125 298.382812 517.324219 301.75 517.324219 305.910156 C 517.324219 310.070312 513.953125 313.4375 509.796875 313.4375 L 344.167969 313.4375 C 340.011719 313.4375 336.640625 310.066406 336.640625 305.910156 Z M 344.167969 338.449219 L 439.671875 338.449219 C 443.828125 338.449219 447.199219 335.082031 447.199219 330.921875 C 447.199219 326.765625 443.828125 323.394531 439.671875 323.394531 L 344.167969 323.394531 C 340.011719 323.394531 336.640625 326.765625 336.640625 330.921875 C 336.640625 335.082031 340.011719 338.449219 344.167969 338.449219 Z M 311.835938 288.894531 C 319.722656 298.253906 323.496094 310.105469 322.460938 322.28125 C 321.425781 334.453125 315.703125 345.5 306.355469 353.386719 C 297.785156 360.621094 287.308594 364.15625 276.882812 364.15625 C 263.859375 364.15625 250.917969 358.640625 241.875 347.9375 C 233.976562 338.570312 230.207031 326.699219 231.25 314.507812 C 232.292969 302.339844 238.011719 291.3125 247.347656 283.449219 C 266.621094 267.171875 295.546875 269.613281 311.835938 288.894531 Z M 300.328125 298.605469 C 294.261719 291.425781 285.578125 287.726562 276.84375 287.726562 C 269.847656 287.726562 262.816406 290.097656 257.066406 294.953125 C 257.0625 294.957031 257.058594 294.960938 257.054688 294.964844 C 250.789062 300.234375 246.953125 307.632812 246.253906 315.792969 C 245.554688 323.976562 248.085938 331.941406 253.382812 338.226562 C 264.304688 351.15625 283.714844 352.796875 296.644531 341.878906 C 302.925781 336.582031 306.765625 329.171875 307.457031 321.003906 C 308.152344 312.839844 305.621094 304.882812 300.328125 298.605469 Z M 294.714844 302.6875 C 291.519531 300.03125 286.769531 300.464844 284.109375 303.660156 L 273.351562 316.582031 L 270.492188 313.136719 C 267.839844 309.9375 263.09375 309.496094 259.890625 312.148438 C 256.691406 314.804688 256.25 319.550781 258.90625 322.75 L 267.550781 333.164062 C 268.980469 334.886719 271.101562 335.882812 273.339844 335.886719 C 273.339844 335.886719 273.339844 335.886719 273.34375 335.886719 C 275.578125 335.886719 277.699219 334.890625 279.128906 333.175781 L 295.683594 313.292969 C 298.34375 310.097656 297.910156 305.351562 294.714844 302.6875 Z M 279.132812 444.464844 L 295.6875 424.550781 C 298.34375 421.351562 297.90625 416.605469 294.710938 413.949219 C 291.515625 411.289062 286.765625 411.730469 284.109375 414.925781 L 273.355469 427.855469 L 270.5 424.40625 C 267.847656 421.203125 263.101562 420.753906 259.898438 423.40625 C 256.695312 426.054688 256.25 430.800781 258.898438 434.003906 L 267.542969 444.449219 C 268.972656 446.175781 271.09375 447.175781 273.332031 447.179688 C 273.335938 447.179688 273.339844 447.179688 273.34375 447.179688 C 275.582031 447.179688 277.703125 446.183594 279.132812 444.464844 Z M 680.835938 538.21875 C 679.453125 542.804688 676.488281 546.335938 672.25 548.453125 L 663.214844 553.0625 L 664.855469 568.148438 C 665.195312 571.261719 663.570312 574.257812 660.78125 575.675781 L 655.90625 578.152344 L 659.617188 581.304688 C 661.34375 582.769531 662.316406 584.933594 662.273438 587.195312 L 661.9375 603.871094 C 661.65625 619.441406 649.75 632.460938 634.238281 634.140625 L 599.484375 637.851562 L 597.980469 674.519531 C 597.8125 678.554688 594.496094 681.738281 590.457031 681.738281 L 440.742188 681.738281 C 437.988281 681.738281 435.457031 680.238281 434.136719 677.824219 C 432.816406 675.414062 432.914062 672.472656 434.398438 670.152344 C 439.332031 662.4375 443.34375 654.597656 446.457031 646.613281 L 200.929688 646.613281 C 196.773438 646.613281 193.402344 643.246094 193.402344 639.085938 L 193.402344 477.535156 L 131.773438 384.71875 C 131.765625 384.707031 131.761719 384.699219 131.757812 384.691406 C 127.773438 378.640625 130.519531 370.242188 138.144531 365.15625 L 169.886719 344.074219 C 177.40625 339.066406 186.417969 339.808594 190.394531 345.773438 L 193.402344 350.300781 L 193.402344 200.359375 C 193.402344 196.199219 196.769531 192.828125 200.929688 192.828125 L 268.6875 192.828125 L 268.6875 168.410156 C 268.6875 164.253906 272.054688 160.882812 276.214844 160.882812 L 332.300781 160.882812 C 336.265625 142.050781 352.835938 128.175781 372.785156 128.175781 C 392.71875 128.175781 409.277344 142.050781 413.242188 160.882812 L 469.359375 160.882812 C 473.515625 160.882812 476.886719 164.253906 476.886719 168.414062 L 476.886719 192.832031 L 546.136719 192.832031 C 550.296875 192.832031 553.667969 196.199219 553.667969 200.359375 L 553.667969 353.65625 C 614.566406 360.8125 661.8125 409.222656 661.8125 467.6875 C 661.8125 475.132812 661.042969 482.558594 659.515625 489.816406 L 679.382812 525.039062 C 681.683594 529.109375 682.1875 533.667969 680.835938 538.21875 Z M 283.742188 232.351562 L 461.828125 232.351562 L 461.828125 175.941406 L 406.59375 175.941406 C 402.535156 175.941406 399.207031 172.722656 399.070312 168.664062 C 398.589844 154.402344 387.046875 143.230469 372.785156 143.230469 C 358.507812 143.230469 346.949219 154.402344 346.46875 168.664062 C 346.332031 172.722656 343.003906 175.941406 338.945312 175.941406 L 283.742188 175.941406 Z M 265.183594 458.117188 C 275.847656 462.457031 287.902344 460.558594 296.640625 453.171875 C 302.925781 447.875 306.761719 440.460938 307.457031 432.285156 C 308.152344 424.117188 305.621094 416.167969 300.332031 409.90625 C 295.035156 403.625 287.621094 399.785156 279.445312 399.089844 C 271.28125 398.398438 263.328125 400.925781 257.066406 406.21875 C 250.398438 411.851562 246.425781 420.0625 246.171875 428.753906 C 246.164062 429.058594 246.132812 429.359375 246.085938 429.652344 L 264.929688 458.03125 C 265.015625 458.058594 265.101562 458.082031 265.183594 458.117188 Z M 194.808594 379.640625 C 194.714844 379.507812 194.625 379.371094 194.539062 379.234375 L 193.660156 377.910156 L 160.105469 400.171875 L 206.980469 470.765625 C 207.132812 470.96875 207.269531 471.179688 207.402344 471.398438 L 245.542969 528.84375 C 245.636719 528.976562 245.730469 529.113281 245.816406 529.253906 L 245.859375 529.320312 L 278.003906 541.324219 L 279.402344 507.046875 Z M 294.125 515.589844 L 292.625 552.320312 C 292.527344 554.730469 291.277344 556.949219 289.265625 558.285156 C 288.015625 559.113281 286.5625 559.542969 285.101562 559.542969 C 284.214844 559.542969 283.320312 559.382812 282.46875 559.066406 L 246.496094 545.628906 C 247.335938 551.144531 249.671875 556.378906 253.382812 560.78125 C 264.308594 573.714844 283.714844 575.355469 296.644531 564.433594 C 302.925781 559.136719 306.765625 551.722656 307.457031 543.546875 C 308.152344 535.378906 305.621094 527.429688 300.332031 521.167969 C 298.507812 519.007812 296.414062 517.152344 294.125 515.589844 Z M 145.632812 378.371094 L 151.777344 387.628906 L 185.332031 365.367188 L 179.175781 356.09375 C 178.890625 356.214844 178.570312 356.382812 178.226562 356.609375 L 146.484375 377.691406 C 146.140625 377.921875 145.855469 378.15625 145.632812 378.371094 Z M 451.199219 631.558594 C 456.855469 608.265625 455.121094 583.746094 445.953125 557.621094 C 444.605469 559.660156 442.296875 561.007812 439.671875 561.007812 L 344.167969 561.007812 C 340.011719 561.007812 336.640625 557.636719 336.640625 553.476562 C 336.640625 549.320312 340.011719 545.949219 344.167969 545.949219 L 439.671875 545.949219 C 440.300781 545.949219 440.910156 546.035156 441.496094 546.183594 C 440.0625 542.8125 438.507812 539.417969 436.839844 535.992188 L 344.167969 535.992188 C 340.011719 535.992188 336.640625 532.625 336.640625 528.464844 C 336.640625 524.304688 340.007812 520.9375 344.167969 520.9375 L 428.332031 520.9375 C 419.121094 504.585938 414.277344 486.363281 414.277344 467.6875 C 414.277344 461.574219 414.800781 455.570312 415.792969 449.714844 L 344.167969 449.714844 C 340.011719 449.714844 336.640625 446.34375 336.640625 442.1875 C 336.640625 438.027344 340.011719 434.65625 344.167969 434.65625 L 419.492188 434.65625 C 420.589844 431.269531 421.847656 427.949219 423.265625 424.703125 L 344.167969 424.703125 C 340.011719 424.703125 336.640625 421.332031 336.640625 417.171875 C 336.640625 413.015625 340.011719 409.644531 344.167969 409.644531 L 431.257812 409.644531 C 452.773438 375.632812 492.582031 352.746094 538.046875 352.746094 C 538.234375 352.746094 538.421875 352.75 538.613281 352.753906 L 538.613281 207.886719 L 476.886719 207.886719 L 476.886719 239.878906 C 476.886719 244.039062 473.519531 247.410156 469.359375 247.410156 L 276.214844 247.410156 C 272.058594 247.410156 268.683594 244.039062 268.683594 239.878906 L 268.683594 207.886719 L 208.457031 207.886719 L 208.457031 372.976562 L 234.554688 412.277344 C 237.320312 405.554688 241.679688 399.503906 247.351562 394.714844 C 256.6875 386.828125 268.542969 383.054688 280.722656 384.085938 C 292.90625 385.125 303.957031 390.84375 311.839844 400.195312 C 319.722656 409.527344 323.496094 421.378906 322.460938 433.5625 C 321.425781 445.742188 315.707031 456.792969 306.355469 464.675781 C 297.953125 471.777344 287.503906 475.476562 276.886719 475.476562 C 276.757812 475.476562 276.632812 475.46875 276.507812 475.46875 L 291.121094 497.472656 C 299.1875 500.121094 306.304688 504.90625 311.832031 511.449219 C 319.722656 520.789062 323.496094 532.640625 322.460938 544.824219 C 321.425781 557.003906 315.707031 568.054688 306.355469 575.941406 C 298.035156 582.96875 287.707031 586.730469 276.925781 586.730469 C 275.621094 586.730469 274.308594 586.675781 272.992188 586.566406 C 260.8125 585.535156 249.761719 579.828125 241.875 570.492188 C 233.46875 560.523438 229.78125 547.714844 231.5 534.914062 L 208.457031 500.210938 L 208.457031 631.558594 Z M 666.273438 532.445312 L 644.980469 494.6875 C 644.046875 493.03125 643.773438 491.082031 644.214844 489.234375 C 645.902344 482.203125 646.757812 474.957031 646.757812 467.6875 C 646.757812 412.609375 597.988281 367.800781 538.042969 367.800781 C 478.097656 367.800781 429.332031 412.609375 429.332031 467.6875 C 429.332031 486.527344 435.054688 504.859375 445.886719 520.703125 C 446.042969 520.933594 446.183594 521.171875 446.316406 521.414062 C 446.90625 522.527344 447.472656 523.632812 448.039062 524.742188 C 448.125 524.890625 448.207031 525.046875 448.28125 525.207031 C 469.191406 566.140625 474.535156 604.761719 464.3125 640.535156 C 464.238281 640.914062 464.132812 641.277344 464.003906 641.632812 C 461.488281 650.148438 458.09375 658.5 453.8125 666.683594 L 583.226562 666.683594 L 584.703125 630.746094 C 584.855469 627.019531 587.714844 623.964844 591.425781 623.570312 L 632.625 619.171875 C 640.734375 618.292969 646.734375 611.738281 646.878906 603.585938 L 647.144531 590.46875 L 637.53125 582.308594 C 635.609375 580.675781 634.632812 578.195312 634.925781 575.691406 C 635.21875 573.1875 636.746094 571 638.992188 569.859375 L 649.324219 564.609375 L 647.683594 549.527344 C 647.347656 546.421875 648.964844 543.429688 651.75 542.007812 L 665.460938 535.015625 C 665.957031 534.769531 666.214844 534.539062 666.410156 533.898438 C 666.609375 533.226562 666.53125 532.902344 666.273438 532.445312 Z M 636.222656 456.234375 C 636.222656 477.460938 618.964844 494.730469 597.753906 494.730469 C 597.03125 494.730469 596.308594 494.710938 595.585938 494.671875 C 593.765625 511.324219 579.625 524.328125 562.507812 524.328125 L 553.289062 524.328125 C 536.152344 524.625 536.023438 525.628906 535.832031 532.089844 L 535.832031 560.015625 C 535.832031 564.171875 532.460938 567.542969 528.300781 567.542969 C 524.144531 567.542969 520.773438 564.171875 520.773438 560.015625 L 520.773438 536.203125 C 508.339844 532.046875 498.613281 525.394531 491.757812 516.351562 C 489.199219 516.839844 486.695312 517.089844 484.351562 517.089844 C 470.902344 517.089844 450.160156 502.40625 450.160156 482.894531 C 450.160156 472.214844 455.234375 462.199219 463.507812 455.800781 C 462.300781 452.015625 461.675781 448.042969 461.675781 444.046875 C 461.675781 422.820312 478.933594 405.550781 500.144531 405.550781 C 502.648438 405.550781 505.125 405.792969 507.5625 406.273438 C 515.308594 391.820312 530.941406 382.523438 548.488281 382.523438 C 570.535156 382.523438 589.589844 397.632812 593.648438 417.984375 C 595.007812 417.839844 596.378906 417.769531 597.753906 417.769531 C 618.964844 417.765625 636.222656 435.023438 636.222656 456.234375 Z M 621.164062 456.234375 C 621.164062 443.324219 610.664062 432.824219 597.753906 432.824219 C 594.941406 432.824219 592.164062 433.324219 589.488281 434.3125 C 587.082031 435.199219 584.390625 434.800781 582.34375 433.257812 C 580.296875 431.710938 579.179688 429.230469 579.375 426.671875 C 579.390625 426.472656 579.386719 426.289062 579.386719 426.089844 C 579.386719 424.753906 579.289062 423.429688 579.101562 422.15625 C 577 408.148438 563.839844 397.578125 548.492188 397.578125 C 534.84375 397.578125 522.976562 405.683594 518.953125 417.75 C 518.292969 419.722656 516.847656 421.339844 514.960938 422.207031 C 513.070312 423.078125 510.902344 423.125 508.976562 422.34375 C 506.144531 421.191406 503.171875 420.605469 500.144531 420.605469 C 487.238281 420.605469 476.734375 431.121094 476.734375 444.046875 C 476.734375 448.003906 477.683594 451.761719 479.554688 455.210938 C 480.539062 457.027344 480.730469 459.171875 480.089844 461.136719 C 479.449219 463.097656 478.027344 464.714844 476.160156 465.597656 C 469.515625 468.753906 465.222656 475.542969 465.222656 482.894531 C 465.222656 493.171875 478.054688 502.03125 484.355469 502.03125 C 493.289062 502.03125 507.0625 495.558594 507.0625 486.957031 C 507.0625 486.0625 506.949219 485.183594 506.734375 484.332031 C 498.570312 480.050781 492.984375 471.488281 492.984375 461.640625 C 492.984375 457.480469 496.355469 454.109375 500.511719 454.109375 C 504.671875 454.109375 508.039062 457.480469 508.039062 461.640625 C 508.039062 465.96875 510.660156 469.699219 514.390625 471.320312 C 514.851562 471.433594 515.296875 471.589844 515.726562 471.789062 C 516.632812 472.042969 517.578125 472.191406 518.5625 472.191406 C 522.433594 472.191406 525.984375 470.082031 527.828125 466.6875 C 529.816406 463.035156 534.386719 461.683594 538.039062 463.664062 C 541.691406 465.652344 543.042969 470.222656 541.058594 473.875 C 537.148438 481.070312 530.089844 485.882812 522.121094 486.996094 C 522.101562 497.640625 515.359375 505.660156 506.734375 510.738281 C 510.960938 515.085938 516.34375 518.492188 522.980469 521.019531 C 528.097656 509.710938 541.226562 509.472656 553.097656 509.269531 C 553.140625 509.265625 553.183594 509.265625 553.226562 509.265625 L 562.511719 509.265625 C 572.558594 509.265625 580.730469 501.078125 580.730469 491.019531 C 580.730469 489.789062 580.605469 488.554688 580.347656 487.253906 C 579.246094 483.257812 576.273438 476.59375 568.574219 475.179688 C 564.484375 474.429688 561.777344 470.507812 562.527344 466.417969 C 563.277344 462.328125 567.195312 459.613281 571.292969 460.371094 C 581.421875 462.230469 589.488281 469.175781 593.53125 479.289062 C 594.929688 479.542969 596.339844 479.671875 597.753906 479.671875 C 610.664062 479.675781 621.164062 469.160156 621.164062 456.234375 Z M 621.164062 456.234375 " fill-opacity="1" fill-rule="nonzero"/></g></svg>