<svg xmlns="http://www.w3.org/2000/svg" xmlns:xlink="http://www.w3.org/1999/xlink" width="1080" zoomAndPan="magnify" viewBox="0 0 810 817.92" height="1080" preserveAspectRatio="xMidYMid meet" version="1.0"><defs><clipPath id="74ee88a408"><path d="M 503 144.972656 L 639 144.972656 L 639 281 L 503 281 Z M 503 144.972656 " clip-rule="nonzero"/></clipPath><clipPath id="855678cceb"><path d="M 72.21875 290 L 738 290 L 738 664.671875 L 72.21875 664.671875 Z M 72.21875 290 " clip-rule="nonzero"/></clipPath></defs><g clip-path="url(#74ee88a408)"><path fill="#144295" d="M 503.792969 212.570312 C 503.792969 250.007812 533.949219 280.167969 571.386719 280.167969 C 608.824219 280.167969 638.984375 250.007812 638.984375 212.570312 C 638.984375 175.132812 608.824219 144.972656 571.386719 144.972656 C 533.949219 144.972656 503.792969 175.132812 503.792969 212.570312 Z M 571.386719 165.773438 C 597.386719 165.773438 618.183594 186.570312 618.183594 212.570312 C 618.183594 238.570312 597.386719 259.367188 571.386719 259.367188 C 545.390625 259.367188 524.589844 238.570312 524.589844 212.570312 C 524.589844 186.570312 545.390625 165.773438 571.386719 165.773438 Z M 571.386719 165.773438 " fill-opacity="1" fill-rule="nonzero"/></g><g clip-path="url(#855678cceb)"><path fill="#144295" d="M 727.378906 571.347656 L 675.382812 571.347656 L 675.382812 545.351562 C 675.382812 534.429688 667.0625 525.589844 656.144531 524.550781 L 656.144531 480.875 C 652.503906 481.914062 648.34375 482.433594 644.183594 482.433594 L 635.34375 482.433594 L 635.34375 524.03125 L 597.386719 524.03125 L 597.386719 498.03125 C 597.386719 492.3125 592.707031 487.632812 586.988281 487.632812 C 581.265625 487.632812 576.585938 492.3125 576.585938 498.03125 L 576.585938 523.511719 L 531.871094 507.914062 L 558.910156 461.636719 L 644.183594 461.636719 C 655.621094 461.636719 664.980469 452.277344 664.980469 440.835938 L 664.980469 409.636719 C 664.980469 398.199219 655.621094 388.839844 644.183594 388.839844 L 535.511719 388.839844 C 527.191406 388.839844 518.871094 392.480469 513.152344 398.199219 L 508.472656 403.398438 L 498.59375 389.878906 L 517.3125 369.082031 C 520.949219 364.921875 520.949219 358.160156 516.792969 354.523438 C 512.632812 350.882812 505.871094 350.882812 502.230469 355.042969 L 482.472656 376.359375 C 482.472656 376.359375 481.953125 376.878906 481.953125 377.402344 C 476.234375 384.679688 476.234375 394.558594 481.953125 402.359375 L 511.589844 442.394531 L 494.953125 454.875 L 448.675781 393 C 446.074219 389.359375 446.074219 383.640625 449.195312 380 L 499.632812 318.644531 C 503.792969 313.964844 509.511719 310.84375 515.75 310.84375 L 529.789062 310.84375 L 557.867188 357.640625 C 558.386719 358.160156 558.910156 358.679688 559.429688 359.203125 C 559.429688 359.203125 559.429688 359.203125 559.949219 359.722656 C 560.46875 360.242188 560.988281 360.761719 561.507812 361.28125 C 562.027344 361.800781 562.546875 361.800781 563.066406 361.800781 C 563.589844 361.800781 563.589844 361.800781 564.109375 362.320312 C 564.628906 362.320312 565.667969 362.839844 566.1875 362.839844 C 566.1875 362.839844 566.1875 362.839844 566.707031 362.839844 C 566.707031 362.839844 566.707031 362.839844 567.226562 362.839844 C 567.746094 362.839844 568.789062 362.839844 569.308594 362.320312 C 569.828125 362.320312 569.828125 362.320312 570.347656 361.800781 C 570.867188 361.800781 571.386719 361.28125 571.90625 361.28125 C 572.425781 360.761719 572.949219 360.242188 573.46875 359.722656 C 573.46875 359.722656 573.46875 359.722656 573.988281 359.203125 C 574.507812 358.679688 575.027344 358.160156 575.546875 357.640625 L 603.625 310.84375 L 615.066406 310.84375 C 626.503906 310.84375 635.863281 320.203125 635.863281 331.644531 L 635.863281 368.039062 L 644.703125 368.039062 C 648.863281 368.039062 653.023438 368.5625 656.664062 369.601562 L 656.664062 332.164062 C 656.664062 309.285156 637.945312 290.566406 615.066406 290.566406 L 515.230469 290.566406 C 502.75 290.566406 491.3125 296.285156 482.992188 305.644531 L 432.554688 367 C 423.195312 377.921875 423.195312 394.039062 431.515625 405.480469 L 435.15625 410.160156 L 464.273438 449.675781 L 446.59375 467.355469 L 306.203125 467.355469 C 283.324219 467.355469 264.605469 486.074219 264.605469 508.953125 L 264.605469 550.550781 C 264.605469 558.347656 266.6875 565.109375 270.324219 571.347656 L 238.089844 571.347656 C 247.96875 560.429688 254.207031 545.871094 254.207031 529.75 C 254.207031 495.433594 226.128906 467.355469 191.8125 467.355469 C 157.492188 467.355469 129.414062 495.433594 129.414062 529.75 C 129.414062 545.871094 135.652344 560.429688 145.535156 571.347656 L 82.617188 571.347656 C 76.898438 571.347656 72.21875 576.027344 72.21875 581.75 L 72.21875 654.542969 C 72.21875 660.261719 76.898438 664.941406 82.617188 664.941406 L 727.378906 664.941406 C 733.097656 664.941406 737.777344 660.261719 737.777344 654.542969 L 737.777344 581.75 C 737.777344 576.027344 733.097656 571.347656 727.378906 571.347656 Z M 579.1875 311.363281 L 566.1875 332.683594 L 553.1875 311.363281 Z M 285.40625 508.953125 C 285.40625 497.511719 294.765625 488.152344 306.203125 488.152344 L 450.753906 488.152344 C 453.355469 488.152344 456.476562 487.113281 458.035156 485.035156 L 476.234375 466.316406 L 477.273438 467.355469 L 483.511719 475.675781 C 485.074219 477.753906 487.671875 479.3125 490.273438 479.835938 C 492.871094 480.355469 495.992188 479.3125 498.074219 477.753906 L 504.3125 473.074219 L 504.3125 472.554688 C 504.832031 472.035156 505.351562 472.035156 506.390625 471.515625 L 523.03125 459.035156 C 531.351562 452.796875 533.949219 440.835938 528.75 431.996094 L 520.429688 420.558594 L 527.710938 413.277344 C 529.789062 411.199219 532.390625 410.160156 534.988281 410.160156 L 644.183594 410.160156 L 644.183594 441.355469 L 553.1875 441.355469 C 549.550781 441.355469 545.910156 443.4375 544.347656 446.554688 L 500.152344 521.953125 C 497.03125 527.152344 499.113281 533.390625 503.792969 535.992188 C 508.992188 539.109375 515.230469 537.03125 517.832031 532.351562 L 521.472656 526.632812 L 573.46875 544.832031 C 573.988281 544.832031 573.988281 544.832031 574.507812 544.832031 C 574.507812 544.832031 575.027344 544.832031 575.027344 544.832031 C 575.546875 544.832031 576.066406 544.832031 577.109375 544.832031 L 655.101562 544.832031 L 655.101562 570.828125 L 441.914062 570.828125 C 440.875 570.308594 440.355469 570.308594 439.316406 569.789062 L 325.960938 529.75 C 320.761719 527.671875 314.523438 530.792969 312.445312 535.992188 C 310.363281 541.191406 313.484375 547.429688 318.683594 549.511719 L 432.554688 589.546875 L 429.957031 600.46875 L 320.242188 571.347656 C 319.722656 571.347656 319.203125 571.347656 318.683594 571.347656 L 306.203125 571.347656 C 294.765625 571.347656 285.40625 561.988281 285.40625 550.550781 Z M 191.8125 488.152344 C 214.6875 488.152344 233.410156 506.871094 233.410156 529.75 C 233.410156 552.628906 214.6875 571.347656 191.8125 571.347656 C 168.933594 571.347656 150.214844 552.628906 150.214844 529.75 C 150.214844 506.871094 168.933594 488.152344 191.8125 488.152344 Z M 716.980469 644.144531 L 93.015625 644.144531 L 93.015625 592.148438 L 316.601562 592.148438 L 425.796875 621.265625 C 427.355469 621.785156 428.917969 621.785156 430.476562 621.785156 C 439.835938 621.785156 448.15625 615.546875 450.234375 606.707031 L 453.355469 595.789062 C 453.875 594.746094 453.875 593.1875 453.875 592.148438 L 716.980469 592.148438 Z M 716.980469 644.144531 " fill-opacity="1" fill-rule="nonzero"/></g></svg>