<svg xmlns="http://www.w3.org/2000/svg" xmlns:xlink="http://www.w3.org/1999/xlink" width="1080" zoomAndPan="magnify" viewBox="0 0 810 817.92" height="1080" preserveAspectRatio="xMidYMid meet" version="1.0"><defs><clipPath id="4744314dec"><path d="M 113.761719 113.722656 L 696.453125 113.722656 L 696.453125 696.414062 L 113.761719 696.414062 Z M 113.761719 113.722656 " clip-rule="nonzero"/></clipPath></defs><g clip-path="url(#4744314dec)"><path fill="#144295" d="M 352.769531 432.273438 C 356.445312 439.957031 353.574219 447.941406 349.230469 460.03125 C 348.273438 462.695312 347.1875 465.710938 346.082031 468.980469 C 318.472656 550.476562 321.402344 597.445312 326.261719 675.261719 C 326.535156 679.679688 326.816406 684.191406 327.097656 688.804688 C 327.332031 692.644531 324.414062 695.941406 320.574219 696.175781 C 320.429688 696.1875 320.285156 696.191406 320.144531 696.191406 C 316.492188 696.191406 313.425781 693.347656 313.199219 689.652344 C 312.917969 685.042969 312.636719 680.539062 312.363281 676.128906 C 307.570312 599.335938 304.40625 548.605469 332.894531 464.511719 C 334.042969 461.125 335.148438 458.039062 336.128906 455.320312 C 339.058594 447.164062 341.375 440.71875 340.207031 438.277344 C 338.515625 434.738281 326.824219 430.683594 322.984375 429.351562 C 247.746094 403.257812 182.492188 369.511719 117.628906 323.164062 C 114.5 320.925781 113.777344 316.578125 116.011719 313.453125 C 118.246094 310.320312 122.597656 309.601562 125.722656 311.832031 C 189.46875 357.386719 253.601562 390.550781 327.546875 416.195312 C 340.859375 420.8125 349.253906 424.921875 352.769531 432.273438 Z M 516.847656 296.347656 L 259.695312 114.992188 C 256.550781 112.777344 252.207031 113.527344 249.992188 116.671875 C 247.777344 119.8125 248.527344 124.15625 251.667969 126.371094 L 508.820312 307.726562 C 536.695312 327.382812 549.546875 359.128906 543.199219 392.644531 L 487.246094 687.933594 C 486.53125 691.710938 489.015625 695.355469 492.792969 696.070312 C 493.230469 696.152344 493.664062 696.191406 494.097656 696.191406 C 497.375 696.191406 500.296875 693.863281 500.929688 690.523438 L 556.878906 395.234375 C 564.273438 356.207031 549.308594 319.238281 516.847656 296.347656 Z M 174.75 240.167969 L 311.050781 323.269531 C 338.09375 342.753906 338.078125 357.164062 338.0625 369.878906 C 338.042969 387.597656 345.265625 397.386719 351.324219 402.476562 C 357.742188 407.863281 366.09375 410.730469 374.972656 410.730469 C 377.414062 410.730469 379.894531 410.511719 382.390625 410.074219 C 403.949219 406.261719 414.285156 392.300781 413.988281 367.386719 C 413.890625 358.878906 413.828125 353.746094 433.65625 343.824219 C 451.789062 334.753906 460.769531 313.132812 453.671875 295.632812 C 447.824219 281.210938 430.304688 269.367188 398.675781 279.378906 C 388.195312 282.695312 375.214844 284.945312 353.722656 269.515625 L 219.941406 173.480469 C 216.816406 171.238281 212.46875 171.953125 210.226562 175.078125 C 207.984375 178.199219 208.699219 182.550781 211.820312 184.792969 L 345.601562 280.828125 C 371.125 299.148438 388.878906 297.085938 402.878906 292.652344 C 422.054688 286.582031 436.222656 289.652344 440.765625 300.863281 C 444.632812 310.394531 440.628906 324.765625 427.425781 331.375 C 401.78125 344.203125 399.910156 354.460938 400.066406 367.550781 C 400.277344 385.453125 394.457031 393.800781 379.964844 396.359375 C 372.476562 397.683594 365.296875 396.027344 360.277344 391.8125 C 354.84375 387.246094 351.976562 379.667969 351.984375 369.894531 C 352.003906 355.394531 352.023438 335.542969 318.960938 311.808594 C 318.820312 311.703125 318.675781 311.609375 318.527344 311.519531 L 182 228.28125 C 178.714844 226.277344 174.429688 227.320312 172.429688 230.601562 C 170.429688 233.886719 171.464844 238.167969 174.75 240.171875 Z M 499.210938 434.292969 C 488.859375 421.3125 467.859375 415.703125 444.277344 432.4375 C 438.59375 436.472656 430.914062 435.800781 426.015625 430.839844 C 412.796875 417.449219 396.136719 414.160156 381.441406 422.039062 C 365.8125 430.414062 357.554688 449.027344 361.351562 467.308594 C 363.515625 477.710938 369.175781 485.433594 374.648438 492.898438 C 379.722656 499.824219 384.96875 506.980469 387.777344 516.75 C 390.984375 527.914062 391.605469 540.507812 389.621094 554.183594 L 370.167969 688.230469 C 369.613281 692.035156 372.25 695.566406 376.054688 696.121094 C 379.863281 696.667969 383.394531 694.035156 383.945312 690.230469 L 403.402344 556.183594 C 405.671875 540.539062 404.917969 525.976562 401.15625 512.902344 C 397.664062 500.75 391.402344 492.207031 385.878906 484.667969 C 380.863281 477.828125 376.535156 471.914062 374.984375 464.472656 C 372.433594 452.195312 377.792969 439.792969 388.019531 434.308594 C 397.105469 429.441406 407.34375 431.742188 416.105469 440.621094 C 425.824219 450.460938 441.058594 451.796875 452.335938 443.792969 C 466.550781 433.703125 480.679688 433.382812 488.324219 442.972656 C 496.175781 452.816406 495.207031 470.746094 478.164062 485.96875 C 460.042969 502.152344 449.535156 521.703125 446.046875 545.742188 L 425.367188 688.230469 C 424.8125 692.035156 427.449219 695.566406 431.253906 696.117188 C 431.59375 696.167969 431.933594 696.191406 432.265625 696.191406 C 435.664062 696.191406 438.640625 693.695312 439.144531 690.226562 L 459.824219 547.742188 C 462.824219 527.074219 471.859375 510.265625 487.4375 496.351562 C 510.925781 475.375 511.140625 449.253906 499.210938 434.292969 Z M 454.527344 346.679688 C 464.617188 327.527344 476.496094 322.972656 484.6875 322.527344 C 495.527344 321.9375 506.503906 328.289062 514.078125 339.511719 C 523.160156 352.980469 524.796875 368.894531 518.246094 380.0625 C 508.988281 395.847656 496.660156 397.09375 487.65625 398.003906 C 481.40625 398.632812 477.722656 399.144531 474.679688 402.238281 C 465.445312 411.648438 456.539062 413.863281 450.203125 413.863281 C 449.59375 413.863281 449.003906 413.839844 448.445312 413.804688 C 440.277344 413.269531 432.582031 408.96875 427.335938 401.996094 C 421.847656 394.710938 419.820312 385.554688 421.914062 377.507812 C 423.886719 369.898438 429.402344 363.75 437.4375 360.1875 C 439.203125 359.375 440.832031 358.683594 442.273438 358.070312 C 448.785156 355.308594 450.332031 354.648438 454.527344 346.683594 Z M 447.714844 370.886719 C 446.296875 371.488281 444.835938 372.109375 443.171875 372.875 C 438.890625 374.773438 436.300781 377.496094 435.386719 381.007812 C 434.371094 384.921875 435.546875 389.753906 438.457031 393.621094 C 441.265625 397.347656 445.234375 399.640625 449.351562 399.910156 C 454.324219 400.234375 459.65625 397.667969 464.742188 392.484375 C 471.457031 385.644531 479.320312 384.851562 486.257812 384.148438 C 494.558594 383.308594 500.554688 382.703125 506.234375 373.015625 C 509.972656 366.644531 508.453125 356.070312 502.535156 347.296875 C 497.726562 340.171875 491.34375 336.113281 485.445312 336.429688 C 478.855469 336.789062 472.425781 342.574219 466.851562 353.167969 C 460.632812 364.976562 456.011719 367.363281 447.714844 370.886719 Z M 693.296875 477.515625 L 639.289062 439.226562 C 637.296875 437.8125 634.710938 437.546875 632.472656 438.527344 C 630.234375 439.507812 628.671875 441.585938 628.359375 444.007812 L 625.023438 469.671875 L 584.121094 439.308594 C 581.03125 437.015625 576.671875 437.664062 574.378906 440.75 C 572.089844 443.835938 572.734375 448.199219 575.820312 450.488281 L 626.25 487.921875 C 628.234375 489.394531 630.847656 489.703125 633.121094 488.738281 C 635.394531 487.773438 636.984375 485.679688 637.304688 483.230469 L 640.675781 457.277344 L 685.242188 488.875 C 686.464844 489.742188 687.871094 490.15625 689.261719 490.15625 C 691.441406 490.15625 693.589844 489.136719 694.949219 487.222656 C 697.171875 484.085938 696.433594 479.742188 693.296875 477.515625 Z M 578.816406 326.332031 L 655.359375 293.417969 C 657.945312 292.308594 659.605469 289.746094 659.570312 286.929688 C 659.53125 284.117188 657.800781 281.601562 655.183594 280.558594 L 627.488281 269.515625 L 681.261719 244.53125 C 684.746094 242.914062 686.261719 238.773438 684.640625 235.285156 C 683.019531 231.800781 678.878906 230.285156 675.394531 231.90625 L 606.980469 263.691406 C 604.460938 264.863281 602.875 267.421875 602.953125 270.199219 C 603.03125 272.976562 604.753906 275.441406 607.335938 276.472656 L 634.417969 287.265625 L 573.316406 313.542969 C 569.785156 315.0625 568.152344 319.15625 569.671875 322.6875 C 570.804688 325.320312 573.371094 326.898438 576.070312 326.898438 C 576.988281 326.898438 577.921875 326.71875 578.816406 326.332031 Z M 542.117188 282.429688 C 543.324219 283.261719 544.703125 283.664062 546.0625 283.664062 C 548.273438 283.664062 550.449219 282.613281 551.800781 280.652344 L 577.730469 243.0625 C 579.910156 239.898438 579.117188 235.5625 575.953125 233.378906 C 572.785156 231.199219 568.453125 231.992188 566.269531 235.15625 L 540.339844 272.746094 C 538.15625 275.910156 538.949219 280.246094 542.117188 282.429688 Z M 591.175781 363.570312 C 587.359375 363.265625 583.988281 366.117188 583.679688 369.953125 C 583.371094 373.785156 586.226562 377.140625 590.0625 377.449219 L 635.578125 381.109375 C 635.769531 381.125 635.957031 381.132812 636.144531 381.132812 C 639.734375 381.132812 642.78125 378.371094 643.078125 374.726562 C 643.386719 370.894531 640.527344 367.539062 636.695312 367.230469 Z M 494.675781 235.285156 C 495.085938 238.832031 498.097656 241.449219 501.585938 241.449219 C 501.851562 241.449219 502.121094 241.433594 502.390625 241.402344 C 506.210938 240.960938 508.949219 237.507812 508.507812 233.6875 L 502.667969 183.082031 L 526.558594 193.027344 C 528.8125 193.96875 531.394531 193.65625 533.359375 192.207031 C 535.328125 190.757812 536.390625 188.386719 536.164062 185.953125 L 530.007812 120.035156 C 529.648438 116.207031 526.265625 113.394531 522.425781 113.753906 C 518.597656 114.109375 515.785156 117.503906 516.144531 121.332031 L 521.226562 175.726562 L 497.066406 165.671875 C 494.785156 164.722656 492.175781 165.050781 490.199219 166.539062 C 488.230469 168.023438 487.191406 170.441406 487.472656 172.894531 Z M 297.921875 488.851562 L 297.921875 533.402344 C 297.921875 540.898438 291.820312 547.003906 284.320312 547.003906 L 241.714844 547.003906 L 241.714844 589.605469 C 241.714844 597.105469 235.613281 603.207031 228.113281 603.207031 L 183.5625 603.207031 C 176.066406 603.207031 169.964844 597.105469 169.964844 589.605469 L 169.964844 547.003906 L 127.359375 547.003906 C 119.859375 547.003906 113.757812 540.902344 113.757812 533.402344 L 113.757812 488.851562 C 113.757812 481.351562 119.859375 475.25 127.359375 475.25 L 169.964844 475.25 L 169.964844 432.644531 C 169.964844 425.144531 176.066406 419.042969 183.566406 419.042969 L 228.117188 419.042969 C 235.617188 419.042969 241.71875 425.144531 241.71875 432.644531 L 241.71875 475.25 L 284.324219 475.25 C 291.820312 475.25 297.921875 481.351562 297.921875 488.851562 Z M 283.996094 489.175781 L 234.753906 489.175781 C 230.910156 489.175781 227.792969 486.054688 227.792969 482.210938 L 227.792969 432.96875 L 183.886719 432.96875 L 183.886719 482.210938 C 183.886719 486.054688 180.769531 489.175781 176.925781 489.175781 L 127.683594 489.175781 L 127.683594 533.078125 L 176.925781 533.078125 C 180.769531 533.078125 183.890625 536.195312 183.890625 540.039062 L 183.890625 589.285156 L 227.792969 589.285156 L 227.792969 540.039062 C 227.792969 536.195312 230.910156 533.078125 234.753906 533.078125 L 284 533.078125 L 284 489.175781 Z M 283.996094 489.175781 " fill-opacity="1" fill-rule="nonzero"/></g></svg>