<svg xmlns="http://www.w3.org/2000/svg" xmlns:xlink="http://www.w3.org/1999/xlink" width="1080" zoomAndPan="magnify" viewBox="0 0 810 817.92" height="1080" preserveAspectRatio="xMidYMid meet" version="1.0"><defs><clipPath id="e79aa0b0bc"><path d="M 102 131.421875 L 707.851562 131.421875 L 707.851562 678.867188 L 102 678.867188 Z M 102 131.421875 " clip-rule="nonzero"/></clipPath></defs><g clip-path="url(#e79aa0b0bc)"><path fill="#144295" d="M 577.214844 388.710938 L 621.488281 388.710938 C 626.515625 388.710938 630.628906 392.785156 630.628906 397.851562 L 630.628906 428.136719 L 660.875 428.136719 C 665.941406 428.136719 670.015625 432.210938 670.015625 437.242188 L 670.015625 481.511719 C 670.015625 486.578125 665.941406 490.65625 660.875 490.65625 L 630.628906 490.65625 L 630.628906 520.941406 C 630.628906 525.96875 626.515625 530.082031 621.488281 530.082031 L 577.214844 530.082031 C 572.148438 530.082031 568.074219 525.96875 568.074219 520.941406 L 568.074219 490.65625 L 537.789062 490.65625 C 532.761719 490.65625 528.644531 486.578125 528.644531 481.511719 L 528.644531 437.242188 C 528.644531 432.199219 532.761719 428.136719 537.789062 428.136719 L 568.074219 428.136719 L 568.074219 397.851562 C 568.074219 392.785156 572.148438 388.710938 577.214844 388.710938 Z M 612.347656 406.992188 L 586.355469 406.992188 L 586.355469 437.242188 C 586.355469 442.308594 582.242188 446.382812 577.214844 446.382812 L 546.929688 446.382812 L 546.929688 472.371094 L 577.214844 472.371094 C 582.242188 472.371094 586.355469 476.484375 586.355469 481.511719 L 586.355469 511.796875 L 612.347656 511.796875 L 612.347656 481.511719 C 612.347656 476.472656 616.421875 472.371094 621.488281 472.371094 L 651.734375 472.371094 L 651.734375 446.382812 L 621.488281 446.382812 C 616.421875 446.382812 612.347656 442.308594 612.347656 437.242188 Z M 599.351562 350.734375 C 600.136719 350.734375 600.867188 350.773438 601.648438 350.773438 C 624.753906 288.203125 618.902344 205.285156 557.039062 165.742188 C 530.945312 149.050781 489.101562 138.539062 469.5625 169.070312 C 466.535156 173.8125 464.011719 179.585938 462.160156 186.546875 C 459.351562 197.058594 460.042969 207.714844 463.570312 217.195312 C 467.121094 226.863281 473.558594 235.296875 482.113281 241.265625 C 482.519531 241.527344 482.925781 241.828125 483.304688 242.113281 C 489.191406 246.855469 498.257812 248.148438 505.621094 245.707031 C 513.390625 243.148438 519.386719 236.96875 521.621094 229.082031 C 522.992188 224.238281 528.019531 221.414062 532.878906 222.785156 C 537.722656 224.117188 540.542969 229.160156 539.171875 234.003906 C 531.765625 260.253906 501.898438 273.066406 477.753906 260.136719 C 457.535156 277.390625 454.207031 307.492188 470.085938 328.921875 C 498.074219 328.558594 518.957031 354.992188 512.097656 382.234375 C 510.871094 387.117188 505.921875 390.082031 501.023438 388.855469 C 496.140625 387.625 493.175781 382.675781 494.402344 377.78125 C 498.296875 362.199219 486.671875 347.3125 470.792969 347.128906 C 459.976562 362.867188 458.828125 382.820312 468.386719 399.289062 C 474.460938 409.839844 484.414062 418.5 496.675781 423.800781 C 511.617188 380.679688 552.414062 350.734375 599.351562 350.734375 Z M 620.3125 352.769531 C 670.734375 362.617188 708.007812 407.007812 708.007812 459.390625 C 708.007812 519.398438 659.359375 568.046875 599.351562 568.046875 C 532.238281 568.046875 481.253906 507.894531 492.144531 441.695312 C 461.050781 429.484375 439.355469 399.640625 444.28125 365.90625 C 430.515625 398.335938 431.652344 446.539062 432.292969 481.550781 C 456.6875 489.363281 472.972656 501.0625 482.191406 514.644531 C 498.191406 538.230469 492.378906 565.433594 474.867188 587.0625 C 458.644531 607.09375 430.921875 624.453125 395.085938 633.332031 L 395.085938 669.246094 C 395.085938 674.273438 390.96875 678.386719 385.941406 678.386719 L 344.660156 678.386719 C 339.59375 678.386719 335.519531 674.273438 335.519531 669.246094 L 335.519531 633.332031 C 299.644531 624.453125 271.917969 607.082031 255.710938 587.0625 C 238.199219 565.449219 232.386719 538.230469 248.382812 514.644531 C 257.605469 501.0625 273.890625 489.363281 298.285156 481.550781 C 298.847656 450.757812 299.800781 410.023438 290.738281 378.601562 C 289.289062 408 268.15625 432.210938 240.496094 442.347656 C 209.882812 453.605469 181.113281 444.382812 157.683594 422.980469 C 124.433594 392.628906 105.484375 341.382812 102.496094 295.230469 C 98.902344 239.84375 116.820312 182.835938 167.570312 150.371094 C 213.398438 121.089844 273.707031 121.417969 289.886719 181.804688 C 296.40625 206.199219 289.105469 231.707031 271.488281 248.957031 C 281.230469 258.363281 288.035156 270.390625 291 283.867188 C 323.464844 291.414062 340.195312 324.992188 348.644531 364.824219 C 356.269531 400.582031 357.238281 441.5625 357.238281 471.585938 L 373.378906 471.585938 C 373.378906 440.9375 374.410156 398.84375 382.480469 362.449219 C 391.480469 321.988281 409.214844 288.476562 443.601562 283.082031 C 446.632812 269.945312 453.410156 258.125 462.929688 248.945312 C 445.351562 231.695312 438.011719 206.1875 444.527344 181.792969 C 460.75 121.417969 521.007812 121.078125 566.886719 150.359375 C 634.964844 193.949219 644.40625 282.875 620.3125 352.769531 Z M 663.253906 395.488281 C 627.976562 360.214844 570.738281 360.214844 535.464844 395.488281 C 500.148438 430.800781 500.148438 488.003906 535.464844 523.316406 C 570.738281 558.589844 627.976562 558.589844 663.253906 523.316406 C 698.527344 488.003906 698.527344 430.800781 663.253906 395.488281 Z M 301.785156 545.335938 C 297.425781 547.777344 291.859375 546.222656 289.417969 541.863281 C 286.9375 537.5 288.492188 531.9375 292.867188 529.453125 C 337.960938 504.054688 392.601562 504.054688 437.683594 529.453125 C 442.046875 531.9375 443.613281 537.488281 441.160156 541.863281 C 438.679688 546.222656 433.128906 547.789062 428.753906 545.335938 C 389.417969 523.160156 341.109375 523.132812 301.785156 545.335938 Z M 263.585938 347.140625 C 247.707031 347.324219 236.082031 362.210938 240 377.792969 C 241.226562 382.675781 238.222656 387.640625 233.339844 388.867188 C 228.457031 390.09375 223.492188 387.128906 222.265625 382.246094 C 215.421875 355.003906 236.292969 328.570312 264.277344 328.9375 C 280.121094 307.570312 276.867188 277.441406 256.613281 260.152344 C 232.515625 273.066406 202.597656 260.253906 195.191406 234.019531 C 193.820312 229.171875 196.667969 224.132812 201.527344 222.800781 C 206.371094 221.429688 211.414062 224.25 212.785156 229.09375 C 216.191406 241.199219 228.257812 248.75 240.628906 246.609375 C 244.363281 245.980469 247.953125 244.464844 251.101562 242.128906 C 251.464844 241.828125 251.84375 241.539062 252.25 241.28125 C 260.84375 235.324219 267.242188 226.875 270.835938 217.210938 C 274.308594 207.730469 275.050781 197.070312 272.207031 186.558594 C 267.503906 168.941406 257.695312 155.789062 240.550781 151.285156 C 220.046875 145.878906 195.308594 154.25 177.3125 165.753906 C 133.042969 194.082031 117.488281 244.675781 120.671875 294.105469 C 123.378906 335.386719 140.183594 382.363281 169.910156 409.5 C 188.414062 426.414062 210.8125 433.820312 234.214844 425.238281 C 264.054688 414.28125 282.378906 383.148438 267.007812 352.980469 C 265.988281 350.914062 264.839844 348.957031 263.585938 347.140625 Z M 292.421875 303.496094 C 291.757812 313.121094 289.050781 322.445312 284.535156 330.921875 C 320.632812 365.867188 317 439.421875 316.375 488.472656 C 316.296875 492.613281 313.488281 496.101562 309.675781 497.132812 C 279.949219 505.347656 254.222656 522.195312 257.589844 549.03125 C 258.664062 557.847656 262.921875 566.910156 269.921875 575.570312 C 284.808594 593.929688 311.449219 609.8125 346.515625 617.097656 C 350.8125 617.988281 353.777344 621.800781 353.777344 626.019531 L 353.777344 660.078125 L 376.789062 660.078125 L 376.789062 626.019531 C 376.789062 621.394531 380.195312 617.582031 384.675781 616.980469 C 419.402344 609.617188 445.875 593.8125 460.644531 575.554688 C 473.050781 560.222656 478.339844 541.390625 467.121094 524.84375 C 459.417969 513.523438 444.425781 503.636719 420.890625 497.117188 C 416.777344 495.96875 414.074219 492.195312 414.191406 488.082031 C 414.152344 485.496094 414.113281 482.53125 414.046875 479.488281 C 413.160156 431.402344 411.867188 360.5 448.65625 328.519531 C 444.699219 320.265625 442.359375 311.34375 441.878906 302.164062 C 389.757812 317.71875 391.414062 442.175781 391.609375 481.304688 C 391.609375 486.632812 387.050781 490.851562 381.722656 490.40625 L 381.722656 490.445312 C 369.917969 489.414062 360.699219 489.414062 348.890625 490.445312 C 343.40625 490.929688 338.707031 486.671875 339.007812 480.480469 C 339.148438 450.902344 338.824219 406.40625 330.792969 368.570312 C 324.261719 338.027344 312.78125 311.972656 292.421875 303.496094 Z M 292.421875 303.496094 " fill-opacity="1" fill-rule="nonzero"/></g></svg>