<svg id="Capa_1" data-name="Capa 1" xmlns="http://www.w3.org/2000/svg" viewBox="0 0 1080 1080"><defs><style>.cls-1{fill:#fff;}.cls-2{fill:#fa9e12;}</style></defs><path d="M941.12,375V643.49a21.43,21.43,0,0,1-21.44,21.44H179.33a21.46,21.46,0,0,1-21.44-21.44V375a21.45,21.45,0,0,1,21.44-21.44H919.68A21.43,21.43,0,0,1,941.12,375Z"/><path class="cls-1" d="M244.8,417.14a15.59,15.59,0,0,0-6-6.79,17.36,17.36,0,0,0-9.2-2.41,18.7,18.7,0,0,0-9.44,2.41,17.07,17.07,0,0,0-6.62,6.9,21.72,21.72,0,0,0-2.4,10.38A21.49,21.49,0,0,0,213.5,438a17,17,0,0,0,6.62,6.86,18.6,18.6,0,0,0,9.44,2.41,17.13,17.13,0,0,0,12.08-4.38A18.14,18.14,0,0,0,247.17,431h-20v-5.32h26.95v5A24.82,24.82,0,0,1,250.26,442a23.89,23.89,0,0,1-8.7,8.12,24.33,24.33,0,0,1-12,3,25.15,25.15,0,0,1-12.71-3.27,23.84,23.84,0,0,1-9.09-9.09,27.54,27.54,0,0,1,0-26.33,23.8,23.8,0,0,1,9.09-9.13,26.76,26.76,0,0,1,26.83.69,22.57,22.57,0,0,1,8.95,11.13Z"/><path class="cls-1" d="M343.31,452.71l-11.93-20.48h-7.9v20.48h-6.54V402.63h16.17a21.51,21.51,0,0,1,9.59,1.94,13.51,13.51,0,0,1,5.86,5.25,14.52,14.52,0,0,1-10,21.91l12.58,21ZM323.48,427h9.63q5.31,0,8-2.63a9.38,9.38,0,0,0,2.65-7,9,9,0,0,0-2.62-6.9q-2.62-2.44-8-2.44h-9.63Z"/><path class="cls-1" d="M421.2,402.63v31.69q0,6.68,3.27,9.91t9.09,3.24q5.74,0,9-3.24t3.27-9.91V402.63h6.54v31.61a20.42,20.42,0,0,1-2.52,10.53,15.76,15.76,0,0,1-6.79,6.36,23,23,0,0,1-19.18,0,15.63,15.63,0,0,1-6.76-6.36,20.72,20.72,0,0,1-2.48-10.53V402.63Z"/><path class="cls-1" d="M546.7,427.67q-4.28,4.14-13,4.13H524v20.91h-6.54V402.63h16.17q8.48,0,12.9,4.09a14.79,14.79,0,0,1,.14,20.95Zm-5-3.63a8.71,8.71,0,0,0,2.58-6.75q0-9.27-10.63-9.27H524v18.39h9.63Q539.12,426.41,541.71,424Z"/><path class="cls-1" d="M623.26,450a23.94,23.94,0,0,1-9.09-9.13,27.69,27.69,0,0,1,0-26.37,23.94,23.94,0,0,1,9.09-9.13,26.51,26.51,0,0,1,25.51,0,23.73,23.73,0,0,1,9.05,9.09,28.08,28.08,0,0,1,0,26.45,23.8,23.8,0,0,1-9.05,9.09,26.51,26.51,0,0,1-25.51,0Zm22.17-4.86a17.21,17.21,0,0,0,6.61-7,24.12,24.12,0,0,0,0-21,17.35,17.35,0,0,0-6.58-6.94,19.66,19.66,0,0,0-19,0,17.33,17.33,0,0,0-6.57,6.94,24.12,24.12,0,0,0,0,21,17.15,17.15,0,0,0,6.61,7,19.45,19.45,0,0,0,18.9,0Z"/><path class="cls-2" d="M302,602.51H278l-40-46.67-3.52-4.67a12.29,12.29,0,0,1-2.45-8.21,4.13,4.13,0,0,1,4-3.86c11.56-.22,24.23.15,34.21-8.49,6.4-5.53,10.13-30.71-12.49-32.34H225V602.51H207.4V477h49.77a39.7,39.7,0,0,1,19.12,4.47,31.84,31.84,0,0,1,12.76,12.73c6.62,12,6.69,31.23,0,43.21a32.2,32.2,0,0,1-12.83,12.73,71.51,71.51,0,0,1-14.09,6.29Z"/><polygon class="cls-2" points="324.17 498.27 324.17 529.96 378.67 529.96 378.67 548.56 324.17 548.56 324.17 582.17 381.67 582.17 381.67 602.47 304.81 602.47 304.81 477.02 381.67 477.02 381.67 498.27 324.17 498.27"/><polygon class="cls-2" points="515.31 498.27 515.31 529.96 569.81 529.96 569.81 548.56 515.31 548.56 515.31 582.17 572.84 582.17 572.84 602.47 495.99 602.47 495.99 477.02 572.84 477.02 572.84 498.27 515.31 498.27"/><polygon class="cls-2" points="603.62 498.27 603.62 529.96 658.08 529.96 658.08 548.56 603.62 548.56 603.62 582.17 661.12 582.17 661.12 602.47 584.26 602.47 584.26 477.02 661.12 477.02 661.12 498.27 603.62 498.27"/><polygon class="cls-2" points="484.96 477.02 484.96 602.38 466.65 602.38 409.73 516.55 409.73 602.38 390.15 602.38 390.15 477.02 406.11 477.02 465.38 564.03 465.38 477.02 484.96 477.02"/><path class="cls-2" d="M833.41,508.45l-.26-.29L833,508a48.47,48.47,0,0,0,9.44-4.18,21.54,21.54,0,0,0,8.55-8.51c.13-.26.29-.53.39-.79,4.11-8,3.91-20.33-.36-28.06a21,21,0,0,0-8.52-8.49,26.47,26.47,0,0,0-12.79-3H796.47v5.16c-.69-.53-1.37-1-2.09-1.47A42.39,42.39,0,0,0,771,452.06a41.89,41.89,0,0,0-21.15,5.42,39.73,39.73,0,0,0-15.08,15.14,43.55,43.55,0,0,0-5.55,21.9,43.08,43.08,0,0,0,5.55,21.83,39.65,39.65,0,0,0,15.08,15.11A42,42,0,0,0,771,536.88a40.5,40.5,0,0,0,19.9-4.93,40.56,40.56,0,0,0,14.46-13.51,47.68,47.68,0,0,0,2.9-5.13,26.19,26.19,0,0,0,1.9-4.86c0-.1.06-.19.1-.29h7.08l.26.29,26,30.29h16ZM799,508.21a57,57,0,0,1-2.68,5.36,27.39,27.39,0,0,1-5.3,6.24q-7.87,7.29-20,7.28a30.81,30.81,0,0,1-15.7-4,28.41,28.41,0,0,1-11-11.39,39.2,39.2,0,0,1,0-34.42,28.4,28.4,0,0,1,11-11.46,30.83,30.83,0,0,1,15.7-4,28.81,28.81,0,0,1,15.27,4,26.13,26.13,0,0,1,10,11.26h12v-7.93H830c15.11,1.08,12.63,17.88,8.36,21.57a20.11,20.11,0,0,1-6.43,3.75,22.33,22.33,0,0,1-2.55.75H767v12.93h28.52Z"/><path class="cls-2" d="M749.16,554.75,738,579.49a.57.57,0,0,0,.52.8H758.7a.57.57,0,0,0,.52-.34l10.5-24.74a.57.57,0,0,0-.52-.79H749.67A.56.56,0,0,0,749.16,554.75Z"/><path class="cls-2" d="M789.72,554.75l-11.21,24.74a.57.57,0,0,0,.52.8h20.23a.57.57,0,0,0,.52-.34l10.5-24.74a.57.57,0,0,0-.52-.79H790.23A.56.56,0,0,0,789.72,554.75Z"/><path class="cls-2" d="M830.28,554.75l-11.21,24.74a.57.57,0,0,0,.52.8h20.23a.57.57,0,0,0,.52-.34l10.5-24.74a.57.57,0,0,0-.52-.79H830.79A.56.56,0,0,0,830.28,554.75Z"/><path class="cls-2" d="M879.9,610h-171a15.24,15.24,0,0,1-15.22-15.22v-171a15.23,15.23,0,0,1,15.22-15.21h171a15.23,15.23,0,0,1,15.22,15.21v171A15.23,15.23,0,0,1,879.9,610ZM710,593.64H878.81V424.81H710Z"/></svg>