<svg id="Capa_1" data-name="Capa 1" xmlns="http://www.w3.org/2000/svg" viewBox="70 308 950 500"><defs><style>.cls-1{fill:#fff;}.cls-2{fill:#fcfcfd;}.cls-3{fill:#144395;}.cls-4{fill:#e30313;}.cls-5{fill:#009bdb;}</style></defs><rect class="cls-1" x="78.79" y="669.36" width="936.03" height="3.54"/><polygon class="cls-1" points="308.66 800.75 257.09 746.57 256.83 796.26 244.71 796.42 244.86 716.13 296.45 770.25 297.01 720.64 308.99 720.49 308.66 800.75"/><path class="cls-1" d="M536.13,758.55A39.56,39.56,0,1,1,496.58,719,39.55,39.55,0,0,1,536.13,758.55Zm-11.84,0A27.69,27.69,0,1,0,496.6,786.2,27.69,27.69,0,0,0,524.29,758.51Z"/><path class="cls-1" d="M435.09,796.57c0-10.15-5.6-19.06-15.6-20.75-4.85-.82-10.23-.51-15.29-.35l-.4,21.18-11.48-.23-.07-76,29.21.19c11.69.07,21.22,9.25,24.3,18.68,3.81,11.71-.32,23-9.66,31.09,7.3,7.06,11.61,15.65,10.69,26.18Zm-12.42-33.81c8.45-1,13-9.16,12.25-16.44-.59-6-5.94-13.56-13.34-13.66l-17.47-.23-.06,30.65C410.35,763.27,416.17,763.53,422.67,762.76Z"/><path class="cls-1" d="M166,747.52c-6.68-12.25-18.38-18.61-31.51-16a27.55,27.55,0,0,0-.51,53.82c12.27,2.78,25.12-2.53,31.34-15.4a40.53,40.53,0,0,1,11.08,4.66,39.55,39.55,0,0,1-51.45,20.28C105.26,786.75,95,764,103.44,743.77a39.63,39.63,0,0,1,35.42-24.67,39.13,39.13,0,0,1,37.46,23.61Z"/><path class="cls-1" d="M226.69,764.24l-28.28.22,0,20.1,34.59.06a24.66,24.66,0,0,1-.12,12H186.44l-.05-76.13,47-.14.1,11.93-35,.17v19.81l28.19.4Z"/><path class="cls-1" d="M630,741.28,606.4,798l-23.13-56.36-13.75,55c-1.37.75-4.06.89-6.51.63l18.86-76.42,24.58,60.27L631.51,721l18.65,75.44a9.13,9.13,0,0,1-6.26.67Z"/><polygon class="cls-1" points="356.36 796.27 344.4 796.66 344.23 732.48 318.59 732.3 318.68 720.38 381.69 720.36 381.82 732.37 356.43 732.39 356.36 796.27"/><path class="cls-1" d="M992.73,758a41.15,41.15,0,1,1-41.15-41.14A41.15,41.15,0,0,1,992.73,758Zm-6,0a35.14,35.14,0,1,0-35.14,35.14A35.14,35.14,0,0,0,986.72,758Z"/><path class="cls-1" d="M754.84,797.11c-10.53,1.18-20.11.36-31,.49l0-78.85,24.86-.29c21.59-.24,39.06,15.11,40.91,36.4A39.23,39.23,0,0,1,754.84,797.11Zm-3.2-6c17.59-.1,30.53-14.56,31.82-30.5,1.32-16.3-9.81-32.17-26.7-35.1-9-1.55-18-.84-27.43-.66l0,66.39Z"/><path class="cls-1" d="M894.69,777.09c1.33-1.92,5.46-.59,6.35,1.37a41.77,41.77,0,0,1-46.17,19.37c-17.25-4.42-30.74-19.79-31.12-38.77-.38-19.58,12.09-34.92,29.56-40.42,17.86-5.62,38.46,2.9,47.28,18.5.08,1.26-2.78,3.38-3.82,2.86a13.48,13.48,0,0,1-3.62-3.18c-13.33-16.7-37-18.32-52.11-4.49a35.16,35.16,0,0,0,.49,51.83C857.33,798.08,882,795.5,894.69,777.09Z"/><path class="cls-1" d="M702.53,759.12l-31.56.13.08,31,38.74.09c1.25.42,1.24,4.4.3,6l-45.26.08,0-79.17,44.8-.07c1.55,0,1.83,5.9.12,5.91l-38.73.29L671,753l31.42.14A40.85,40.85,0,0,1,702.53,759.12Z"/><rect class="cls-1" x="802.73" y="718.58" width="6.35" height="79.09"/><rect class="cls-1" x="684.67" y="700.51" width="13.63" height="6.02" transform="translate(-282.44 860.25) rotate(-54.64)"/><path class="cls-2" d="M704,547.38l.35,54c.08,11.39,10.11,22.79,22.51,22.78l245.42,0c11.52,0,21.82-11.37,21.82-22.45l.07-242.89c0-12.18-10.49-23.36-23-23.36l-243.22-.05c-12.31,0-23.41,10.66-23.47,22.76L704,438.61c8.89-4.92,16.12-8.81,25-8.14a34.45,34.45,0,0,1,29.51,20.29c11.55,24.79-1.69,51.67-19.43,69.91C728.69,531.29,717.28,539.48,704,547.38Zm-336.8,77c12.93-2.25,21.05-10.64,22.77-23.15l-.22-242.49c0-11.79-10.73-23-22.58-23l-244-.09c-11.69,0-23,10.11-23,22.06l.06,244.86c0,12.06,12.2,21.69,24,21.7ZM635.31,455.35c3.63-11.52,12.45-20.17,22.38-23.35,12.33-3.95,23.47-.87,34.54,7.19l-.16-81.63c0-11.57-10.86-21.89-22.76-21.89l-244.88.15c-11.46,0-21.8,11.71-21.79,22.83l.08,242.85c0,11.38,10.71,22.38,22.09,22.4l240.68.46c13.62,0,26.58-8.38,26.62-22.81l.16-53.71C660.38,530,623,494.28,635.31,455.35Zm70.24,63.19.09-25.55,26-.56c.12-4.83.47-9.2-.23-13.61l-25.57-.33-.52-25.8c-4.83-.32-9.3-.58-13.73.22l-.22,25.69-25.71.22a82.69,82.69,0,0,0,.09,13.91l25.67.1.13,25.79A92.32,92.32,0,0,0,705.55,518.54Z"/><path class="cls-2" d="M1014.82,324l0,309.41c0,9.65-10.18,15.43-19.24,17.63H100.86C90,649.06,83,642.24,81.15,631.27l0-305.15c1.6-11,8.92-17.69,19.69-19.7H996C1004.88,308.78,1014.82,313.79,1014.82,324Z"/><path class="cls-3" d="M705.55,518.54a92.32,92.32,0,0,1-14,.08l-.13-25.79-25.67-.1a82.69,82.69,0,0,1-.09-13.91l25.71-.22.22-25.69c4.43-.8,8.9-.54,13.73-.22l.52,25.8,25.57.33c.7,4.41.35,8.78.23,13.61l-26,.56Z"/><path class="cls-4" d="M704,547.38c13.3-7.9,24.71-16.09,35-26.71,17.74-18.24,31-45.12,19.43-69.91a34.45,34.45,0,0,0-29.51-20.29c-8.85-.67-16.08,3.22-25,8.14l.44-80.51c.06-12.1,11.16-22.76,23.47-22.76l243.22.05c12.56,0,23,11.18,23,23.36l-.07,242.89c0,11.08-10.3,22.44-21.82,22.45l-245.42,0c-12.4,0-22.43-11.39-22.51-22.78Zm144.13,22.09c17.58.17,33.14-4.48,45.47-16.3,20.36-19.53,18-52.59-3.31-69.44-19.45-15.36-38.46-15.79-56.85-27.72-5.57-3.61-9.62-9.41-8.4-16.29,1.25-7.05,7.22-12.54,14.28-14.31,14.63-3.67,29.16,1.11,40.59,11.16l23-23c-13.65-13.77-32.22-19.59-51.18-20.09a87,87,0,0,0-10.09-.08c-15.79,1.27-31.06,7.26-41.24,20a47.37,47.37,0,0,0-3.67,53.38c7,11.72,18.3,19,30.6,23.86L851.14,500c5.39,2.12,10.38,4.42,15,8,6,4.71,8.26,13.16,4,19.89-11.22,17.93-45.61,8.89-59.13-3.83-2.2-1.42-3.94-.41-5.44,1.2-6.47,7-12.79,13.59-20.32,20.74C802.46,562,824.12,569.24,848.11,569.47Z"/><path class="cls-2" d="M848.11,569.47c-24-.23-45.65-7.45-62.85-23.45,7.53-7.15,13.85-13.78,20.32-20.74,1.5-1.61,3.24-2.62,5.44-1.2,13.52,12.72,47.91,21.76,59.13,3.83,4.21-6.73,1.92-15.18-4-19.89-4.58-3.62-9.57-5.92-15-8l-23.79-9.36c-12.3-4.84-23.55-12.14-30.6-23.86a47.37,47.37,0,0,1,3.67-53.38c10.18-12.74,25.45-18.73,41.24-20a87,87,0,0,1,10.09.08c19,.5,37.53,6.32,51.18,20.09l-23,23c-11.43-10.05-26-14.83-40.59-11.16-7.06,1.77-13,7.26-14.28,14.31-1.22,6.88,2.83,12.68,8.4,16.29,18.39,11.93,37.4,12.36,56.85,27.72,21.32,16.85,23.67,49.91,3.31,69.44C881.25,565,865.69,569.64,848.11,569.47Z"/><path class="cls-5" d="M635.31,455.35c-12.27,38.93,25.07,74.68,57,92.49l-.16,53.71c0,14.43-13,22.84-26.62,22.81l-240.68-.46c-11.38,0-22.09-11-22.09-22.4l-.08-242.85c0-11.12,10.33-22.83,21.79-22.83l244.88-.15c11.9,0,22.74,10.32,22.76,21.89l.16,81.63c-11.07-8.06-22.21-11.14-34.54-7.19C647.76,435.18,638.94,443.83,635.31,455.35ZM612.59,565.48l-.06-168.6-33.2.17-.2,67.07-66,0L512.89,397l-33.24-.09,0,168.74,33.24.19.22-74.6,66.06,0,.22,74.61Z"/><polygon class="cls-2" points="612.59 565.49 579.37 565.8 579.15 491.19 513.09 491.21 512.87 565.81 479.63 565.62 479.65 396.88 512.89 396.97 513.14 464.14 579.13 464.12 579.34 397.05 612.53 396.88 612.59 565.49"/><path class="cls-3" d="M367.18,624.42l-243-.15c-11.75,0-24-9.64-24-21.7l-.06-244.86c0-11.95,11.29-22.07,23-22.06l244,.09c11.85,0,22.57,11.25,22.58,23L390,601.27C388.23,613.78,380.11,622.17,367.18,624.42Zm-30.55-143a89.21,89.21,0,1,0-89.21,89.19A89.2,89.2,0,0,0,336.63,481.39Z"/><path class="cls-2" d="M336.63,481.39a89.21,89.21,0,1,1-89.21-89.19A89.2,89.2,0,0,1,336.63,481.39Zm-32.89.08a56.31,56.31,0,1,0-56.31,56.3A56.3,56.3,0,0,0,303.74,481.47Z"/><ellipse class="cls-3" cx="247.43" cy="481.47" rx="56.31" ry="56.3"/></svg>