<svg id="Capa_1" data-name="Capa 1" xmlns="http://www.w3.org/2000/svg" viewBox="60 300 930 510"><defs><style>.cls-1{fill:#fcfcfd;}.cls-2{fill:#144395;}.cls-3{fill:#e30313;}.cls-4{fill:#009bdb;}</style></defs><rect x="63.8" y="667.74" width="916.22" height="3.46"/><polygon points="288.8 796.36 238.32 743.32 238.07 791.96 226.2 792.12 226.35 713.53 276.85 766.5 277.4 717.94 289.13 717.79 288.8 796.36"/><path d="M511.46,755a38.72,38.72,0,1,1-38.72-38.72A38.72,38.72,0,0,1,511.46,755Zm-11.59,0a27.11,27.11,0,1,0-27.11,27.1A27.1,27.1,0,0,0,499.87,755Z"/><path d="M412.56,792.27c0-9.94-5.48-18.67-15.28-20.32-4.74-.8-10-.5-15-.34l-.39,20.73-11.24-.23-.06-74.42,28.59.18c11.44.07,20.77,9,23.78,18.29,3.73,11.46-.31,22.49-9.46,30.43,7.15,6.91,11.37,15.32,10.47,25.63Zm-12.17-33.11c8.28-1,12.7-9,12-16.09-.58-5.9-5.82-13.27-13.06-13.36l-17.1-.23-.05,30C388.34,759.67,394,759.92,400.39,759.16Z"/><path d="M149.11,744.25c-6.53-12-18-18.22-30.84-15.63a27,27,0,0,0-.51,52.68c12,2.72,24.6-2.47,30.69-15.07a39.54,39.54,0,0,1,10.84,4.56,38.71,38.71,0,0,1-50.36,19.84c-19.22-8-29.27-30.28-21-50a38.78,38.78,0,0,1,34.67-24.15,38.34,38.34,0,0,1,36.68,23.11Z"/><path d="M208.57,760.62l-27.68.21,0,19.68,33.86.06a24.22,24.22,0,0,1-.13,11.75H169.16l0-74.52,46-.14.1,11.69-34.29.16v19.39l27.59.39Z"/><path d="M603.34,738.15l-23.1,55.5L557.6,738.48l-13.45,53.83c-1.35.74-4,.88-6.38.62l18.46-74.81,24.06,59,24.53-58.82,18.26,73.85a9,9,0,0,1-6.13.65Z"/><polygon points="335.49 791.96 323.78 792.35 323.62 729.53 298.52 729.35 298.61 717.68 360.29 717.66 360.41 729.42 335.56 729.44 335.49 791.96"/><path d="M958.39,754.55a40.27,40.27,0,1,1-40.27-40.27A40.27,40.27,0,0,1,958.39,754.55Zm-5.88,0a34.4,34.4,0,1,0-34.39,34.39A34.4,34.4,0,0,0,952.51,754.52Z"/><path d="M725.54,792.79c-10.31,1.15-19.69.35-30.38.48l0-77.18,24.33-.28c21.14-.24,38.23,14.79,40,35.63A38.38,38.38,0,0,1,725.54,792.79ZM722.41,787c17.22-.1,29.88-14.25,31.14-29.85,1.3-16-9.6-31.5-26.13-34.36-8.76-1.52-17.66-.82-26.85-.65l0,65Z"/><path d="M862.43,773.19c1.3-1.88,5.34-.58,6.21,1.35a40.89,40.89,0,0,1-45.19,19c-16.88-4.33-30.09-19.38-30.45-38-.38-19.16,11.83-34.17,28.93-39.55,17.48-5.51,37.64,2.83,46.28,18.1.08,1.23-2.72,3.31-3.75,2.8a13.23,13.23,0,0,1-3.53-3.12c-13.06-16.34-36.26-17.93-51-4.39a34.42,34.42,0,0,0,.48,50.74C825.86,793.74,850,791.21,862.43,773.19Z"/><path d="M674.34,755.6l-30.9.13.08,30.3,37.92.09c1.23.41,1.22,4.3.3,5.87l-44.3.08,0-77.5,43.86-.07c1.51,0,1.79,5.78.11,5.79l-37.91.28,0,29.06,30.76.14A39.09,39.09,0,0,1,674.34,755.6Z"/><rect x="772.42" y="715.92" width="6.22" height="77.42"/><rect x="656.86" y="698.24" width="13.34" height="5.9" transform="translate(-292.31 836.47) rotate(-54.64)"/><path class="cls-1" d="M675.75,548.34l.35,52.83c.08,11.15,9.89,22.31,22,22.3l240.23,0c11.27,0,21.35-11.12,21.36-22l.07-237.75c0-11.93-10.28-22.87-22.57-22.87l-238.07,0c-12,0-22.91,10.44-23,22.28l-.42,78.8c8.7-4.81,15.78-8.61,24.44-8a33.7,33.7,0,0,1,28.88,19.86c11.31,24.26-1.65,50.58-19,68.43C699.94,532.6,688.78,540.61,675.75,548.34ZM346.08,623.76c12.66-2.21,20.61-10.42,22.29-22.67l-.21-237.35c0-11.55-10.51-22.55-22.1-22.56l-238.84-.09c-11.45,0-22.5,9.91-22.5,21.6l.06,239.67c0,11.81,11.94,21.24,23.45,21.25Zm262.46-165.5c3.55-11.28,12.18-19.74,21.91-22.86,12.06-3.86,23-.85,33.8,7l-.15-79.9c0-11.32-10.63-21.43-22.28-21.42l-239.69.14c-11.23,0-21.34,11.47-21.34,22.34l.08,237.72c0,11.14,10.49,21.9,21.62,21.92l235.59.46c13.34,0,26-8.21,26.06-22.33l.15-52.58C633.08,531.36,596.53,496.37,608.54,458.26Zm68.75,61.85.09-25,25.44-.54c.11-4.73.46-9-.22-13.32l-25-.33-.5-25.25c-4.73-.32-9.11-.57-13.44.21L663.41,481l-25.17.22a80.19,80.19,0,0,0,.09,13.61l25.12.1.13,25.25A89.68,89.68,0,0,0,677.29,520.11Z"/><path class="cls-1" d="M980,329.64l0,302.87c0,9.44-10,15.09-18.83,17.25H85.4c-10.62-1.88-17.46-8.56-19.29-19.3V331.76c1.57-10.73,8.74-17.31,19.28-19.28l876.19,0C970.29,314.8,980,319.7,980,329.64Z"/><path class="cls-2" d="M677.29,520.11a89.68,89.68,0,0,1-13.71.09L663.45,495l-25.12-.1a80.19,80.19,0,0,1-.09-13.61l25.17-.22.21-25.15c4.33-.78,8.71-.53,13.44-.21l.5,25.25,25,.33c.68,4.32.33,8.59.22,13.32l-25.44.54Z"/><path class="cls-3" d="M675.75,548.34c13-7.73,24.19-15.74,34.31-26.14,17.36-17.85,30.32-44.17,19-68.43a33.7,33.7,0,0,0-28.88-19.86c-8.66-.65-15.74,3.15-24.44,8l.42-78.8c.07-11.84,10.93-22.28,23-22.28l238.07,0c12.29,0,22.57,10.94,22.57,22.87l-.07,237.75c0,10.85-10.09,22-21.36,22l-240.23,0c-12.14,0-22-11.15-22-22.3ZM816.83,570c17.22.16,32.45-4.38,44.52-16,19.92-19.11,17.62-51.48-3.25-68-19-15-37.64-15.46-55.65-27.14-5.45-3.54-9.41-9.22-8.21-16,1.22-6.89,7.06-12.28,14-14,14.33-3.59,28.55,1.09,39.73,10.93l22.56-22.54c-13.37-13.47-31.54-19.17-50.1-19.66a85.56,85.56,0,0,0-9.88-.07c-15.45,1.24-30.4,7.1-40.37,19.57a46.38,46.38,0,0,0-3.58,52.25c6.89,11.48,17.91,18.62,29.94,23.36l23.3,9.16a55.62,55.62,0,0,1,14.64,7.86c5.84,4.62,8.08,12.89,4,19.47-11,17.56-44.64,8.71-57.88-3.74-2.15-1.4-3.85-.4-5.32,1.18-6.34,6.81-12.53,13.3-19.89,20.29C772.15,562.68,793.36,569.74,816.83,570Z"/><path class="cls-1" d="M816.83,570c-23.47-.23-44.68-7.29-61.51-23,7.36-7,13.55-13.48,19.89-20.29,1.47-1.58,3.17-2.58,5.32-1.18,13.24,12.45,46.9,21.3,57.88,3.74,4.12-6.58,1.88-14.85-4-19.47A55.62,55.62,0,0,0,819.81,502l-23.3-9.16c-12-4.74-23-11.88-29.94-23.36a46.38,46.38,0,0,1,3.58-52.25c10-12.47,24.92-18.33,40.37-19.57a85.56,85.56,0,0,1,9.88.07c18.56.49,36.73,6.19,50.1,19.66l-22.56,22.54c-11.18-9.84-25.4-14.52-39.73-10.93-6.91,1.73-12.75,7.12-14,14-1.2,6.73,2.76,12.41,8.21,16,18,11.68,36.62,12.1,55.65,27.14,20.87,16.48,23.17,48.85,3.25,68C849.28,565.59,834.05,570.13,816.83,570Z"/><path class="cls-4" d="M608.54,458.26c-12,38.11,24.54,73.1,55.75,90.53l-.15,52.58c0,14.12-12.72,22.35-26.06,22.33l-235.59-.46c-11.13,0-21.62-10.78-21.62-21.92l-.08-237.72c0-10.87,10.11-22.33,21.34-22.34l239.69-.14c11.65,0,22.26,10.1,22.28,21.42l.15,79.9c-10.83-7.89-21.74-10.9-33.8-7C620.72,438.52,612.09,447,608.54,458.26ZM586.3,566.07l-.06-165-32.49.17-.2,65.64-64.6,0-.24-65.75L456.17,401l0,165.17,32.54.18.21-73h64.67l.22,73Z"/><polygon class="cls-1" points="586.3 566.07 553.79 566.38 553.57 493.35 488.9 493.36 488.69 566.38 456.15 566.2 456.18 401.03 488.71 401.12 488.95 466.87 553.55 466.85 553.75 401.2 586.24 401.03 586.3 566.07"/><path class="cls-2" d="M346.08,623.76l-237.85-.15c-11.51,0-23.45-9.44-23.45-21.25l-.06-239.67c0-11.69,11-21.6,22.5-21.6l238.84.09c11.59,0,22.09,11,22.1,22.56l.21,237.35C366.69,613.34,358.74,621.55,346.08,623.76Zm-29.9-140a87.32,87.32,0,1,0-87.32,87.3A87.31,87.31,0,0,0,316.18,483.75Z"/><path class="cls-1" d="M316.18,483.75a87.32,87.32,0,1,1-87.32-87.31A87.31,87.31,0,0,1,316.18,483.75Zm-32.19.08a55.12,55.12,0,1,0-55.12,55.1A55.11,55.11,0,0,0,284,483.83Z"/><ellipse class="cls-2" cx="228.87" cy="483.83" rx="55.12" ry="55.11"/></svg>