<svg xmlns="http://www.w3.org/2000/svg" xmlns:xlink="http://www.w3.org/1999/xlink" width="1080" zoomAndPan="magnify" viewBox="0 0 810 817.92" height="1080" preserveAspectRatio="xMidYMid meet" version="1.0"><defs><clipPath id="8055320534"><path d="M 102.632812 167.222656 L 707.070312 167.222656 L 707.070312 642.675781 L 102.632812 642.675781 Z M 102.632812 167.222656 " clip-rule="nonzero"/></clipPath></defs><g clip-path="url(#8055320534)"><path fill="#05439a" d="M 699.8125 462.238281 L 677.117188 462.238281 L 677.117188 202.765625 L 699.8125 202.765625 C 703.964844 202.765625 707.339844 199.390625 707.339844 195.238281 C 707.339844 191.085938 703.964844 187.710938 699.8125 187.710938 L 504.257812 187.710938 L 504.257812 174.789062 C 504.257812 170.636719 500.882812 167.261719 496.730469 167.261719 C 492.578125 167.261719 489.203125 170.636719 489.203125 174.789062 L 489.203125 187.710938 L 293.644531 187.710938 C 289.492188 187.710938 286.121094 191.085938 286.121094 195.238281 C 286.121094 199.390625 289.492188 202.765625 293.644531 202.765625 L 316.339844 202.765625 L 316.339844 345.742188 L 307.15625 345.742188 L 252.007812 304.917969 C 243.539062 298.648438 234.308594 295.597656 223.769531 295.597656 L 150.128906 295.597656 C 123.960938 295.597656 102.65625 316.886719 102.65625 343.070312 L 102.65625 455.160156 C 102.65625 470.742188 115.328125 483.414062 130.910156 483.414062 C 135.675781 483.414062 140.167969 482.222656 144.105469 480.125 L 144.105469 610.847656 C 144.105469 628.386719 158.382812 642.664062 175.921875 642.664062 C 185.65625 642.664062 194.363281 638.273438 200.210938 631.359375 C 206.054688 638.257812 214.761719 642.664062 224.496094 642.664062 C 242.035156 642.664062 256.3125 628.386719 256.3125 610.847656 L 256.3125 381.886719 L 289.820312 401.230469 C 290.960938 401.894531 292.265625 402.234375 293.582031 402.234375 L 316.351562 402.234375 L 316.351562 462.238281 L 293.660156 462.238281 C 289.507812 462.238281 286.132812 465.613281 286.132812 469.765625 C 286.132812 473.917969 289.507812 477.292969 293.660156 477.292969 L 489.214844 477.292969 L 489.214844 546.339844 L 408.609375 629.90625 C 405.726562 632.890625 405.8125 637.65625 408.800781 640.542969 C 410.253906 641.949219 412.148438 642.652344 414.03125 642.652344 C 415.914062 642.652344 417.96875 641.886719 419.449219 640.355469 L 489.214844 568.03125 L 489.214844 635.136719 C 489.214844 639.289062 492.589844 642.664062 496.742188 642.664062 C 500.894531 642.664062 504.269531 639.289062 504.269531 635.136719 L 504.269531 568.03125 L 574.03125 640.355469 C 576.917969 643.351562 581.683594 643.429688 584.671875 640.542969 C 587.65625 637.65625 587.746094 632.890625 584.859375 629.90625 L 504.257812 546.339844 L 504.257812 477.292969 L 699.8125 477.292969 C 703.964844 477.292969 707.339844 473.917969 707.339844 469.765625 C 707.339844 465.613281 703.964844 462.238281 699.8125 462.238281 Z M 252.535156 362.328125 C 248.933594 360.246094 244.332031 361.484375 242.25 365.085938 C 241.558594 366.277344 241.246094 367.570312 241.246094 368.851562 L 241.246094 610.847656 C 241.246094 620.09375 233.730469 627.609375 224.484375 627.609375 C 215.238281 627.609375 207.722656 620.09375 207.722656 610.859375 L 207.722656 472.523438 C 207.722656 468.371094 204.347656 464.996094 200.195312 464.996094 C 196.042969 464.996094 192.667969 468.371094 192.667969 472.523438 L 192.667969 610.859375 C 192.667969 620.09375 185.140625 627.609375 175.910156 627.609375 C 166.675781 627.609375 159.148438 620.09375 159.148438 610.847656 L 159.148438 368.851562 C 159.148438 364.699219 155.773438 361.324219 151.621094 361.324219 C 147.46875 361.324219 144.09375 364.699219 144.09375 368.851562 L 144.09375 455.160156 C 144.09375 462.4375 138.171875 468.359375 130.898438 468.359375 C 123.621094 468.359375 117.699219 462.4375 117.699219 455.160156 L 117.699219 343.070312 C 117.699219 325.191406 132.238281 310.652344 150.117188 310.652344 L 223.757812 310.652344 C 231.046875 310.652344 237.179688 312.671875 243.039062 317.011719 L 300.183594 359.304688 C 301.476562 360.257812 303.042969 360.785156 304.660156 360.785156 L 345.632812 360.785156 C 352.910156 360.785156 358.832031 366.707031 358.832031 373.980469 C 358.832031 381.257812 352.910156 387.179688 345.632812 387.179688 L 295.566406 387.179688 L 252.523438 362.328125 Z M 331.40625 402.234375 L 345.660156 402.234375 C 359.683594 402.234375 371.351562 391.957031 373.535156 378.535156 C 373.875 378.410156 374.210938 378.257812 374.539062 378.082031 L 433.464844 345.542969 C 437.101562 343.535156 438.417969 338.953125 436.410156 335.316406 C 434.402344 331.679688 429.824219 330.363281 426.1875 332.367188 L 371.488281 362.578125 C 367.097656 352.679688 357.175781 345.753906 345.660156 345.753906 L 331.40625 345.753906 L 331.40625 202.777344 L 662.0625 202.777344 L 662.0625 462.25 L 331.40625 462.25 Z M 626.308594 267.648438 C 625.996094 263.835938 622.871094 260.859375 619.046875 260.746094 C 592.085938 259.871094 569.640625 252.140625 550.433594 237.113281 C 547.714844 234.980469 543.886719 234.980469 541.164062 237.113281 C 521.957031 252.140625 499.515625 259.871094 472.554688 260.746094 C 468.726562 260.875 465.605469 263.847656 465.289062 267.648438 C 456.695312 372.0625 502.011719 408.570312 542.445312 428.691406 C 543.496094 429.21875 544.652344 429.480469 545.792969 429.480469 C 546.933594 429.480469 548.089844 429.21875 549.144531 428.691406 C 589.578125 408.554688 634.890625 372.0625 626.296875 267.648438 Z M 545.792969 413.511719 C 509.425781 394.617188 474.4375 362.550781 479.816406 275.425781 C 504.769531 273.542969 526.914062 265.828125 545.792969 252.429688 C 564.675781 265.839844 586.816406 273.554688 611.769531 275.425781 C 617.152344 362.550781 582.164062 394.617188 545.792969 413.511719 Z M 585.335938 305.382812 C 588.273438 308.320312 588.273438 313.085938 585.335938 316.035156 L 541.753906 359.617188 C 540.285156 361.085938 538.355469 361.824219 536.433594 361.824219 C 534.515625 361.824219 532.582031 361.085938 531.117188 359.617188 L 506.261719 334.765625 C 503.328125 331.828125 503.328125 327.0625 506.261719 324.113281 C 509.199219 321.164062 513.964844 321.179688 516.914062 324.113281 L 536.449219 343.648438 L 574.710938 305.382812 C 577.644531 302.449219 582.414062 302.449219 585.359375 305.382812 Z M 142.464844 241.175781 L 152.738281 241.175781 C 156.363281 264.109375 176.261719 281.710938 200.210938 281.710938 C 224.160156 281.710938 244.054688 264.109375 247.679688 241.175781 L 257.957031 241.175781 C 262.109375 241.175781 265.480469 237.800781 265.480469 233.648438 C 265.480469 229.496094 262.109375 226.121094 257.957031 226.121094 L 254.730469 226.121094 C 253.136719 205.359375 239.6875 187.171875 220.394531 179.46875 L 220.394531 174.789062 C 220.394531 170.636719 217.019531 167.261719 212.867188 167.261719 L 187.5625 167.261719 C 183.410156 167.261719 180.035156 170.636719 180.035156 174.789062 L 180.035156 179.46875 C 160.742188 187.171875 147.292969 205.359375 145.699219 226.121094 L 142.476562 226.121094 C 138.324219 226.121094 134.949219 229.496094 134.949219 233.648438 C 134.949219 237.800781 138.324219 241.175781 142.476562 241.175781 Z M 200.195312 266.65625 C 184.589844 266.65625 171.480469 255.753906 168.070312 241.175781 L 232.335938 241.175781 C 228.925781 255.765625 215.816406 266.65625 200.210938 266.65625 Z M 180.023438 196.214844 L 180.023438 206.488281 C 180.023438 210.640625 183.398438 214.015625 187.550781 214.015625 C 191.703125 214.015625 195.078125 210.640625 195.078125 206.488281 L 195.078125 182.316406 L 205.328125 182.316406 L 205.328125 206.488281 C 205.328125 210.640625 208.703125 214.015625 212.855469 214.015625 C 217.007812 214.015625 220.382812 210.640625 220.382812 206.488281 L 220.382812 196.214844 C 231.019531 202.5625 238.257812 213.640625 239.589844 226.121094 L 160.828125 226.121094 C 162.160156 213.628906 169.398438 202.550781 180.035156 196.214844 Z M 180.023438 196.214844 " fill-opacity="1" fill-rule="nonzero"/></g></svg>