<svg xmlns="http://www.w3.org/2000/svg" xmlns:xlink="http://www.w3.org/1999/xlink" width="1080" zoomAndPan="magnify" viewBox="0 0 810 817.92" height="1080" preserveAspectRatio="xMidYMid meet" version="1.0"><defs><clipPath id="e315678ba3"><path d="M 361 97.292969 L 712 97.292969 L 712 480 L 361 480 Z M 361 97.292969 " clip-rule="nonzero"/></clipPath><clipPath id="167e0b6de3"><path d="M 81.03125 270 L 540 270 L 540 728.730469 L 81.03125 728.730469 Z M 81.03125 270 " clip-rule="nonzero"/></clipPath></defs><g clip-path="url(#e315678ba3)"><path fill="#05439a" d="M 704.199219 398.964844 L 545.554688 124.214844 C 535.683594 107.101562 518.652344 97.285156 498.910156 97.285156 C 479.171875 97.285156 462.136719 107.101562 452.265625 124.214844 L 362.894531 279.046875 C 360.125 283.824219 361.75 289.933594 366.503906 292.691406 C 371.320312 295.445312 377.398438 293.808594 380.167969 289.035156 L 469.539062 134.199219 C 475.859375 123.277344 486.273438 117.257812 498.910156 117.257812 C 511.550781 117.257812 521.960938 123.277344 528.28125 134.207031 L 686.863281 408.949219 C 693.183594 419.878906 693.183594 431.914062 686.863281 442.847656 C 680.605469 453.773438 670.132812 459.789062 657.554688 459.789062 L 449.136719 459.789062 C 443.660156 459.789062 439.148438 464.261719 439.148438 469.78125 C 439.148438 475.300781 443.660156 479.761719 449.136719 479.761719 L 657.554688 479.761719 C 677.296875 479.761719 694.328125 469.945312 704.199219 452.828125 C 714.070312 435.710938 714.070312 416.078125 704.199219 398.964844 Z M 704.199219 398.964844 " fill-opacity="1" fill-rule="evenodd"/></g><path fill="#05439a" d="M 349.171875 459.792969 L 340.265625 459.792969 C 327.6875 459.792969 317.273438 453.773438 310.957031 442.851562 C 304.636719 431.914062 304.636719 419.878906 310.957031 408.949219 L 329.492188 376.792969 C 332.261719 372.011719 330.636719 365.910156 325.820312 363.148438 C 321.066406 360.390625 314.988281 362.027344 312.21875 366.808594 L 293.625 398.964844 C 283.753906 416.082031 283.753906 435.714844 293.625 452.828125 C 303.492188 469.953125 320.523438 479.761719 340.265625 479.761719 L 349.175781 479.761719 C 354.710938 479.761719 359.164062 475.296875 359.164062 469.78125 C 359.164062 464.269531 354.710938 459.792969 349.175781 459.792969 Z M 349.171875 459.792969 " fill-opacity="1" fill-rule="evenodd"/><path fill="#05439a" d="M 515.703125 189.289062 L 507.035156 331.140625 C 506.855469 333.6875 504.75 335.679688 502.222656 335.679688 L 495.601562 335.679688 C 493.070312 335.679688 490.90625 333.6875 490.785156 331.140625 L 482.179688 189.289062 C 481.996094 187.109375 482.601562 185.429688 484.105469 183.839844 C 485.609375 182.253906 487.234375 181.542969 489.460938 181.542969 L 508.359375 181.542969 C 510.585938 181.542969 512.210938 182.253906 513.714844 183.839844 C 515.21875 185.429688 515.820312 187.109375 515.699219 189.289062 Z M 528.222656 170.15625 C 522.984375 164.539062 516.125 161.574219 508.359375 161.574219 L 489.460938 161.574219 C 481.757812 161.574219 474.835938 164.539062 469.601562 170.15625 C 464.304688 175.769531 461.714844 182.804688 462.199219 190.503906 L 470.867188 332.351562 C 471.648438 345.417969 482.542969 355.652344 495.601562 355.652344 L 502.222656 355.652344 C 515.28125 355.652344 526.175781 345.417969 526.957031 332.351562 L 535.625 190.503906 C 536.105469 182.804688 533.515625 175.769531 528.222656 170.15625 Z M 528.222656 170.15625 " fill-opacity="1" fill-rule="evenodd"/><path fill="#05439a" d="M 498.910156 419.277344 C 490.605469 419.277344 483.804688 412.511719 483.804688 404.1875 C 483.804688 395.863281 490.605469 389.105469 498.910156 389.105469 C 507.21875 389.105469 514.019531 395.871094 514.019531 404.1875 C 514.019531 412.503906 507.21875 419.277344 498.910156 419.277344 Z M 498.910156 369.128906 C 479.59375 369.128906 463.882812 384.855469 463.882812 404.1875 C 463.882812 423.519531 479.59375 439.25 498.910156 439.25 C 518.230469 439.25 534 423.527344 534 404.1875 C 534 384.847656 518.230469 369.128906 498.910156 369.128906 Z M 498.910156 369.128906 " fill-opacity="1" fill-rule="evenodd"/><g clip-path="url(#167e0b6de3)"><path fill="#05439a" d="M 512.273438 701.664062 C 502.582031 711.402344 486.753906 711.398438 477.003906 701.664062 L 382.816406 607.484375 C 380.105469 604.800781 380.105469 600.4375 382.816406 597.757812 L 408.394531 572.171875 C 409.65625 570.882812 411.402344 570.167969 413.269531 570.167969 C 415.074219 570.167969 416.820312 570.878906 418.082031 572.171875 L 512.273438 666.355469 C 522.023438 676.09375 522.023438 691.933594 512.273438 701.664062 Z M 331.476562 574.203125 C 345.5625 565.835938 362.535156 567.257812 374.871094 577.476562 L 388.109375 564.210938 C 377.878906 551.890625 376.4375 534.914062 384.800781 520.867188 C 398.765625 497.398438 406.167969 470.480469 406.167969 443.019531 C 406.167969 358.921875 337.738281 290.503906 253.660156 290.503906 C 169.582031 290.503906 101.152344 358.921875 101.152344 443.019531 C 101.152344 527.113281 169.523438 595.53125 253.660156 595.53125 C 281.105469 595.53125 308.003906 588.15625 331.476562 574.199219 Z M 432.226562 558.054688 C 427.171875 552.988281 420.429688 550.199219 413.269531 550.199219 C 409.957031 550.199219 406.828125 550.800781 403.878906 551.910156 C 398.765625 546.066406 397.984375 537.851562 402.015625 531.074219 C 417.785156 504.519531 426.148438 474.070312 426.148438 443.019531 C 426.148438 347.910156 348.753906 270.53125 253.664062 270.53125 C 158.570312 270.53125 81.171875 347.910156 81.171875 443.019531 C 81.171875 538.125 158.570312 615.503906 253.660156 615.503906 C 284.714844 615.503906 315.167969 607.15625 341.710938 591.359375 C 348.449219 587.335938 356.695312 588.117188 362.53125 593.226562 C 358.980469 602.777344 361.027344 613.941406 368.671875 621.601562 L 462.859375 715.789062 C 471.648438 724.554688 483.140625 728.929688 494.636719 728.929688 C 506.132812 728.929688 517.628906 724.554688 526.414062 715.789062 C 543.929688 698.265625 543.929688 669.757812 526.414062 652.234375 Z M 432.226562 558.054688 " fill-opacity="1" fill-rule="evenodd"/></g><path fill="#05439a" d="M 253.660156 558.554688 C 189.925781 558.554688 138.105469 506.730469 138.105469 443.019531 C 138.105469 379.304688 189.925781 327.484375 253.660156 327.484375 C 317.394531 327.484375 369.214844 379.3125 369.214844 443.019531 C 369.214844 506.722656 317.335938 558.554688 253.660156 558.554688 Z M 253.660156 307.507812 C 178.910156 307.507812 118.125 368.300781 118.125 443.019531 C 118.125 517.734375 178.910156 578.527344 253.660156 578.527344 C 328.410156 578.527344 389.132812 517.742188 389.132812 443.019531 C 389.132812 368.292969 328.347656 307.507812 253.660156 307.507812 Z M 253.660156 307.507812 " fill-opacity="1" fill-rule="evenodd"/></svg>