<svg xmlns="http://www.w3.org/2000/svg" xmlns:xlink="http://www.w3.org/1999/xlink" width="1080" zoomAndPan="magnify" viewBox="0 0 810 817.92" height="1080" preserveAspectRatio="xMidYMid meet" version="1.0"><defs><clipPath id="a93f3498c3"><path d="M 117.804688 98.621094 L 692.25 98.621094 L 692.25 711.3125 L 117.804688 711.3125 Z M 117.804688 98.621094 " clip-rule="nonzero"/></clipPath></defs><g clip-path="url(#a93f3498c3)"><path fill="#05439a" d="M 526.1875 550.5 L 493.480469 583.207031 L 509.707031 599.429688 L 542.410156 566.726562 Z M 523.292969 613.019531 L 556 580.3125 L 628.246094 652.558594 C 642.625 666.941406 632.574219 692.035156 611.894531 692.035156 L 611.894531 692 C 605.957031 692 600.03125 689.753906 595.542969 685.265625 Z M 363.554688 315.925781 C 305.757812 315.925781 258.910156 362.777344 258.910156 420.570312 C 258.910156 478.367188 305.757812 525.214844 363.554688 525.214844 C 421.347656 525.214844 468.195312 478.367188 468.195312 420.570312 C 468.199219 362.777344 421.347656 315.925781 363.554688 315.925781 Z M 275.972656 332.988281 C 324.34375 284.617188 402.765625 284.617188 451.136719 332.988281 C 499.507812 381.359375 499.507812 459.78125 451.136719 508.152344 C 402.765625 556.523438 324.34375 556.523438 275.972656 508.152344 C 227.601562 459.78125 227.601562 381.359375 275.972656 332.988281 Z M 147.550781 402.164062 L 147.550781 393.742188 C 147.550781 271.589844 234.167969 167.070312 351.34375 141.953125 L 351.34375 134.125 C 351.34375 114.558594 367.320312 98.582031 386.886719 98.582031 L 423.230469 98.582031 C 442.796875 98.582031 458.773438 114.558594 458.773438 134.125 L 458.773438 141.953125 C 575.609375 166.996094 662.570312 271.273438 662.570312 393.742188 L 662.570312 402.164062 C 679.765625 406.722656 692.207031 422.417969 692.207031 440.636719 L 692.207031 451.410156 C 692.207031 473.316406 674.324219 491.199219 652.417969 491.199219 L 512.289062 491.199219 C 508.25 499.691406 503.507812 507.78125 498.132812 515.394531 L 516.125 533.386719 C 519.089844 530.425781 521.554688 528.496094 526.1875 528.496094 L 526.1875 528.460938 C 529.355469 528.460938 532.527344 529.667969 534.945312 532.085938 L 641.832031 638.976562 C 658.316406 655.457031 658.316406 682.371094 641.832031 698.855469 C 633.617188 707.070312 622.761719 711.179688 611.894531 711.179688 L 611.894531 711.214844 C 601.050781 711.214844 590.199219 707.09375 581.953125 698.851562 L 475.066406 591.964844 L 475.082031 591.945312 C 470.210938 587.074219 470.242188 579.269531 475.0625 574.449219 L 476.367188 573.144531 L 458.371094 555.152344 C 392.929688 601.34375 303.710938 593.53125 247.152344 536.972656 C 233.925781 523.746094 222.945312 508.285156 214.816406 491.199219 L 157.699219 491.199219 C 135.792969 491.199219 117.910156 473.3125 117.910156 451.410156 L 117.910156 440.632812 C 117.910156 422.414062 130.355469 406.71875 147.550781 402.164062 Z M 502.539062 546.972656 L 489.953125 559.558594 L 473.492188 543.09375 L 486.078125 530.511719 Z M 519.980469 471.980469 L 652.417969 471.980469 C 663.714844 471.980469 672.992188 462.707031 672.992188 451.410156 L 672.992188 440.636719 C 672.992188 429.339844 663.714844 420.066406 652.417969 420.066406 L 528.167969 420.066406 C 528.207031 438.265625 525.375 455.566406 519.980469 471.980469 Z M 527 400.847656 L 643.351562 400.847656 L 643.351562 393.742188 C 643.351562 314.019531 603.503906 241.6875 540.304688 197.820312 L 530.164062 349.679688 C 529.675781 357.007812 521.542969 360.941406 515.523438 357.1875 C 521.246094 370.898438 525.171875 385.550781 527 400.847656 Z M 511.085938 347.457031 C 498.957031 323.03125 480.914062 302 458.773438 286.269531 L 458.773438 161.566406 C 481.144531 166.769531 502.339844 175.15625 521.851562 186.21875 Z M 439.554688 274.511719 L 439.554688 134.125 C 439.554688 125.167969 432.1875 117.800781 423.230469 117.800781 L 386.886719 117.800781 C 377.925781 117.800781 370.5625 125.167969 370.5625 134.125 L 370.5625 256.101562 C 395.375 257.140625 418.765625 263.671875 439.554688 274.511719 Z M 351.34375 256.402344 L 351.34375 161.566406 C 328.972656 166.769531 307.777344 175.15625 288.265625 186.21875 L 293.949219 271.351562 C 311.601562 263.101562 330.957031 257.894531 351.34375 256.402344 Z M 275.402344 281.523438 C 234.285156 307.644531 206.050781 351.09375 200.109375 400.847656 L 166.769531 400.847656 L 166.769531 393.742188 C 166.769531 314.019531 206.613281 241.691406 269.816406 197.824219 Z M 198.9375 420.066406 L 157.699219 420.066406 C 146.402344 420.066406 137.128906 429.34375 137.128906 440.636719 L 137.128906 451.410156 C 137.128906 462.707031 146.402344 471.980469 157.699219 471.980469 L 207.125 471.980469 C 201.734375 455.566406 198.902344 438.265625 198.9375 420.066406 Z M 466.367188 317.757812 C 523.152344 374.539062 523.152344 466.605469 466.367188 523.386719 C 409.589844 580.164062 317.519531 580.167969 260.738281 523.386719 C 203.957031 466.601562 203.957031 374.539062 260.738281 317.757812 C 317.519531 260.976562 409.585938 260.976562 466.367188 317.757812 Z M 466.367188 317.757812 " fill-opacity="1" fill-rule="evenodd"/></g></svg>