<svg xmlns="http://www.w3.org/2000/svg" xmlns:xlink="http://www.w3.org/1999/xlink" width="1080" zoomAndPan="magnify" viewBox="0 0 810 817.92" height="1080" preserveAspectRatio="xMidYMid meet" version="1.0"><defs><clipPath id="8f4245318f"><path d="M 124.285156 104.730469 L 563 104.730469 L 563 295 L 124.285156 295 Z M 124.285156 104.730469 " clip-rule="nonzero"/></clipPath><clipPath id="505f6a5afc"><path d="M 411 315 L 685.980469 315 L 685.980469 705 L 411 705 Z M 411 315 " clip-rule="nonzero"/></clipPath><clipPath id="c4d78f5068"><path d="M 124.285156 151 L 397 151 L 397 622 L 124.285156 622 Z M 124.285156 151 " clip-rule="nonzero"/></clipPath></defs><path fill="#05439a" d="M 200.085938 556.519531 C 195.953125 556.519531 192.605469 553.167969 192.605469 549.035156 L 192.605469 260.046875 C 192.605469 255.910156 195.953125 252.558594 200.085938 252.558594 C 204.21875 252.558594 207.566406 255.910156 207.566406 260.046875 L 207.566406 549.035156 C 207.566406 553.167969 204.21875 556.519531 200.085938 556.519531 Z M 200.085938 556.519531 " fill-opacity="1" fill-rule="nonzero"/><g clip-path="url(#8f4245318f)"><path fill="#05439a" d="M 554.820312 294.601562 C 550.6875 294.601562 547.339844 291.253906 547.339844 287.117188 L 547.339844 212.628906 L 190.054688 212.675781 C 153.789062 212.675781 124.285156 188.515625 124.285156 158.828125 C 124.285156 129.125 153.789062 104.96875 190.050781 104.96875 L 515.441406 104.96875 C 541.28125 104.96875 562.300781 126 562.300781 151.847656 L 562.300781 287.117188 C 562.300781 291.253906 558.949219 294.601562 554.820312 294.601562 Z M 190.050781 119.941406 C 162.039062 119.941406 139.246094 137.378906 139.246094 158.828125 C 139.246094 180.265625 162.039062 197.699219 190.050781 197.699219 L 547.339844 197.65625 L 547.339844 151.847656 C 547.339844 134.253906 533.027344 119.941406 515.441406 119.941406 Z M 190.050781 119.941406 " fill-opacity="1" fill-rule="nonzero"/></g><path fill="#05439a" d="M 455.769531 319.972656 L 286.597656 319.972656 C 282.464844 319.972656 279.113281 316.625 279.113281 312.488281 C 279.113281 308.351562 282.464844 305 286.597656 305 L 455.769531 305 C 459.902344 305 463.25 308.351562 463.25 312.488281 C 463.25 316.625 459.902344 319.972656 455.769531 319.972656 Z M 455.769531 319.972656 " fill-opacity="1" fill-rule="nonzero"/><g clip-path="url(#505f6a5afc)"><path fill="#05439a" d="M 450.277344 704.898438 C 444.167969 704.898438 437.976562 703.46875 432.195312 700.445312 C 422.949219 695.589844 416.144531 687.429688 413.03125 677.46875 C 409.917969 667.496094 410.871094 656.910156 415.722656 647.667969 L 482.308594 520.613281 C 489.523438 506.84375 489.546875 491.0625 482.359375 478.378906 C 466.066406 449.65625 463.445312 415.832031 475.15625 385.582031 C 490.769531 345.222656 527.175781 318.480469 570.164062 315.804688 C 573.644531 315.558594 576.703125 317.230469 578.5 320.03125 C 580.3125 322.84375 580.480469 326.417969 578.941406 329.375 L 549.785156 384.984375 C 545.511719 393.136719 544.675781 402.457031 547.410156 411.234375 C 550.152344 420.015625 556.152344 427.207031 564.300781 431.46875 L 578.214844 438.777344 C 595.042969 447.589844 615.882812 441.082031 624.699219 424.253906 L 653.851562 368.628906 C 655.398438 365.671875 658.449219 363.761719 661.804688 363.671875 C 665.171875 363.617188 668.285156 365.28125 669.996094 368.148438 C 686.082031 394.789062 690.039062 427.054688 680.839844 456.664062 C 680.839844 456.675781 680.839844 456.675781 680.839844 456.675781 C 678.878906 462.980469 676.320312 469.140625 673.25 475 C 669.980469 481.238281 666.113281 487.164062 661.761719 492.605469 C 643.652344 515.210938 616.660156 529.859375 587.703125 532.78125 C 572.164062 534.355469 558.878906 542.96875 552.148438 555.804688 L 484.976562 683.972656 C 477.996094 697.277344 464.363281 704.898438 450.277344 704.898438 Z M 560.6875 331.945312 C 528.21875 337.535156 501.316406 359.433594 489.109375 390.976562 C 479.023438 417.035156 481.3125 446.195312 495.375 471.003906 C 505.082031 488.125 505.148438 509.273438 495.558594 527.5625 L 428.976562 654.613281 C 425.984375 660.324219 425.394531 666.855469 427.3125 673.003906 C 429.234375 679.152344 433.4375 684.1875 439.144531 687.179688 C 450.925781 693.375 465.542969 688.800781 471.722656 677.019531 L 538.894531 548.855469 C 547.957031 531.554688 565.640625 519.972656 586.195312 517.894531 C 611.179688 515.363281 634.46875 502.742188 650.074219 483.25 C 653.832031 478.550781 657.167969 473.433594 659.996094 468.050781 C 662.648438 462.992188 664.851562 457.664062 666.550781 452.234375 C 673.441406 430.042969 671.765625 406.121094 662.101562 385.132812 L 637.953125 431.199219 C 625.308594 455.335938 595.390625 464.652344 571.265625 452.03125 L 557.355469 444.722656 C 545.664062 438.605469 537.0625 428.285156 533.128906 415.695312 C 529.195312 403.09375 530.402344 389.726562 536.527344 378.035156 Z M 673.695312 454.445312 L 673.808594 454.445312 Z M 657.175781 375.855469 C 657.179688 375.867188 657.1875 375.867188 657.191406 375.878906 C 657.1875 375.867188 657.179688 375.867188 657.175781 375.855469 Z M 657.175781 375.855469 " fill-opacity="1" fill-rule="nonzero"/></g><g clip-path="url(#c4d78f5068)"><path fill="#05439a" d="M 389.011719 621.507812 L 189.5625 621.507812 C 153.566406 621.507812 124.285156 592.214844 124.285156 556.21875 L 124.285156 158.828125 C 124.285156 154.691406 127.632812 151.339844 131.765625 151.339844 C 135.898438 151.339844 139.246094 154.691406 139.246094 158.828125 L 139.246094 556.21875 C 139.246094 583.960938 161.820312 606.535156 189.5625 606.535156 L 389.011719 606.535156 C 393.144531 606.535156 396.492188 609.882812 396.492188 614.019531 C 396.492188 618.15625 393.144531 621.507812 389.011719 621.507812 Z M 389.011719 621.507812 " fill-opacity="1" fill-rule="nonzero"/></g><path fill="#05439a" d="M 445.480469 379.789062 L 286.597656 379.789062 C 282.464844 379.789062 279.113281 376.441406 279.113281 372.304688 C 279.113281 368.167969 282.464844 364.816406 286.597656 364.816406 L 445.480469 364.816406 C 449.609375 364.816406 452.960938 368.167969 452.960938 372.304688 C 452.960938 376.441406 449.609375 379.789062 445.480469 379.789062 Z M 445.480469 379.789062 " fill-opacity="1" fill-rule="nonzero"/><path fill="#05439a" d="M 431.84375 439.617188 L 286.597656 439.617188 C 282.464844 439.617188 279.113281 436.269531 279.113281 432.132812 C 279.113281 427.996094 282.464844 424.644531 286.597656 424.644531 L 431.84375 424.644531 C 435.976562 424.644531 439.324219 427.996094 439.324219 432.132812 C 439.324219 436.269531 435.972656 439.617188 431.84375 439.617188 Z M 431.84375 439.617188 " fill-opacity="1" fill-rule="nonzero"/></svg>