<svg xmlns="http://www.w3.org/2000/svg" xmlns:xlink="http://www.w3.org/1999/xlink" width="1080" zoomAndPan="magnify" viewBox="0 0 810 817.92" height="1080" preserveAspectRatio="xMidYMid meet" version="1.0"><defs><clipPath id="1ca0ca237b"><path d="M 0.308594 0.257812 L 547 0.257812 L 547 343.664062 L 0.308594 343.664062 Z M 0.308594 0.257812 " clip-rule="nonzero"/></clipPath><clipPath id="9c1a8f6f6d"><path d="M 391.9375 56.085938 L 624 56.085938 L 624 288 L 391.9375 288 Z M 391.9375 56.085938 " clip-rule="nonzero"/></clipPath><clipPath id="3cfafb0e14"><rect x="0" width="625" y="0" height="344"/></clipPath></defs><g transform="matrix(1, 0, 0, 1, 93, 233)"><g clip-path="url(#3cfafb0e14)"><path fill="#05439a" d="M 134.722656 93.882812 C 139.457031 90.226562 144.441406 86.683594 149.566406 83.386719 C 160.394531 76.410156 170.96875 92.746094 160.144531 99.753906 C 155.492188 102.742188 150.949219 105.953125 146.65625 109.304688 C 136.410156 117.199219 124.558594 101.71875 134.722656 93.882812 Z M 134.722656 93.882812 " fill-opacity="1" fill-rule="nonzero"/><path fill="#05439a" d="M 65.714844 193.679688 C 73.914062 165.132812 89.449219 138.132812 110.6875 115.648438 C 119.546875 106.257812 133.699219 119.664062 124.863281 129.023438 C 105.785156 149.265625 91.800781 173.464844 84.464844 199.054688 C 80.863281 211.515625 62.144531 206.113281 65.714844 193.679688 Z M 65.714844 193.679688 " fill-opacity="1" fill-rule="nonzero"/><path fill="#05439a" d="M 273.039062 286.472656 C 236.542969 286.472656 176.203125 284.757812 97.203125 279.523438 C 84.296875 278.664062 85.738281 259.113281 98.503906 260.085938 C 178.808594 265.34375 237.207031 266.980469 273.039062 267.007812 C 308.957031 267.007812 367.910156 265.34375 448.078125 260.085938 C 460.980469 259.226562 462.226562 278.664062 449.378906 279.523438 C 370.652344 284.730469 309.785156 286.472656 273.039062 286.472656 Z M 273.039062 286.472656 " fill-opacity="1" fill-rule="nonzero"/><g clip-path="url(#1ca0ca237b)"><path fill="#05439a" d="M 534.554688 267.476562 C 529.183594 262.242188 522.425781 258.617188 515.171875 256.925781 C 515.449219 252.414062 515.613281 247.898438 515.613281 243.414062 C 515.613281 147.851562 451.234375 63.835938 354.703125 31.796875 C 353.953125 14.296875 339.722656 0.257812 322.21875 0.257812 L 227.875 0.257812 C 210.929688 0.257812 197.109375 13.4375 195.558594 30.164062 C 97.449219 60.515625 29.46875 147.078125 29.46875 243.414062 C 29.46875 248.039062 29.605469 252.691406 29.910156 257.316406 C 13.074219 261.996094 0.308594 277.085938 0.308594 294.199219 C 0.308594 314.082031 17.753906 329.78125 42.734375 332.414062 C 120.851562 340.609375 215.914062 343.519531 273.761719 343.519531 C 273.925781 343.519531 274.121094 343.519531 274.3125 343.519531 C 331.46875 343.519531 425.757812 340.609375 503.847656 332.414062 C 528.824219 329.78125 546.269531 314.082031 546.269531 294.199219 C 546.269531 284.453125 542.003906 274.707031 534.554688 267.476562 Z M 501.824219 313.003906 C 424.484375 321.144531 330.996094 324.023438 274.34375 324.023438 C 274.148438 324.023438 273.980469 324.023438 273.789062 324.023438 C 211.898438 324.023438 117.195312 320.617188 44.78125 313.003906 C 32.765625 311.726562 19.832031 305.304688 19.832031 294.171875 C 19.832031 284.285156 29.550781 275.453125 40.628906 275.285156 C 46.359375 275.203125 50.789062 270.164062 50.152344 264.460938 C 49.378906 257.507812 48.992188 250.417969 48.992188 243.386719 C 48.992188 156.878906 109.550781 78.871094 197.472656 49.992188 L 215.914062 193.097656 C 217.574219 205.863281 236.902344 203.371094 235.242188 190.605469 L 214.777344 32.65625 C 215.054688 25.484375 220.84375 19.753906 227.875 19.753906 L 322.191406 19.753906 C 329.253906 19.753906 335.011719 25.484375 335.289062 32.65625 L 314.882812 190.605469 C 313.21875 203.371094 332.546875 206.058594 334.210938 193.097656 L 352.488281 51.625 C 438.800781 81.945312 496.066406 157.625 496.066406 243.386719 C 496.066406 250.421875 495.675781 257.507812 494.902344 264.460938 C 494.238281 270.578125 499.359375 275.617188 504.898438 275.257812 C 510.90625 275.066406 516.722656 277.335938 520.960938 281.433594 C 524.640625 285.007812 526.746094 289.628906 526.746094 294.144531 C 526.773438 305.332031 513.84375 311.757812 501.824219 313.003906 Z M 501.824219 313.003906 " fill-opacity="1" fill-rule="nonzero"/></g><g clip-path="url(#9c1a8f6f6d)"><path fill="#05439a" d="M 623.640625 171.933594 C 623.640625 235.933594 571.789062 287.785156 507.789062 287.785156 C 443.789062 287.785156 391.9375 235.933594 391.9375 171.933594 C 391.9375 107.933594 443.789062 56.082031 507.789062 56.082031 C 571.789062 56.082031 623.640625 107.933594 623.640625 171.933594 Z M 623.640625 171.933594 " fill-opacity="1" fill-rule="nonzero"/></g><path fill="#ffffff" d="M 488.75 235.726562 C 488.636719 235.726562 488.527344 235.726562 488.414062 235.722656 C 484.148438 235.628906 480.121094 233.722656 477.339844 230.484375 L 436.785156 183.253906 C 431.375 176.953125 432.097656 167.457031 438.398438 162.046875 C 444.699219 156.640625 454.191406 157.359375 459.601562 163.660156 L 489.253906 198.191406 L 556.398438 126.714844 C 562.082031 120.660156 571.601562 120.363281 577.652344 126.050781 C 583.707031 131.734375 584.003906 141.253906 578.316406 147.304688 L 499.710938 230.984375 C 496.863281 234.015625 492.894531 235.726562 488.75 235.726562 Z M 488.75 235.726562 " fill-opacity="1" fill-rule="nonzero"/></g></g></svg>