<svg xmlns="http://www.w3.org/2000/svg" xmlns:xlink="http://www.w3.org/1999/xlink" width="1080" zoomAndPan="magnify" viewBox="0 0 810 817.92" height="1080" preserveAspectRatio="xMidYMid meet" version="1.0"><defs><clipPath id="a1155498e1"><path d="M 124.878906 450 L 685.074219 450 L 685.074219 685.035156 L 124.878906 685.035156 Z M 124.878906 450 " clip-rule="nonzero"/></clipPath><clipPath id="6f8c417024"><path d="M 142 124.839844 L 668 124.839844 L 668 442 L 142 442 Z M 142 124.839844 " clip-rule="nonzero"/></clipPath></defs><path fill="#05439a" d="M 594.75 596.757812 C 594.75 615.535156 579.433594 630.855469 560.652344 630.855469 L 482.683594 630.855469 C 470.753906 598.3125 439.832031 576.640625 404.996094 576.640625 C 370.15625 576.640625 339.238281 598.3125 327.308594 630.855469 L 249.335938 630.855469 C 230.558594 630.855469 215.238281 615.535156 215.238281 596.757812 L 215.238281 513.386719 C 215.238281 508.410156 219.300781 504.351562 224.277344 504.351562 L 274.644531 504.351562 C 275.949219 504.351562 277.152344 504.597656 278.28125 505.128906 C 299.597656 514.976562 344.390625 531.460938 404.996094 531.460938 C 465.636719 531.460938 510.390625 514.941406 531.746094 505.128906 C 532.839844 504.597656 534.039062 504.351562 535.347656 504.351562 L 585.714844 504.351562 C 590.691406 504.351562 594.75 508.410156 594.75 513.386719 Z M 585.714844 486.28125 L 535.347656 486.28125 C 531.394531 486.28125 527.617188 487.089844 524.15625 488.714844 C 504.179688 497.925781 462.175781 513.386719 404.996094 513.386719 C 347.816406 513.386719 305.8125 497.925781 285.902344 488.75 C 282.375 487.125 278.597656 486.28125 274.644531 486.28125 L 224.277344 486.28125 C 209.308594 486.28125 197.167969 498.421875 197.167969 513.386719 L 197.167969 596.757812 C 197.167969 625.527344 220.570312 648.925781 249.335938 648.925781 L 329.777344 648.925781 C 336.0625 648.925781 341.601562 644.902344 343.613281 638.972656 C 352.402344 612.5 377.074219 594.710938 404.996094 594.710938 C 432.914062 594.710938 457.585938 612.5 466.375 638.972656 C 468.386719 644.902344 473.929688 648.925781 480.214844 648.925781 L 560.652344 648.925781 C 589.421875 648.925781 612.824219 625.527344 612.824219 596.757812 L 612.824219 513.386719 C 612.824219 498.421875 600.679688 486.28125 585.714844 486.28125 " fill-opacity="1" fill-rule="nonzero"/><g clip-path="url(#a1155498e1)"><path fill="#05439a" d="M 667.039062 549.53125 C 667.039062 554.507812 662.980469 558.566406 658.003906 558.566406 L 648.964844 558.566406 L 648.964844 513.386719 C 648.964844 503.679688 646.707031 494.503906 642.789062 486.28125 L 658.003906 486.28125 C 662.980469 486.28125 667.039062 490.339844 667.039062 495.316406 Z M 630.894531 596.757812 C 630.894531 635.480469 599.375 667 560.652344 667 L 480.214844 667 C 466.128906 667 453.703125 658.035156 449.257812 644.691406 C 442.902344 625.597656 425.113281 612.785156 404.996094 612.785156 C 384.875 612.785156 367.085938 625.597656 360.734375 644.691406 C 356.285156 658.035156 343.863281 667 329.777344 667 L 249.335938 667 C 210.617188 667 179.097656 635.480469 179.097656 596.757812 L 179.097656 513.386719 C 179.097656 488.46875 199.355469 468.207031 224.277344 468.207031 L 274.644531 468.207031 C 281.210938 468.207031 287.527344 469.585938 293.421875 472.300781 C 312.023438 480.914062 351.273438 495.316406 404.996094 495.316406 C 458.71875 495.316406 497.96875 480.914062 516.570312 472.300781 C 522.464844 469.585938 528.78125 468.207031 535.347656 468.207031 L 585.714844 468.207031 C 610.632812 468.207031 630.894531 488.46875 630.894531 513.386719 Z M 151.988281 558.566406 C 147.011719 558.566406 142.953125 554.507812 142.953125 549.53125 L 142.953125 495.316406 C 142.953125 490.339844 147.011719 486.28125 151.988281 486.28125 L 167.199219 486.28125 C 163.285156 494.503906 161.023438 503.679688 161.023438 513.386719 L 161.023438 558.566406 Z M 658.003906 468.207031 L 629.90625 468.207031 C 618.46875 457.054688 602.90625 450.136719 585.714844 450.136719 L 535.347656 450.136719 C 526.132812 450.136719 517.273438 452.078125 508.980469 455.890625 C 491.71875 463.867188 455.257812 477.242188 404.996094 477.242188 C 354.734375 477.242188 318.269531 463.867188 301.011719 455.890625 C 292.714844 452.078125 283.855469 450.136719 274.644531 450.136719 L 224.277344 450.136719 C 207.085938 450.136719 191.519531 457.054688 180.085938 468.207031 L 151.988281 468.207031 C 137.023438 468.207031 124.878906 480.351562 124.878906 495.316406 L 124.878906 549.53125 C 124.878906 564.496094 137.023438 576.640625 151.988281 576.640625 L 161.023438 576.640625 L 161.023438 596.757812 C 161.023438 645.433594 200.664062 685.070312 249.335938 685.070312 L 329.777344 685.070312 C 351.625 685.070312 370.96875 671.128906 377.886719 650.410156 C 381.769531 638.691406 392.675781 630.855469 404.996094 630.855469 C 417.3125 630.855469 428.222656 638.691406 432.101562 650.410156 C 439.023438 671.128906 458.363281 685.070312 480.214844 685.070312 L 560.652344 685.070312 C 609.328125 685.070312 648.964844 645.433594 648.964844 596.757812 L 648.964844 576.640625 L 658.003906 576.640625 C 672.96875 576.640625 685.109375 564.496094 685.109375 549.53125 L 685.109375 495.316406 C 685.109375 480.351562 672.96875 468.207031 658.003906 468.207031 " fill-opacity="1" fill-rule="nonzero"/></g><g clip-path="url(#6f8c417024)"><path fill="#05439a" d="M 161.023438 348.761719 L 179.273438 344.210938 C 179.203125 346.398438 179.097656 348.550781 179.097656 350.738281 L 179.097656 383.53125 C 170.167969 379.152344 164.308594 375.484375 161.023438 373.292969 Z M 301.46875 170.65625 L 289.363281 279.441406 C 288.867188 284.027344 284.988281 287.488281 280.398438 287.488281 L 258.515625 287.488281 C 253.925781 287.488281 250.042969 284.027344 249.546875 279.441406 L 243.019531 220.742188 C 259.183594 200.660156 278.984375 183.609375 301.46875 170.65625 Z M 435.84375 145.207031 L 424.019531 251.34375 L 414.03125 251.34375 L 414.03125 233.273438 L 395.960938 233.273438 L 395.960938 251.34375 L 385.96875 251.34375 L 374.144531 145.207031 C 384.207031 143.722656 394.511719 142.914062 404.996094 142.914062 C 415.480469 142.914062 425.785156 143.722656 435.84375 145.207031 Z M 566.972656 220.742188 L 560.441406 279.441406 C 559.949219 284.027344 556.066406 287.488281 551.476562 287.488281 L 529.59375 287.488281 C 525.003906 287.488281 521.121094 284.027344 520.628906 279.441406 L 508.519531 170.65625 C 531.003906 183.609375 550.804688 200.660156 566.972656 220.742188 Z M 648.964844 348.761719 L 648.964844 373.328125 C 645.71875 375.554688 639.824219 379.261719 630.894531 383.671875 L 630.894531 350.738281 C 630.894531 348.550781 630.789062 346.398438 630.71875 344.210938 Z M 231.582031 281.453125 C 233.101562 295.183594 244.710938 305.558594 258.515625 305.558594 L 280.398438 305.558594 C 294.199219 305.558594 305.8125 295.183594 307.328125 281.453125 L 320.742188 160.84375 C 332.109375 155.761719 344.039062 151.703125 356.355469 148.703125 L 368.003906 253.355469 C 369.027344 262.5 376.757812 269.417969 385.96875 269.417969 L 424.019531 269.417969 C 433.234375 269.417969 440.964844 262.5 441.988281 253.355469 L 453.632812 148.703125 C 465.953125 151.703125 477.882812 155.761719 489.25 160.84375 L 502.660156 281.453125 C 504.179688 295.183594 515.792969 305.558594 529.59375 305.558594 L 551.476562 305.558594 C 565.277344 305.558594 576.890625 295.183594 578.410156 281.453125 L 582.679688 243.050781 C 599.65625 270.898438 610.175781 303.089844 612.363281 337.539062 C 574.703125 352.328125 509.367188 368.8125 404.996094 368.8125 C 300.621094 368.8125 235.289062 352.328125 197.628906 337.539062 C 199.816406 303.089844 210.332031 270.933594 227.3125 243.050781 Z M 197.167969 391.4375 L 197.167969 356.671875 C 237.160156 371.425781 303.234375 386.882812 404.996094 386.882812 C 506.757812 386.882812 572.832031 371.425781 612.824219 356.671875 L 612.824219 391.613281 C 575.972656 406.15625 510.496094 423.027344 404.996094 423.027344 C 299.847656 423.027344 234.160156 406.015625 197.167969 391.4375 Z M 404.996094 441.101562 C 595.914062 441.101562 661.179688 387.023438 663.898438 384.695312 L 667.039062 382.011719 L 667.039062 334.644531 L 629.414062 325.253906 C 616.707031 212.660156 520.945312 124.839844 404.996094 124.839844 C 289.046875 124.839844 193.285156 212.660156 180.578125 325.253906 L 142.953125 334.644531 L 142.953125 382.011719 L 146.09375 384.695312 C 148.777344 387.023438 214.109375 441.101562 404.996094 441.101562 " fill-opacity="1" fill-rule="nonzero"/></g><path fill="#05439a" d="M 414.03125 160.984375 L 395.960938 160.984375 L 395.960938 179.054688 L 414.03125 179.054688 L 414.03125 160.984375 " fill-opacity="1" fill-rule="nonzero"/><path fill="#05439a" d="M 414.03125 197.128906 L 395.960938 197.128906 L 395.960938 215.199219 L 414.03125 215.199219 L 414.03125 197.128906 " fill-opacity="1" fill-rule="nonzero"/></svg>