<svg xmlns="http://www.w3.org/2000/svg" xmlns:xlink="http://www.w3.org/1999/xlink" width="1080" zoomAndPan="magnify" viewBox="0 0 810 817.92" height="1080" preserveAspectRatio="xMidYMid meet" version="1.0"><defs><clipPath id="13f0162de9"><path d="M 430 337 L 691.773438 337 L 691.773438 691.734375 L 430 691.734375 Z M 430 337 " clip-rule="nonzero"/></clipPath><clipPath id="903bb4efcb"><path d="M 118.078125 118.039062 L 577 118.039062 L 577 481 L 118.078125 481 Z M 118.078125 118.039062 " clip-rule="nonzero"/></clipPath><clipPath id="d4f9ef8e8d"><path d="M 329 540 L 491 540 L 491 691.734375 L 329 691.734375 Z M 329 540 " clip-rule="nonzero"/></clipPath><clipPath id="7a56452c07"><path d="M 214 540 L 332 540 L 332 691.734375 L 214 691.734375 Z M 214 540 " clip-rule="nonzero"/></clipPath></defs><path fill="#05439a" d="M 617.628906 509.675781 C 608.761719 509.675781 600.136719 508.890625 591.914062 507.296875 C 565.277344 502.136719 544.75 489.25 534.109375 471.011719 C 521.382812 449.195312 525.179688 423.097656 530.601562 405.046875 C 531.9375 400.601562 536.617188 398.074219 541.066406 399.417969 C 545.511719 400.75 548.03125 405.4375 546.695312 409.882812 C 542.230469 424.742188 538.945312 445.941406 548.628906 462.542969 C 564.527344 489.796875 616.023438 504.414062 674.671875 481.691406 C 679.003906 480.011719 683.867188 482.167969 685.542969 486.492188 C 687.21875 490.820312 685.070312 495.6875 680.742188 497.367188 C 659.742188 505.5 638.042969 509.675781 617.628906 509.675781 Z M 617.628906 509.675781 " fill-opacity="1" fill-rule="nonzero"/><path fill="#05439a" d="M 470.332031 422.058594 C 467.683594 422.058594 465.070312 420.804688 463.4375 418.46875 C 457.242188 409.597656 452.488281 399.746094 449.308594 389.1875 C 444.984375 374.816406 453.699219 359.367188 468.746094 354.75 C 475.625 352.640625 482.789062 353.273438 488.910156 356.539062 C 495.242188 359.921875 499.9375 365.789062 502.128906 373.070312 C 502.953125 375.8125 504.019531 378.476562 505.300781 380.992188 C 507.402344 385.128906 505.75 390.1875 501.613281 392.289062 C 497.472656 394.390625 492.417969 392.742188 490.316406 388.601562 C 488.589844 385.203125 487.148438 381.605469 486.039062 377.914062 C 485.144531 374.953125 483.355469 372.628906 481 371.367188 C 478.820312 370.210938 476.292969 370.019531 473.679688 370.820312 C 467.550781 372.699219 463.761719 378.890625 465.40625 384.34375 C 468.070312 393.191406 472.042969 401.4375 477.214844 408.84375 C 479.875 412.648438 478.945312 417.886719 475.140625 420.542969 C 473.675781 421.570312 471.996094 422.0625 470.335938 422.0625 Z M 470.332031 422.058594 " fill-opacity="1" fill-rule="nonzero"/><path fill="#05439a" d="M 514.359375 380.980469 C 511.121094 380.980469 508.035156 379.097656 506.65625 375.941406 C 501.679688 364.5625 498.847656 352.390625 498.234375 339.761719 C 497.5 324.488281 509.324219 311.46875 524.59375 310.730469 C 531.976562 310.382812 539.085938 312.917969 544.570312 317.898438 C 550.050781 322.875 553.269531 329.691406 553.625 337.089844 C 553.875 342.304688 554.953125 347.363281 556.824219 352.117188 C 558.527344 356.433594 556.402344 361.3125 552.085938 363.015625 C 547.761719 364.714844 542.886719 362.59375 541.1875 358.273438 C 538.640625 351.808594 537.175781 344.949219 536.835938 337.898438 C 536.699219 334.984375 535.429688 332.300781 533.273438 330.339844 C 531.113281 328.378906 528.3125 327.363281 525.40625 327.515625 C 519.390625 327.808594 514.734375 332.9375 515.023438 338.949219 C 515.535156 349.527344 517.902344 359.707031 522.054688 369.203125 C 523.914062 373.457031 521.976562 378.414062 517.722656 380.273438 C 516.628906 380.75 515.484375 380.980469 514.359375 380.980469 Z M 514.359375 380.980469 " fill-opacity="1" fill-rule="nonzero"/><g clip-path="url(#13f0162de9)"><path fill="#05439a" d="M 604.222656 691.863281 C 590.824219 691.863281 576.398438 689.003906 562.308594 683.449219 C 562.222656 683.414062 562.136719 683.378906 562.050781 683.339844 C 529.710938 669.347656 498.941406 646.269531 475.414062 618.363281 C 450.328125 588.605469 435.160156 555.84375 431.558594 523.621094 C 426.398438 477.507812 441.324219 432.355469 473.582031 396.480469 C 506.847656 359.484375 554.101562 337.457031 600.121094 337.457031 C 600.378906 337.457031 600.628906 337.457031 600.882812 337.460938 C 612.5 337.523438 622.128906 343.058594 627.308594 352.648438 C 632.746094 362.714844 632.242188 375.886719 626.058594 385.425781 C 622.117188 391.503906 616.300781 395.628906 609.382812 397.441406 C 622.515625 402.695312 634.800781 410.097656 645.734375 419.472656 C 682.558594 451.039062 691.144531 499.011719 691.863281 533.695312 C 692.714844 574.8125 682.597656 620.914062 664.796875 657.011719 C 655.90625 675.042969 640.320312 686.617188 619.730469 690.476562 C 614.785156 691.402344 609.585938 691.863281 604.222656 691.863281 Z M 568.597656 667.863281 C 613.175781 685.382812 640.160156 668.972656 649.722656 649.578125 C 666.386719 615.785156 675.859375 572.59375 675.058594 534.042969 C 673.886719 477.417969 652.515625 447.421875 634.796875 432.230469 C 613.410156 413.894531 587.222656 404.527344 559.003906 404.925781 C 554.613281 406.902344 550.425781 409.300781 546.472656 412.109375 C 532.589844 421.984375 522.199219 436.359375 516.417969 453.6875 C 514.949219 458.089844 510.195312 460.46875 505.789062 459 C 501.386719 457.53125 499.007812 452.773438 500.476562 448.371094 C 509.691406 420.734375 528.484375 400.121094 552.476562 389.464844 C 553.230469 388.988281 554.058594 388.628906 554.949219 388.410156 C 568.5 382.863281 583.609375 380.433594 599.53125 381.625 C 605.203125 382.054688 609.382812 380.253906 611.957031 376.285156 C 614.851562 371.820312 615.082031 365.382812 612.519531 360.636719 C 610.253906 356.441406 606.308594 354.300781 600.792969 354.269531 C 559.265625 354.050781 516.371094 374.03125 486.078125 407.71875 C 457.074219 439.976562 443.640625 480.476562 448.257812 521.753906 C 451.492188 550.664062 465.324219 580.324219 488.261719 607.53125 C 510.117188 633.453125 538.640625 654.875 568.597656 667.863281 Z M 568.597656 667.863281 " fill-opacity="1" fill-rule="nonzero"/></g><path fill="#05439a" d="M 587.464844 634.832031 C 585.9375 634.832031 584.394531 634.417969 583.007812 633.546875 C 579.074219 631.082031 577.886719 625.894531 580.351562 621.964844 C 587.78125 610.117188 590.632812 599.21875 588.816406 589.566406 C 586.515625 577.316406 575.855469 570.070312 563.511719 561.679688 C 549.789062 552.351562 534.238281 541.78125 531.148438 522.085938 C 528.414062 504.644531 530.914062 487.207031 538.578125 470.261719 C 540.492188 466.035156 545.464844 464.152344 549.699219 466.066406 C 553.925781 467.980469 555.804688 472.957031 553.890625 477.1875 C 547.601562 491.097656 545.535156 505.328125 547.757812 519.484375 C 549.714844 531.976562 560.488281 539.300781 572.960938 547.78125 C 586.453125 556.953125 601.742188 567.34375 605.335938 586.460938 C 607.957031 600.402344 604.339844 615.351562 594.589844 630.894531 C 592.996094 633.4375 590.261719 634.832031 587.464844 634.832031 Z M 587.464844 634.832031 " fill-opacity="1" fill-rule="nonzero"/><path fill="#05439a" d="M 608.222656 586.863281 C 601.875 586.863281 595.5 585.796875 589.308594 583.636719 C 584.929688 582.109375 582.617188 577.316406 584.144531 572.933594 C 585.671875 568.550781 590.464844 566.238281 594.847656 567.769531 C 607.539062 572.199219 621.398438 570.074219 632.882812 561.945312 C 636.671875 559.265625 641.914062 560.160156 644.597656 563.945312 C 647.28125 567.734375 646.382812 572.976562 642.597656 575.660156 C 632.148438 583.058594 620.226562 586.863281 608.222656 586.863281 Z M 608.222656 586.863281 " fill-opacity="1" fill-rule="nonzero"/><path fill="#05439a" d="M 500.984375 552.070312 C 493.523438 552.070312 485.980469 550.679688 478.730469 547.804688 C 474.417969 546.09375 472.304688 541.207031 474.015625 536.894531 C 475.726562 532.578125 480.609375 530.46875 484.925781 532.179688 C 502.316406 539.078125 522.054688 534.125 534.035156 519.855469 C 537.019531 516.300781 542.320312 515.839844 545.875 518.828125 C 549.429688 521.8125 549.890625 527.109375 546.90625 530.664062 C 535.261719 544.53125 518.351562 552.066406 500.980469 552.066406 Z M 500.984375 552.070312 " fill-opacity="1" fill-rule="nonzero"/><g clip-path="url(#903bb4efcb)"><path fill="#05439a" d="M 413.074219 480.589844 L 198.511719 480.589844 C 154.160156 480.589844 118.078125 444.507812 118.078125 400.15625 L 118.078125 198.472656 C 118.078125 154.121094 154.160156 118.039062 198.511719 118.039062 L 496.234375 118.039062 C 540.585938 118.039062 576.667969 154.121094 576.667969 198.472656 L 576.667969 306.214844 C 576.667969 310.855469 572.90625 314.621094 568.265625 314.621094 C 563.621094 314.621094 559.859375 310.855469 559.859375 306.214844 L 559.859375 198.472656 C 559.859375 163.390625 531.320312 134.847656 496.234375 134.847656 L 198.511719 134.847656 C 163.429688 134.847656 134.886719 163.390625 134.886719 198.472656 L 134.886719 400.15625 C 134.886719 435.238281 163.429688 463.78125 198.511719 463.78125 L 413.074219 463.78125 C 417.714844 463.78125 421.480469 467.542969 421.480469 472.183594 C 421.480469 476.824219 417.714844 480.589844 413.074219 480.589844 Z M 413.074219 480.589844 " fill-opacity="1" fill-rule="nonzero"/></g><path fill="#05439a" d="M 419.582031 422.964844 L 202.382812 422.964844 C 177.082031 422.964844 156.496094 402.378906 156.496094 377.078125 L 156.496094 202.34375 C 156.496094 177.042969 177.082031 156.457031 202.382812 156.457031 L 492.363281 156.457031 C 517.667969 156.457031 538.253906 177.039062 538.253906 202.34375 L 538.253906 284.839844 C 538.253906 289.480469 534.492188 293.242188 529.847656 293.242188 C 525.207031 293.242188 521.445312 289.480469 521.445312 284.839844 L 521.445312 202.34375 C 521.445312 186.308594 508.398438 173.261719 492.363281 173.261719 L 202.382812 173.261719 C 186.347656 173.261719 173.300781 186.308594 173.300781 202.34375 L 173.300781 377.078125 C 173.300781 393.113281 186.347656 406.160156 202.382812 406.160156 L 419.582031 406.160156 C 424.222656 406.160156 427.984375 409.921875 427.984375 414.5625 C 427.984375 419.203125 424.222656 422.964844 419.582031 422.964844 Z M 419.582031 422.964844 " fill-opacity="1" fill-rule="nonzero"/><path fill="#05439a" d="M 299.355469 374.945312 C 295.679688 374.945312 292.429688 372.558594 291.332031 369.046875 L 252.234375 243.929688 L 240.277344 291.746094 C 239.34375 295.488281 235.984375 298.113281 232.125 298.113281 L 203.316406 298.113281 C 198.671875 298.113281 194.910156 294.351562 194.910156 289.710938 C 194.910156 285.070312 198.671875 281.308594 203.316406 281.308594 L 225.566406 281.308594 L 243.183594 210.84375 C 244.09375 207.1875 247.328125 204.589844 251.089844 204.480469 C 254.847656 204.371094 258.230469 206.777344 259.355469 210.371094 L 299.292969 338.167969 L 329.738281 239.21875 C 330.824219 235.691406 334.085938 233.289062 337.769531 233.289062 L 337.855469 233.289062 C 341.574219 233.324219 344.828125 235.804688 345.847656 239.382812 L 363.316406 300.515625 L 379.734375 300.515625 L 406.628906 219.824219 C 407.785156 216.359375 411.046875 214.015625 414.699219 214.078125 C 418.351562 214.121094 421.558594 216.519531 422.632812 220.011719 L 451.703125 314.496094 L 464.023438 259.074219 C 464.875 255.230469 468.285156 252.496094 472.226562 252.496094 L 491.433594 252.496094 C 496.074219 252.496094 499.835938 256.257812 499.835938 260.898438 C 499.835938 265.539062 496.074219 269.300781 491.433594 269.300781 L 478.964844 269.300781 L 461.21875 349.15625 C 460.394531 352.878906 457.160156 355.578125 453.351562 355.730469 C 449.53125 355.875 446.105469 353.449219 444.984375 349.804688 L 414.28125 250.015625 L 393.761719 311.578125 C 392.617188 315.007812 389.40625 317.320312 385.789062 317.320312 L 356.976562 317.320312 C 353.226562 317.320312 349.925781 314.835938 348.898438 311.226562 L 337.46875 271.234375 L 307.382812 369.015625 C 306.300781 372.535156 303.054688 374.9375 299.371094 374.945312 L 299.351562 374.945312 Z M 299.355469 374.945312 " fill-opacity="1" fill-rule="nonzero"/><path fill="#05439a" d="M 222.523438 557.417969 C 207.296875 557.417969 194.910156 545.035156 194.910156 529.808594 L 194.910156 510.601562 C 194.910156 505.960938 198.671875 502.199219 203.316406 502.199219 C 207.957031 502.199219 211.71875 505.960938 211.71875 510.601562 L 211.71875 529.808594 C 211.71875 535.765625 216.566406 540.613281 222.523438 540.613281 C 228.480469 540.613281 233.328125 535.765625 233.328125 529.808594 L 233.328125 510.601562 C 233.328125 505.960938 237.089844 502.199219 241.730469 502.199219 C 246.371094 502.199219 250.132812 505.960938 250.132812 510.601562 L 250.132812 529.808594 C 250.132812 545.035156 237.75 557.417969 222.523438 557.417969 Z M 222.523438 557.417969 " fill-opacity="1" fill-rule="nonzero"/><g clip-path="url(#d4f9ef8e8d)"><path fill="#05439a" d="M 433.808594 691.875 C 376.21875 691.875 329.367188 645.023438 329.367188 587.433594 L 329.367188 549.015625 C 329.367188 544.375 333.128906 540.613281 337.769531 540.613281 C 342.410156 540.613281 346.171875 544.375 346.171875 549.015625 L 346.171875 587.433594 C 346.171875 635.753906 385.488281 675.066406 433.808594 675.066406 C 449.21875 675.066406 464.371094 671.015625 477.625 663.347656 C 481.644531 661.023438 486.785156 662.394531 489.105469 666.410156 C 491.429688 670.429688 490.058594 675.570312 486.042969 677.894531 C 470.230469 687.039062 452.167969 691.875 433.808594 691.875 Z M 433.808594 691.875 " fill-opacity="1" fill-rule="nonzero"/></g><g clip-path="url(#7a56452c07)"><path fill="#05439a" d="M 280.144531 691.875 C 243.738281 691.875 214.121094 662.253906 214.121094 625.847656 L 214.121094 549.015625 C 214.121094 544.375 217.882812 540.613281 222.523438 540.613281 C 227.164062 540.613281 230.925781 544.375 230.925781 549.015625 L 230.925781 625.847656 C 230.925781 652.988281 253.007812 675.066406 280.144531 675.066406 C 294.128906 675.066406 307.5 669.089844 316.835938 658.660156 C 319.929688 655.199219 325.242188 654.90625 328.699219 658 C 332.160156 661.097656 332.453125 666.410156 329.359375 669.867188 C 316.839844 683.851562 298.90625 691.875 280.148438 691.875 Z M 280.144531 691.875 " fill-opacity="1" fill-rule="nonzero"/></g><path fill="#05439a" d="M 241.730469 519.003906 L 203.316406 519.003906 C 188.089844 519.003906 175.703125 506.617188 175.703125 491.394531 C 175.703125 476.167969 188.089844 463.78125 203.316406 463.78125 L 241.730469 463.78125 C 256.957031 463.78125 269.339844 476.167969 269.339844 491.394531 C 269.339844 506.617188 256.957031 519.003906 241.730469 519.003906 Z M 203.316406 480.589844 C 197.355469 480.589844 192.511719 485.433594 192.511719 491.394531 C 192.511719 497.351562 197.355469 502.199219 203.316406 502.199219 L 241.730469 502.199219 C 247.6875 502.199219 252.535156 497.351562 252.535156 491.394531 C 252.535156 485.433594 247.6875 480.589844 241.730469 480.589844 Z M 203.316406 480.589844 " fill-opacity="1" fill-rule="nonzero"/><path fill="#05439a" d="M 337.769531 557.417969 C 322.542969 557.417969 310.160156 545.035156 310.160156 529.808594 L 310.160156 510.601562 C 310.160156 505.960938 313.921875 502.199219 318.5625 502.199219 C 323.203125 502.199219 326.964844 505.960938 326.964844 510.601562 L 326.964844 529.808594 C 326.964844 535.765625 331.8125 540.613281 337.769531 540.613281 C 343.726562 540.613281 348.574219 535.765625 348.574219 529.808594 L 348.574219 510.601562 C 348.574219 505.960938 352.335938 502.199219 356.976562 502.199219 C 361.617188 502.199219 365.382812 505.960938 365.382812 510.601562 L 365.382812 529.808594 C 365.382812 545.035156 352.996094 557.417969 337.769531 557.417969 Z M 337.769531 557.417969 " fill-opacity="1" fill-rule="nonzero"/><path fill="#05439a" d="M 356.976562 519.003906 L 318.5625 519.003906 C 303.335938 519.003906 290.949219 506.617188 290.949219 491.394531 C 290.949219 476.167969 303.335938 463.78125 318.5625 463.78125 L 356.976562 463.78125 C 372.203125 463.78125 384.589844 476.167969 384.589844 491.394531 C 384.589844 506.617188 372.203125 519.003906 356.976562 519.003906 Z M 318.5625 480.589844 C 312.605469 480.589844 307.757812 485.433594 307.757812 491.394531 C 307.757812 497.351562 312.605469 502.199219 318.5625 502.199219 L 356.976562 502.199219 C 362.9375 502.199219 367.78125 497.351562 367.78125 491.394531 C 367.78125 485.433594 362.9375 480.589844 356.976562 480.589844 Z M 318.5625 480.589844 " fill-opacity="1" fill-rule="nonzero"/></svg>