<svg xmlns="http://www.w3.org/2000/svg" xmlns:xlink="http://www.w3.org/1999/xlink" width="1080" zoomAndPan="magnify" viewBox="0 0 810 817.92" height="1080" preserveAspectRatio="xMidYMid meet" version="1.0"><defs><clipPath id="d8b8a3f40d"><path d="M 142.457031 142.417969 L 667.40625 142.417969 L 667.40625 667.367188 L 142.457031 667.367188 Z M 142.457031 142.417969 " clip-rule="nonzero"/></clipPath></defs><g clip-path="url(#d8b8a3f40d)"><path fill="#05439a" d="M 204.222656 402.738281 L 303.828125 402.738281 C 314.058594 402.738281 322.433594 411.113281 322.433594 421.34375 L 322.433594 437.480469 C 322.433594 447.746094 314.058594 456.085938 303.828125 456.085938 L 298.601562 456.085938 L 298.601562 511.457031 L 336.996094 579.105469 L 336.996094 557.457031 C 336.996094 553.089844 340.5625 549.535156 344.917969 549.535156 L 407.667969 549.535156 L 407.667969 517.011719 L 344.917969 517.011719 C 340.5625 517.011719 336.996094 513.445312 336.996094 509.089844 L 336.996094 468.804688 C 336.996094 464.4375 340.5625 460.882812 344.917969 460.882812 L 366.894531 460.882812 L 366.894531 429.671875 C 366.894531 425.28125 370.460938 421.75 374.816406 421.75 L 508.710938 421.75 C 513.078125 421.75 516.632812 425.28125 516.632812 429.671875 L 516.632812 460.882812 L 538.03125 460.882812 L 552.300781 458.734375 C 600.703125 451.546875 625.925781 398.8125 603.078125 357.042969 C 588.738281 330.824219 559.804688 317.449219 531.195312 322.007812 L 512.71875 354.054688 L 521.792969 359.285156 C 525.574219 361.46875 526.863281 366.277344 524.710938 370.058594 L 509.253906 396.777344 C 507.105469 400.554688 502.261719 401.878906 498.503906 399.695312 L 403.265625 344.710938 C 399.484375 342.523438 398.160156 337.714844 400.347656 333.9375 L 415.769531 307.21875 C 417.953125 303.4375 422.761719 302.113281 426.542969 304.296875 L 435.652344 309.5625 L 492.371094 211.367188 C 494.554688 207.554688 499.398438 206.265625 503.144531 208.449219 L 508.28125 211.402344 L 519.765625 191.519531 C 521.917969 187.761719 526.761719 186.449219 530.515625 188.632812 L 570 211.414062 C 573.78125 213.597656 575.070312 218.441406 572.886719 222.1875 L 561.398438 242.070312 L 566.539062 245.058594 C 570.417969 247.296875 571.675781 252.175781 569.164062 256.25 L 562.972656 267 C 645.957031 280.726562 691.988281 371.03125 654.046875 446.476562 C 635.636719 483.074219 600.929688 508.457031 559.542969 514.160156 L 538.597656 517.011719 L 475.847656 517.011719 L 475.847656 549.535156 L 538.597656 549.535156 C 542.953125 549.535156 546.519531 553.097656 546.519531 557.457031 L 546.519531 618.757812 L 577.21875 618.757812 C 581.609375 618.757812 585.140625 622.289062 585.140625 626.679688 L 585.140625 659.335938 C 585.140625 663.695312 581.609375 667.257812 577.21875 667.257812 L 170.476562 667.257812 C 146.871094 667.257812 135.316406 642.011719 147.1875 621.132812 L 209.449219 511.457031 L 209.449219 456.085938 C 202.390625 456.085938 196.878906 456.433594 191.074219 450.628906 C 187.699219 447.257812 185.617188 442.605469 185.617188 437.480469 L 185.617188 421.34375 C 185.617188 411.113281 193.957031 402.738281 204.222656 402.738281 Z M 303.828125 418.59375 L 204.222656 418.59375 C 202.71875 418.59375 201.460938 419.871094 201.460938 421.355469 L 201.460938 437.492188 C 201.460938 438.996094 202.71875 440.253906 204.222656 440.253906 L 303.828125 440.253906 C 305.300781 440.253906 306.589844 438.996094 306.589844 437.492188 L 306.589844 421.355469 C 306.578125 419.871094 305.300781 418.59375 303.828125 418.59375 Z M 215.449219 532.855469 C 217.246094 532.242188 219.105469 531.472656 221.0625 530.511719 C 235.171875 523.675781 251.820312 523.675781 265.941406 530.511719 C 274.542969 534.6875 283.515625 535.648438 292.34375 532.4375 L 284.09375 517.90625 C 283.257812 516.648438 282.746094 515.109375 282.746094 513.480469 L 282.746094 456.097656 L 225.257812 456.097656 L 225.257812 513.480469 C 225.257812 514.828125 224.910156 516.140625 224.230469 517.394531 Z M 300.230469 546.320312 C 286.730469 552.058594 272.257812 551.128906 259.074219 544.746094 C 249.386719 540.027344 237.640625 540.027344 227.929688 544.746094 C 220.621094 548.3125 213.660156 550.292969 205.671875 550.078125 L 160.925781 628.929688 C 155.574219 638.355469 158.359375 651.414062 170.488281 651.414062 L 337.550781 651.414062 C 349.707031 651.414062 352.464844 638.324219 347.148438 628.929688 Z M 352.839844 607.011719 L 359.515625 618.746094 L 530.6875 618.746094 L 530.6875 565.367188 L 352.839844 565.367188 Z M 365.355469 634.597656 C 366.035156 640.371094 365.199219 646.242188 362.820312 651.40625 L 569.308594 651.40625 L 569.308594 634.597656 Z M 252.25 142.621094 C 279.804688 142.621094 291.449219 178.007812 269.222656 194.394531 L 285.328125 227.496094 C 298.417969 226.046875 310.832031 230.992188 319.296875 240.203125 L 355.542969 230.480469 C 354.867188 204.660156 386.210938 191.191406 404.464844 209.433594 C 422.492188 227.460938 409.660156 258.355469 384.1875 258.355469 C 374.375 258.355469 365.546875 253.386719 360.355469 245.589844 L 327.695312 254.347656 C 332.347656 268.019531 329.234375 282.957031 319.898438 293.617188 L 330.863281 312.640625 C 348.382812 309.71875 364.324219 323.164062 364.324219 340.894531 C 364.324219 366.335938 333.433594 379.203125 315.40625 361.164062 C 303.761719 349.519531 304.304688 330.460938 316.59375 319.496094 L 307.222656 303.269531 C 297.796875 307.851562 286.785156 308.53125 276.78125 305.101562 L 254.523438 325.4375 C 264.753906 344.359375 251.027344 367.679688 229.277344 367.679688 C 203.839844 367.679688 191.003906 336.789062 209 318.761719 C 218.109375 309.683594 232.21875 307.726562 243.445312 314.109375 L 262.625 296.59375 C 255.371094 289.894531 250.664062 280.558594 249.894531 270.15625 L 227.726562 270.15625 C 221.730469 290.980469 195.394531 297.996094 179.902344 282.503906 C 161.910156 264.511719 174.742188 233.582031 200.183594 233.582031 C 213.105469 233.582031 224.242188 242.21875 227.738281 254.304688 L 251.953125 254.304688 C 255.136719 245 261.640625 237.238281 270.105469 232.429688 L 254.261719 199.871094 C 237.652344 201.027344 223.5625 187.910156 223.5625 171.285156 C 223.5625 155.453125 236.394531 142.621094 252.25 142.621094 Z M 261.289062 162.222656 C 253.246094 154.175781 239.417969 159.914062 239.417969 171.296875 C 239.417969 182.683594 253.246094 188.398438 261.289062 180.339844 C 266.292969 175.347656 266.292969 167.222656 261.289062 162.222656 Z M 209.222656 253.195312 C 201.203125 245.148438 187.351562 250.851562 187.351562 262.234375 C 187.351562 273.621094 201.179688 279.367188 209.222656 271.3125 C 214.238281 266.320312 214.238281 258.207031 209.222656 253.195312 Z M 238.351562 329.964844 C 230.308594 321.917969 216.476562 327.65625 216.476562 339.039062 C 216.476562 350.425781 230.308594 356.140625 238.351562 348.082031 C 243.355469 343.078125 243.355469 334.964844 238.351562 329.964844 Z M 344.726562 331.855469 C 336.667969 323.808594 322.851562 329.511719 322.851562 340.894531 C 322.851562 352.28125 336.679688 358.027344 344.726562 349.972656 C 349.726562 344.96875 349.726562 336.855469 344.726562 331.855469 Z M 393.261719 220.671875 C 385.203125 212.625 371.386719 218.328125 371.386719 229.710938 C 371.386719 241.097656 385.214844 246.8125 393.261719 238.789062 C 398.265625 233.785156 398.265625 225.671875 393.261719 220.671875 Z M 306.90625 250.183594 C 291.730469 235.007812 265.660156 245.792969 265.660156 267.25 C 265.660156 288.703125 291.742188 299.523438 306.90625 284.347656 C 316.332031 274.910156 316.332031 259.609375 306.90625 250.183594 Z M 382.738281 460.871094 L 500.777344 460.871094 L 500.777344 437.582031 L 382.738281 437.582031 Z M 546.53125 475.59375 L 546.53125 500.003906 L 557.371094 498.5 C 632.976562 488.042969 674.867188 404.832031 638.273438 337.886719 C 620.753906 305.835938 589.703125 285.625 554.453125 281.746094 L 540.816406 305.351562 C 583.773438 304.648438 620.6875 335.792969 626.628906 378.554688 C 631.402344 413.261719 613.953125 448.039062 583.195312 464.84375 C 569.785156 472.1875 560.515625 473.445312 546.53125 475.59375 Z M 460.015625 517 L 423.511719 517 L 423.511719 549.523438 L 460.015625 549.523438 Z M 530.675781 476.714844 C 471.402344 476.714844 412.113281 476.714844 352.839844 476.714844 L 352.839844 501.15625 L 530.675781 501.15625 Z M 417.953125 335 L 499.523438 382.085938 L 507.09375 368.992188 L 497.984375 363.730469 L 497.949219 363.765625 L 425.492188 321.90625 Z M 521.949219 219.289062 L 547.707031 234.171875 L 555.277344 221.125 L 529.488281 206.242188 Z M 551.78125 254.765625 L 502.058594 226.058594 L 449.324219 317.414062 L 499.046875 346.125 L 519.132812 311.382812 C 519.257812 311.089844 519.417969 310.839844 519.585938 310.578125 L 543.035156 269.964844 C 543.191406 269.648438 543.382812 269.320312 543.578125 269.003906 Z M 551.78125 254.765625 " fill-opacity="1" fill-rule="nonzero"/></g></svg>