<svg xmlns="http://www.w3.org/2000/svg" xmlns:xlink="http://www.w3.org/1999/xlink" width="1080" zoomAndPan="magnify" viewBox="0 0 810 817.92" height="1080" preserveAspectRatio="xMidYMid meet" version="1.0"><defs><clipPath id="a2650c2a2e"><path d="M 140.800781 140.761719 L 669.5 140.761719 L 669.5 669.460938 L 140.800781 669.460938 Z M 140.800781 140.761719 " clip-rule="nonzero"/></clipPath></defs><path fill="#05439a" d="M 446.484375 553.855469 L 429.96875 553.855469 L 429.96875 570.375 C 446.484375 570.375 429.96875 570.375 446.484375 570.375 L 446.484375 553.855469 " fill-opacity="1" fill-rule="nonzero"/><path fill="#05439a" d="M 413.449219 553.855469 L 396.933594 553.855469 L 396.933594 570.375 C 413.449219 570.375 396.933594 570.375 413.449219 570.375 L 413.449219 553.855469 " fill-opacity="1" fill-rule="nonzero"/><path fill="#05439a" d="M 347.347656 297.726562 L 363.867188 297.726562 L 363.867188 264.691406 L 396.933594 264.691406 L 396.933594 248.171875 L 363.867188 248.171875 L 363.867188 215.109375 L 347.347656 215.109375 L 347.347656 248.171875 L 314.3125 248.171875 L 314.3125 264.691406 L 347.347656 264.691406 L 347.347656 297.726562 " fill-opacity="1" fill-rule="nonzero"/><path fill="#05439a" d="M 218.785156 410.574219 L 205.957031 436.253906 L 193.132812 410.574219 L 178.363281 417.960938 L 196.738281 454.71875 L 178.363281 491.449219 L 193.132812 498.835938 L 205.957031 473.183594 L 218.785156 498.835938 L 233.582031 491.449219 L 215.203125 454.71875 L 233.582031 417.960938 L 218.785156 410.574219 " fill-opacity="1" fill-rule="nonzero"/><path fill="#05439a" d="M 455.703125 440.722656 L 443.765625 410.917969 L 428.421875 417.074219 L 447.429688 464.566406 L 447.429688 496.027344 L 463.949219 496.027344 L 463.949219 464.566406 L 482.957031 417.074219 L 467.613281 410.917969 L 455.703125 440.722656 " fill-opacity="1" fill-rule="nonzero"/><path fill="#05439a" d="M 404.261719 454.71875 L 379.46875 454.71875 L 379.46875 442.324219 C 379.46875 435.480469 385.023438 429.929688 391.863281 429.929688 C 398.707031 429.929688 404.261719 435.480469 404.261719 442.324219 Z M 391.863281 413.410156 C 375.917969 413.410156 362.949219 426.378906 362.949219 442.324219 L 362.949219 496.027344 L 379.46875 496.027344 L 379.46875 471.238281 L 404.261719 471.238281 L 404.261719 496.027344 L 420.777344 496.027344 L 420.777344 442.324219 C 420.777344 426.378906 407.808594 413.410156 391.863281 413.410156 " fill-opacity="1" fill-rule="nonzero"/><path fill="#05439a" d="M 380.414062 553.855469 L 363.867188 553.855469 L 363.867188 570.375 C 380.414062 570.375 363.867188 570.375 380.414062 570.375 L 380.414062 553.855469 " fill-opacity="1" fill-rule="nonzero"/><g clip-path="url(#a2650c2a2e)"><path fill="#05439a" d="M 653.0625 520.792969 L 157.320312 520.792969 L 157.320312 248.171875 C 157.320312 243.59375 161.042969 239.898438 165.59375 239.898438 L 241.140625 239.898438 C 240.367188 245.308594 239.9375 250.804688 239.9375 256.417969 C 239.9375 320.199219 291.839844 372.101562 355.621094 372.101562 C 384.535156 372.101562 411.015625 361.394531 431.3125 343.757812 L 471.679688 372.472656 C 471.476562 373.847656 471.421875 375.222656 471.648438 376.625 C 472.308594 380.890625 474.855469 384.839844 478.605469 387.53125 L 590.253906 467.03125 C 593.402344 469.261719 596.953125 470.351562 600.359375 470.351562 C 604.796875 470.351562 609.03125 468.488281 611.722656 464.855469 L 633.882812 435.253906 C 636.058594 432.363281 636.914062 428.699219 636.34375 425.003906 C 635.714844 420.765625 633.136719 416.757812 629.386719 414.097656 L 517.738281 334.597656 C 512.445312 330.820312 506.03125 330.332031 501.078125 332.824219 L 460.914062 304.226562 C 467.554688 289.652344 471.277344 273.449219 471.277344 256.417969 C 471.277344 250.804688 470.847656 245.308594 470.074219 239.898438 L 644.789062 239.898438 C 649.339844 239.898438 653.0625 243.59375 653.0625 248.171875 Z M 653.0625 578.648438 C 653.0625 583.199219 649.339844 586.921875 644.789062 586.921875 L 165.59375 586.921875 C 161.042969 586.921875 157.320312 583.199219 157.320312 578.648438 L 157.320312 537.339844 L 653.0625 537.339844 Z M 347.949219 652.992188 C 356.882812 638.996094 362.351562 621.847656 363.609375 603.4375 L 446.773438 603.4375 C 448.03125 621.847656 453.5 638.996094 462.429688 652.992188 Z M 490.199219 372.445312 L 508.351562 348.195312 L 619.222656 427.238281 L 599.644531 453.429688 L 488.738281 374.390625 Z M 480.152344 358.273438 L 443.136719 331.90625 C 446.714844 327.785156 449.976562 323.40625 452.925781 318.824219 L 489.941406 345.191406 Z M 257.886719 239.898438 C 258.347656 237.09375 258.917969 234.347656 259.605469 231.625 C 260.320312 228.820312 261.210938 226.074219 262.152344 223.382812 C 275.808594 184.90625 312.539062 157.28125 355.621094 157.28125 C 398.707031 157.28125 435.4375 184.90625 449.0625 223.382812 C 450.035156 226.074219 450.894531 228.820312 451.609375 231.625 C 452.324219 234.347656 452.898438 237.09375 453.355469 239.898438 C 454.273438 245.28125 454.757812 250.777344 454.757812 256.417969 C 454.757812 269.871094 452.039062 282.726562 447.171875 294.433594 C 440.703125 309.980469 430.367188 323.492188 417.402344 333.855469 C 400.453125 347.425781 378.980469 355.554688 355.621094 355.554688 C 300.945312 355.554688 256.484375 311.097656 256.484375 256.417969 C 256.484375 250.777344 256.972656 245.28125 257.886719 239.898438 Z M 644.789062 223.382812 L 466.4375 223.382812 C 452.183594 175.660156 407.925781 140.734375 355.621094 140.734375 C 303.320312 140.734375 259.035156 175.660156 244.777344 223.382812 L 165.59375 223.382812 C 151.910156 223.382812 140.800781 234.488281 140.800781 248.171875 L 140.800781 578.648438 C 140.800781 592.304688 151.910156 603.4375 165.59375 603.4375 L 347.003906 603.4375 C 345.460938 622.964844 338.417969 640.511719 327.136719 652.992188 L 306.039062 652.992188 L 306.039062 669.511719 L 504.34375 669.511719 L 504.34375 652.992188 L 483.242188 652.992188 C 471.964844 640.511719 464.921875 622.964844 463.375 603.4375 L 644.789062 603.4375 C 658.441406 603.4375 669.578125 592.304688 669.578125 578.648438 L 669.578125 248.171875 C 669.578125 234.488281 658.441406 223.382812 644.789062 223.382812 " fill-opacity="1" fill-rule="nonzero"/></g><path fill="#05439a" d="M 240.882812 462.964844 L 273.917969 462.964844 L 273.917969 446.445312 L 240.882812 446.445312 L 240.882812 462.964844 " fill-opacity="1" fill-rule="nonzero"/><path fill="#05439a" d="M 323.503906 446.445312 L 306.984375 446.445312 L 306.984375 429.929688 L 323.503906 429.929688 C 328.054688 429.929688 331.777344 433.648438 331.777344 438.203125 C 331.777344 442.753906 328.054688 446.445312 323.503906 446.445312 Z M 323.503906 413.410156 L 290.464844 413.410156 L 290.464844 496.027344 L 306.984375 496.027344 L 306.984375 462.964844 L 322.757812 462.964844 C 326.363281 465.710938 331.777344 480.457031 331.777344 487.753906 L 331.777344 496.027344 L 348.292969 496.027344 L 348.292969 487.753906 C 348.292969 481.828125 345.34375 467.542969 339.105469 457.4375 C 344.714844 452.886719 348.292969 445.960938 348.292969 438.203125 C 348.292969 424.519531 337.15625 413.410156 323.503906 413.410156 " fill-opacity="1" fill-rule="nonzero"/></svg>