<svg xmlns="http://www.w3.org/2000/svg" xmlns:xlink="http://www.w3.org/1999/xlink" width="1080" zoomAndPan="magnify" viewBox="0 0 810 817.92" height="1080" preserveAspectRatio="xMidYMid meet" version="1.0"><defs><clipPath id="77bceaf99d"><path d="M 184.625 120 L 625.582031 120 L 625.582031 689.9375 L 184.625 689.9375 Z M 184.625 120 " clip-rule="nonzero"/></clipPath></defs><g clip-path="url(#77bceaf99d)"><path fill="#05439a" d="M 276.011719 186.800781 L 276.011719 667.082031 C 276.011719 679.667969 265.808594 689.875 253.21875 689.875 L 207.523438 689.875 C 194.933594 689.875 184.730469 679.667969 184.730469 667.082031 L 184.730469 164.351562 C 184.730469 152.601562 189.398438 141.332031 197.707031 133.023438 C 206.015625 124.714844 217.285156 120.042969 229.035156 120.042969 L 231.707031 120.042969 C 243.457031 120.042969 254.726562 124.714844 263.035156 133.023438 C 271.261719 141.25 275.917969 152.378906 276.011719 164.007812 L 512.394531 164.007812 C 533.988281 164.007812 551.496094 181.515625 551.496094 203.109375 L 551.496094 204.679688 C 551.496094 215.054688 547.375 224.996094 540.042969 232.328125 C 536.59375 235.785156 532.558594 238.523438 528.179688 240.453125 C 534.40625 247.621094 539.363281 256.488281 542.390625 266.578125 L 602.472656 266.578125 C 615.0625 266.578125 625.265625 276.78125 625.265625 289.371094 L 625.265625 476.023438 C 625.265625 510.980469 611.382812 544.507812 586.65625 569.226562 C 567.898438 587.992188 544.058594 600.507812 518.382812 605.457031 L 518.382812 667.082031 C 518.382812 679.667969 508.179688 689.875 495.589844 689.875 L 481.414062 689.875 C 468.824219 689.875 458.621094 679.667969 458.621094 667.082031 L 458.621094 605.457031 C 432.9375 600.507812 409.101562 587.992188 390.339844 569.226562 C 365.621094 544.507812 351.730469 510.980469 351.730469 476.023438 L 351.730469 289.371094 C 351.730469 276.78125 361.933594 266.578125 374.523438 266.578125 L 434.605469 266.578125 C 442.785156 239.335938 465 220.992188 488.5 220.992188 L 512.394531 220.992188 C 516.71875 220.992188 520.863281 219.269531 523.921875 216.210938 C 526.980469 213.152344 528.703125 209.007812 528.703125 204.679688 L 528.703125 203.109375 C 528.703125 194.105469 521.398438 186.800781 512.394531 186.800781 Z M 253.21875 164.351562 C 253.21875 158.640625 250.953125 153.167969 246.917969 149.140625 C 242.886719 145.105469 237.414062 142.835938 231.707031 142.835938 L 229.035156 142.835938 C 223.332031 142.835938 217.859375 145.105469 213.824219 149.140625 C 209.789062 153.167969 207.523438 158.640625 207.523438 164.351562 L 207.523438 667.082031 L 253.21875 667.082031 Z M 481.414062 607.816406 L 481.414062 667.082031 L 495.589844 667.082031 L 495.589844 607.816406 C 494.878906 607.828125 494.171875 607.835938 493.457031 607.835938 L 483.542969 607.835938 C 482.832031 607.835938 482.117188 607.828125 481.414062 607.816406 Z M 602.222656 483.390625 L 374.773438 483.390625 C 376.554688 509.617188 387.757812 534.410156 406.457031 553.109375 C 426.902344 573.554688 454.632812 585.042969 483.542969 585.042969 L 493.457031 585.042969 C 522.371094 585.042969 550.09375 573.554688 570.546875 553.109375 C 589.246094 534.410156 600.449219 509.617188 602.222656 483.390625 Z M 602.472656 460.597656 L 602.472656 289.371094 L 374.523438 289.371094 L 374.523438 334.957031 L 419.527344 334.957031 C 425.820312 334.957031 430.925781 340.0625 430.925781 346.355469 C 430.925781 352.644531 425.820312 357.75 419.527344 357.75 L 374.523438 357.75 L 374.523438 391.941406 L 419.527344 391.941406 C 425.820312 391.941406 430.925781 397.046875 430.925781 403.335938 C 430.925781 409.628906 425.820312 414.734375 419.527344 414.734375 L 374.523438 414.734375 L 374.523438 460.597656 Z M 518.273438 266.578125 L 458.730469 266.578125 C 464.683594 252.953125 475.796875 243.785156 488.5 243.785156 C 501.207031 243.785156 512.3125 252.953125 518.273438 266.578125 Z M 518.273438 266.578125 " fill-opacity="1" fill-rule="evenodd"/></g></svg>