<svg xmlns="http://www.w3.org/2000/svg" xmlns:xlink="http://www.w3.org/1999/xlink" width="1080" zoomAndPan="magnify" viewBox="0 0 810 817.92" height="1080" preserveAspectRatio="xMidYMid meet" version="1.0"><defs><clipPath id="d1f9f16bf1"><path d="M 189.121094 139.261719 L 621 139.261719 L 621 670.960938 L 189.121094 670.960938 Z M 189.121094 139.261719 " clip-rule="nonzero"/></clipPath></defs><g clip-path="url(#d1f9f16bf1)"><path fill="#05439a" d="M 620.714844 662.425781 L 593.503906 458.738281 C 593.25 434.203125 574.363281 414.46875 546.34375 409.542969 C 543.359375 409.015625 536.136719 407.109375 527.769531 404.902344 C 517.746094 402.253906 505.269531 398.960938 493.222656 396.203125 C 484.820312 394.277344 462.511719 389.164062 460.097656 383.363281 C 459.570312 382.09375 460.765625 379.863281 461.523438 378.640625 C 464.753906 373.445312 469.644531 373.148438 480.046875 373.722656 C 488.320312 374.179688 497.699219 374.695312 504.601562 368.023438 C 509.988281 362.820312 512.378906 354.703125 512.132812 342.460938 L 512.125 342.171875 C 512.109375 341.480469 512.074219 339.945312 512.148438 338.839844 C 515.808594 336.019531 517.667969 332.683594 517.679688 328.898438 C 517.6875 325.441406 516.148438 322.6875 514.074219 320.460938 C 517.015625 318.984375 519.410156 316.886719 520.363281 313.640625 C 520.804688 312.148438 521.417969 308.417969 518.308594 304.605469 C 518.242188 304.414062 518.175781 304.230469 518.105469 304.046875 C 517.441406 302.355469 517.765625 301.667969 517.90625 301.375 C 518.265625 300.617188 520.0625 297.949219 528.136719 295.34375 C 532.488281 293.9375 535.734375 290.824219 537.042969 286.804688 C 538.421875 282.578125 537.566406 277.882812 534.710938 273.941406 C 523.902344 258.953125 522.367188 257.132812 513.585938 247.402344 C 510.609375 244.101562 510.851562 243.4375 512.742188 238.28125 C 514.835938 232.566406 517.996094 223.933594 514.007812 210.507812 C 503.175781 174.121094 474.164062 148.964844 434.40625 141.492188 C 388.816406 132.925781 339.375 149.589844 314.15625 182.019531 C 292.378906 210.023438 290.292969 246.777344 308.28125 285.511719 C 313.476562 296.714844 319.257812 306.867188 324.84375 316.679688 C 333.644531 332.140625 341.960938 346.738281 345.960938 362.28125 C 348.121094 370.695312 347.5 377.292969 344.066406 382.449219 C 335.226562 395.710938 307.875 399.683594 285.898438 402.871094 C 276.6875 404.207031 267.992188 405.472656 260.707031 407.296875 C 231.683594 414.554688 214.277344 432.890625 214.050781 456.402344 L 189.273438 660.15625 C 189.023438 662.214844 189.664062 664.28125 191.03125 665.835938 C 192.402344 667.394531 194.371094 668.289062 196.445312 668.300781 L 613.476562 670.65625 L 613.515625 670.65625 C 615.605469 670.65625 617.589844 669.757812 618.972656 668.191406 C 620.359375 666.609375 620.996094 664.507812 620.71875 662.425781 Z M 416.730469 460.789062 L 434.320312 478.789062 C 432.816406 487.117188 431.574219 496.179688 430.625 505.785156 L 409.074219 484.386719 C 406.238281 481.574219 401.667969 481.574219 398.832031 484.386719 L 377.304688 505.761719 C 376.355469 496.167969 375.113281 487.117188 373.609375 478.792969 L 391.203125 460.789062 C 392.53125 459.433594 393.273438 457.609375 393.273438 455.710938 L 393.273438 342.058594 C 393.273438 337.855469 395.328125 334.472656 399.050781 332.542969 C 418.695312 322.390625 461.757812 315.550781 493.609375 312.875 C 493.371094 313.171875 493.148438 313.480469 492.957031 313.8125 C 491.429688 316.5 491.140625 320.921875 495.355469 324.539062 C 496.460938 325.492188 497.78125 326.335938 499.179688 327.234375 C 499.777344 327.621094 500.609375 328.152344 501.394531 328.699219 C 499.78125 330.117188 498.839844 331.949219 498.292969 333.898438 C 481.417969 335.054688 437.320312 338.753906 419.027344 346.726562 C 416.375 347.878906 414.660156 350.496094 414.660156 353.386719 L 414.660156 455.710938 C 414.660156 457.609375 415.40625 459.429688 416.730469 460.789062 Z M 204.683594 653.8125 L 228.527344 457.734375 C 228.5625 457.445312 228.582031 457.152344 228.582031 456.859375 C 228.582031 432.898438 253.515625 424.074219 264.238281 421.394531 C 264.238281 421.394531 264.238281 421.394531 264.242188 421.394531 C 270.808594 419.75 279.152344 418.539062 287.984375 417.257812 C 314.113281 413.464844 343.730469 409.167969 356.160156 390.507812 C 361.933594 381.84375 363.238281 371.132812 360.039062 358.664062 C 355.550781 341.238281 346.769531 325.816406 337.476562 309.492188 C 332.035156 299.933594 326.40625 290.054688 321.464844 279.394531 C 305.65625 245.359375 307.097656 214.773438 325.628906 190.941406 C 347.640625 162.632812 391.273438 148.171875 431.722656 155.773438 C 451.832031 159.554688 487.453125 172.230469 500.078125 214.652344 C 502.695312 223.457031 500.945312 228.230469 499.097656 233.28125 C 496.925781 239.207031 493.949219 247.328125 502.796875 257.140625 C 511.128906 266.371094 512.480469 267.964844 522.527344 281.894531 C 513.3125 285.054688 507.5 289.398438 504.773438 295.152344 C 504.398438 295.945312 504.109375 296.761719 503.867188 297.585938 C 474.757812 299.320312 418.507812 306.132812 392.371094 319.636719 C 383.835938 324.066406 378.742188 332.449219 378.742188 342.0625 L 378.742188 452.75 L 369.914062 461.785156 C 367.425781 452.234375 364.523438 444.230469 361.292969 438.230469 C 355.871094 428.160156 349.222656 423.054688 341.527344 423.054688 C 327.351562 423.054688 312.363281 431.285156 298.183594 446.859375 C 282.335938 464.261719 268.398438 489.632812 258.945312 518.292969 C 248.824219 548.972656 244.855469 579.949219 247.472656 607.871094 C 248.167969 615.339844 251.164062 633.480469 263.972656 640.628906 C 266.644531 642.121094 270.292969 643.414062 274.910156 643.414062 C 278.976562 643.414062 283.796875 642.410156 289.363281 639.652344 C 293.410156 637.640625 296.496094 635.117188 299.214844 632.894531 C 305.097656 628.085938 308.652344 625.1875 320.398438 628.667969 C 340.972656 634.761719 359.089844 629.574219 368.863281 614.789062 C 380.804688 596.683594 379.675781 545.910156 379.042969 530.777344 C 378.960938 528.769531 378.863281 526.78125 378.753906 524.804688 L 403.953125 499.785156 L 429.179688 524.828125 C 429.074219 526.792969 428.976562 528.769531 428.890625 530.761719 C 428.261719 545.898438 427.136719 596.683594 439.074219 614.785156 C 448.824219 629.578125 466.941406 634.769531 487.542969 628.667969 C 499.289062 625.1875 502.839844 628.085938 508.722656 632.894531 C 511.445312 635.117188 514.527344 637.640625 518.582031 639.65625 C 524.140625 642.410156 528.953125 643.414062 533.015625 643.414062 C 537.628906 643.414062 541.277344 642.121094 543.945312 640.632812 C 556.769531 633.476562 559.773438 615.339844 560.464844 607.875 C 563.082031 579.953125 559.117188 548.980469 549 518.308594 C 539.546875 489.648438 525.609375 464.277344 509.757812 446.875 C 495.566406 431.292969 480.570312 423.054688 466.382812 423.054688 C 458.695312 423.054688 452.054688 428.15625 446.636719 438.214844 C 443.40625 444.214844 440.503906 452.222656 438.019531 461.777344 L 429.195312 452.75 L 429.195312 358.445312 C 443.765625 353.816406 472.480469 350.257812 497.433594 348.515625 C 497.046875 352.9375 496.050781 356.082031 494.503906 357.570312 C 492.160156 359.835938 486.664062 359.535156 480.84375 359.214844 C 470.902344 358.671875 457.289062 357.921875 449.183594 370.96875 C 445.210938 377.351562 444.371094 383.398438 446.679688 388.953125 C 451.128906 399.636719 465.328125 404.722656 489.976562 410.371094 C 501.792969 413.078125 514.140625 416.335938 524.0625 418.957031 C 533.453125 421.4375 540.238281 423.226562 543.824219 423.859375 C 560.039062 426.710938 578.976562 437.6875 578.976562 459.246094 C 578.976562 459.566406 578.996094 459.890625 579.039062 460.207031 L 605.207031 656.078125 L 204.683594 653.816406 Z M 317.871094 474.480469 C 313.859375 474.480469 310.605469 477.734375 310.605469 481.746094 L 310.605469 495.910156 C 308.558594 496.214844 304.589844 496.804688 294.835938 498.242188 C 290.867188 498.824219 288.121094 502.519531 288.707031 506.488281 C 289.238281 510.101562 292.339844 512.699219 295.886719 512.699219 C 296.238281 512.699219 296.59375 512.671875 296.953125 512.617188 C 307.949219 511 311.609375 510.457031 313.4375 510.183594 C 314.820312 509.976562 315.15625 509.925781 316.855469 509.683594 L 326.425781 513.875 C 315.890625 521.917969 310.03125 526.390625 308.859375 527.285156 C 302.828125 531.277344 296.34375 534.507812 289.578125 536.878906 C 285.789062 538.203125 283.796875 542.351562 285.121094 546.136719 C 286.171875 549.128906 288.980469 551.003906 291.980469 551.003906 C 292.777344 551.003906 293.589844 550.871094 294.382812 550.59375 C 297.046875 549.660156 299.667969 548.601562 302.25 547.445312 C 300.394531 555.136719 298.667969 561.746094 297.054688 566.542969 C 289.195312 568.5 286.511719 569.015625 285.660156 569.152344 C 282.867188 569.113281 280.191406 570.648438 278.933594 573.328125 C 277.222656 576.957031 278.78125 581.289062 282.414062 582.996094 C 283.347656 583.433594 284.011719 583.75 285.359375 583.75 C 287.757812 583.75 292.304688 582.753906 304.332031 579.699219 C 306.5625 579.132812 308.394531 577.539062 309.265625 575.410156 C 312.367188 567.835938 315.246094 555.929688 319.535156 537.421875 C 324.605469 533.550781 338.953125 522.59375 362.566406 504.558594 C 363.125 509.820312 363.59375 515.261719 363.960938 520.839844 C 362.058594 523.175781 356.15625 529.207031 337.90625 544.089844 C 337.527344 544.34375 337.171875 544.632812 336.839844 544.957031 C 334.253906 547.058594 331.433594 549.328125 328.347656 551.789062 C 327.332031 552.597656 326.554688 553.660156 326.089844 554.871094 C 323.882812 560.621094 322.347656 564.304688 320.574219 568.570312 C 318.578125 573.363281 316.316406 578.800781 312.511719 588.546875 C 311.054688 592.285156 312.902344 596.5 316.640625 597.957031 C 317.511719 598.296875 318.402344 598.457031 319.28125 598.457031 C 322.1875 598.457031 324.933594 596.699219 326.050781 593.828125 C 329.796875 584.234375 332.027344 578.878906 333.992188 574.15625 C 335.613281 570.257812 337.039062 566.835938 338.945312 561.925781 C 339.183594 561.734375 339.414062 561.550781 339.652344 561.359375 C 341.054688 563.546875 342.808594 566.183594 344.914062 569.265625 C 342.347656 582.03125 341.074219 588.414062 341.074219 588.414062 C 340.292969 592.351562 342.84375 596.175781 346.78125 596.960938 C 347.261719 597.058594 347.738281 597.101562 348.210938 597.101562 C 351.605469 597.101562 354.640625 594.710938 355.328125 591.253906 C 355.328125 591.25 356.800781 583.871094 359.769531 569.113281 C 360.15625 567.183594 359.746094 565.175781 358.621094 563.550781 C 354.78125 557.992188 352.4375 554.417969 351.007812 552.136719 C 356.46875 547.625 361.078125 543.6875 364.796875 540.351562 C 365.414062 571.757812 362.261719 598.386719 356.730469 606.773438 C 348.003906 619.980469 331.296875 616.734375 324.523438 614.730469 C 305.398438 609.0625 296.871094 616.035156 290.015625 621.636719 C 287.679688 623.546875 285.472656 625.347656 282.902344 626.628906 C 277.914062 629.101562 273.929688 629.539062 271.054688 627.933594 C 266.492188 625.386719 262.914062 616.980469 261.941406 606.515625 C 256.519531 548.632812 282.101562 486.097656 308.925781 456.640625 C 320.277344 444.175781 331.550781 437.585938 341.523438 437.585938 C 342.867188 437.585938 345.5 439.558594 348.492188 445.117188 C 352.445312 452.460938 355.90625 463.785156 358.617188 477.699219 C 358.636719 477.796875 358.652344 477.898438 358.675781 477.996094 C 359.292969 481.175781 359.867188 484.488281 360.402344 487.917969 C 352.59375 493.886719 345.667969 499.175781 339.628906 503.789062 L 325.136719 497.441406 L 325.136719 481.746094 C 325.136719 477.734375 321.882812 474.480469 317.871094 474.480469 Z M 448.164062 569.105469 L 452.578125 591.257812 C 453.265625 594.714844 456.304688 597.105469 459.695312 597.105469 C 460.167969 597.105469 460.644531 597.058594 461.125 596.964844 C 465.0625 596.179688 467.617188 592.351562 466.832031 588.417969 L 463.019531 569.273438 C 465.113281 566.207031 466.863281 563.570312 468.273438 561.375 C 468.503906 561.558594 468.730469 561.742188 468.960938 561.925781 C 470.867188 566.828125 472.292969 570.242188 473.914062 574.128906 C 475.890625 578.855469 478.132812 584.214844 481.882812 593.832031 C 483.003906 596.703125 485.75 598.460938 488.65625 598.460938 C 489.535156 598.460938 490.425781 598.300781 491.296875 597.960938 C 495.035156 596.503906 496.882812 592.289062 495.425781 588.550781 C 491.609375 578.769531 489.332031 573.328125 487.328125 568.523438 C 485.550781 564.273438 484.015625 560.601562 481.816406 554.875 C 481.351562 553.664062 480.574219 552.601562 479.5625 551.796875 C 476.484375 549.339844 473.671875 547.074219 471.089844 544.972656 C 470.769531 544.660156 470.421875 544.378906 470.054688 544.128906 C 451.773438 529.207031 445.871094 523.171875 443.972656 520.839844 C 444.339844 515.261719 444.808594 509.820312 445.363281 504.558594 C 468.984375 522.601562 483.316406 533.554688 488.375 537.421875 C 492.710938 556.003906 495.609375 567.941406 498.667969 575.410156 C 499.539062 577.539062 501.371094 579.128906 503.597656 579.699219 C 515.609375 582.757812 520.15625 583.753906 522.558594 583.753906 C 523.910156 583.753906 524.582031 583.4375 525.523438 582.996094 C 529.152344 581.289062 530.710938 576.957031 529.003906 573.328125 C 527.742188 570.648438 525.050781 569.0625 522.273438 569.15625 C 521.414062 569.019531 518.722656 568.503906 510.882812 566.546875 C 509.28125 561.796875 507.570312 555.277344 505.675781 547.449219 C 508.257812 548.601562 510.882812 549.660156 513.550781 550.59375 C 514.347656 550.875 515.15625 551.003906 515.957031 551.003906 C 518.957031 551.003906 521.765625 549.132812 522.8125 546.140625 C 524.140625 542.351562 522.144531 538.203125 518.359375 536.878906 C 511.550781 534.492188 505.054688 531.265625 499.046875 527.285156 C 497.863281 526.382812 492.015625 521.910156 481.503906 513.878906 L 491.082031 509.683594 C 492.78125 509.929688 493.113281 509.980469 494.5 510.183594 C 496.328125 510.457031 499.988281 511.003906 510.984375 512.621094 C 511.34375 512.675781 511.699219 512.699219 512.050781 512.699219 C 515.59375 512.699219 518.699219 510.101562 519.230469 506.492188 C 519.816406 502.519531 517.070312 498.828125 513.101562 498.242188 C 503.34375 496.804688 499.378906 496.21875 497.332031 495.914062 L 497.332031 481.75 C 497.332031 477.734375 494.078125 474.484375 490.066406 474.484375 C 486.050781 474.484375 482.796875 477.738281 482.796875 481.75 L 482.796875 497.445312 L 468.304688 503.796875 C 462.261719 499.179688 455.339844 493.886719 447.527344 487.917969 C 448.054688 484.53125 448.621094 481.261719 449.230469 478.117188 C 449.28125 477.910156 449.320312 477.699219 449.351562 477.488281 C 452.058594 463.664062 455.5 452.410156 459.433594 445.105469 C 462.421875 439.558594 465.042969 437.59375 466.382812 437.59375 C 476.367188 437.59375 487.648438 444.1875 499.011719 456.664062 C 525.832031 486.113281 551.414062 548.644531 545.996094 606.527344 C 545.019531 616.984375 541.4375 625.390625 536.867188 627.941406 C 533.992188 629.542969 530.011719 629.105469 525.046875 626.640625 C 522.460938 625.355469 520.253906 623.554688 517.917969 621.644531 C 512.863281 617.511719 506.894531 612.632812 496.433594 612.632812 C 492.714844 612.632812 488.425781 613.25 483.410156 614.734375 C 476.628906 616.746094 459.90625 619.992188 451.207031 606.789062 C 445.671875 598.398438 442.519531 571.769531 443.136719 540.363281 C 446.851562 543.699219 451.457031 547.636719 456.917969 552.148438 C 455.488281 554.433594 453.144531 558.011719 449.3125 563.558594 C 448.195312 565.175781 447.777344 567.179688 448.164062 569.109375 Z M 448.164062 569.105469 " fill-opacity="1" fill-rule="nonzero"/></g></svg>