<svg xmlns="http://www.w3.org/2000/svg" xmlns:xlink="http://www.w3.org/1999/xlink" width="1080" zoomAndPan="magnify" viewBox="0 0 810 817.92" height="1080" preserveAspectRatio="xMidYMid meet" version="1.0"><defs><clipPath id="173b808151"><path d="M 100.269531 131.082031 L 709.960938 131.082031 L 709.960938 678.53125 L 100.269531 678.53125 Z M 100.269531 131.082031 " clip-rule="nonzero"/></clipPath></defs><g clip-path="url(#173b808151)"><path fill="#05439a" d="M 546.160156 290.035156 L 546.160156 270.234375 L 557.628906 270.234375 L 557.628906 290.035156 C 557.628906 294.21875 560.976562 297.621094 565.164062 297.621094 L 584.988281 297.621094 L 584.988281 309.066406 L 565.164062 309.066406 C 560.976562 309.066406 557.628906 312.464844 557.628906 316.652344 L 557.628906 336.453125 L 546.160156 336.453125 L 546.160156 316.652344 C 546.160156 312.464844 542.746094 309.066406 538.570312 309.066406 L 518.796875 309.066406 L 518.796875 297.621094 L 538.570312 297.621094 C 542.757812 297.621094 546.160156 294.234375 546.160156 290.035156 Z M 530.984375 262.648438 L 530.984375 282.449219 L 511.210938 282.449219 C 507.023438 282.449219 503.625 285.851562 503.625 290.035156 L 503.625 316.652344 C 503.625 320.847656 507.039062 324.238281 511.210938 324.238281 L 530.984375 324.238281 L 530.984375 344.039062 C 530.984375 348.238281 534.398438 351.625 538.570312 351.625 L 565.164062 351.625 C 569.398438 351.625 572.75 348.222656 572.75 344.039062 L 572.75 324.238281 L 592.574219 324.238281 C 596.761719 324.238281 600.164062 320.847656 600.164062 316.652344 L 600.164062 290.035156 C 600.164062 285.835938 596.75 282.449219 592.574219 282.449219 L 572.75 282.449219 L 572.75 262.648438 C 572.75 258.460938 569.398438 255.0625 565.164062 255.0625 L 538.570312 255.0625 C 534.386719 255.0625 530.984375 258.460938 530.984375 262.648438 Z M 298.875 219.847656 C 298.152344 251.179688 315.917969 286.367188 350.195312 321.609375 C 375.398438 347.515625 410.460938 373.90625 444.636719 392.746094 C 455.636719 386.699219 470.875 377.558594 488.058594 365.167969 C 485.996094 362.460938 484.085938 359.640625 482.230469 356.722656 C 465.03125 328.96875 458.535156 291.933594 462.453125 243.492188 C 462.707031 240.203125 465.082031 237.460938 468.28125 236.714844 C 498.589844 229.660156 527.304688 216.089844 546.980469 199.488281 C 549.824219 197.113281 553.949219 197.113281 556.742188 199.488281 C 566.1875 207.441406 577.707031 214.6875 590.464844 220.871094 C 590.464844 220.53125 590.464844 220.175781 590.464844 219.835938 C 589.527344 179.347656 555.820312 146.410156 515.28125 146.410156 C 488.941406 146.410156 464.929688 159.847656 451.148438 182.382812 C 449.757812 184.632812 447.332031 185.996094 444.636719 185.996094 C 442.007812 185.996094 439.578125 184.632812 438.1875 182.382812 C 424.40625 159.847656 400.394531 146.410156 374.058594 146.410156 C 333.519531 146.421875 299.796875 179.359375 298.875 219.847656 Z M 608.597656 348.71875 C 623.464844 324.84375 629.359375 292.5625 626.5625 250.167969 C 598.0625 242.820312 571.929688 230.53125 551.898438 215.054688 C 531.808594 230.53125 505.734375 242.820312 477.183594 250.167969 C 474.453125 292.5625 480.332031 324.84375 495.152344 348.71875 C 507.125 367.988281 525.207031 382.175781 551.898438 393.199219 C 578.589844 382.175781 596.609375 367.988281 608.597656 348.71875 Z M 441.085938 408.070312 C 442.222656 408.675781 443.460938 408.96875 444.648438 408.96875 C 445.890625 408.96875 447.128906 408.664062 448.265625 408.070312 C 464.691406 399.246094 481.824219 388.445312 498.046875 376.660156 C 511.007812 389.621094 527.683594 399.964844 549.066406 408.4375 C 549.988281 408.804688 550.925781 408.980469 551.910156 408.980469 C 552.847656 408.980469 553.769531 408.804688 554.707031 408.4375 C 586.101562 395.996094 607.320312 379.570312 621.519531 356.734375 C 638.765625 328.980469 645.214844 291.945312 641.292969 243.503906 C 641.042969 240.214844 638.664062 237.472656 635.464844 236.726562 C 625.1875 234.335938 615.121094 231.175781 605.511719 227.433594 C 605.664062 224.777344 605.714844 222.121094 605.664062 219.503906 C 605.09375 195.808594 595.496094 173.617188 578.503906 157.03125 C 561.507812 140.402344 539.101562 131.246094 515.292969 131.246094 C 487.414062 131.246094 461.746094 143.765625 444.648438 165.222656 C 427.605469 143.765625 401.949219 131.246094 374.058594 131.246094 C 350.246094 131.246094 327.84375 140.402344 310.796875 157.03125 C 293.867188 173.632812 284.257812 195.824219 283.6875 219.519531 C 281.828125 300.65625 381.746094 376.21875 441.085938 408.070312 Z M 681.820312 468.359375 L 546.425781 566.90625 C 527.269531 580.84375 507.339844 588.011719 483.734375 589.503906 C 403.175781 594.574219 341.574219 591.3125 291.90625 587.46875 C 290.71875 587.367188 289.480469 587.570312 288.390625 588.035156 L 250.851562 603.855469 L 191.980469 484.429688 L 233.855469 449.554688 C 268.71875 420.5625 320.039062 435.382812 347.566406 446.800781 C 357.746094 451.035156 367.242188 452.917969 378.242188 452.917969 L 494.113281 452.917969 C 510.171875 452.917969 523.183594 465.957031 523.183594 481.988281 C 523.183594 485.011719 522.714844 487.929688 521.894531 490.675781 C 521.792969 490.890625 521.742188 491.105469 521.640625 491.332031 C 517.773438 502.789062 506.871094 511.058594 494.113281 511.058594 L 392.960938 511.058594 C 388.773438 511.058594 385.375 514.460938 385.375 518.644531 C 385.375 522.828125 388.789062 526.230469 392.960938 526.230469 L 494.113281 526.230469 C 512.855469 526.230469 528.859375 514.558594 535.324219 498.121094 L 645.265625 418.121094 C 659.097656 408.042969 678.570312 411.105469 688.636719 424.960938 C 698.699219 438.808594 695.652344 458.28125 681.820312 468.359375 Z M 202.308594 662.789062 L 251.105469 638.738281 L 165.035156 464.035156 L 116.238281 488.082031 Z M 700.925781 416.023438 C 715.894531 436.632812 711.355469 465.613281 690.746094 480.621094 L 555.351562 579.171875 C 533.765625 594.878906 511.296875 602.96875 484.65625 604.652344 C 404.148438 609.707031 342.394531 606.558594 292.5625 602.730469 L 257.550781 617.496094 L 265.707031 634.074219 C 268.855469 640.460938 266.226562 648.199219 259.878906 651.332031 L 206.949219 677.40625 C 205.140625 678.304688 203.179688 678.734375 201.273438 678.734375 C 196.519531 678.734375 191.929688 676.089844 189.703125 671.539062 L 101.621094 492.734375 C 100.066406 489.652344 99.863281 486.160156 100.953125 482.898438 C 102.089844 479.636719 104.417969 476.992188 107.464844 475.476562 L 160.394531 449.402344 C 163.492188 447.886719 166.957031 447.660156 170.257812 448.773438 C 173.503906 449.882812 176.148438 452.1875 177.640625 455.269531 L 185.125 470.433594 L 224.160156 437.898438 C 265.164062 403.785156 322.734375 420.042969 353.410156 432.777344 C 361.664062 436.214844 369.316406 437.734375 378.242188 437.734375 L 494.113281 437.734375 C 516.9375 437.734375 535.789062 455.09375 538.105469 477.296875 L 636.324219 405.84375 C 656.921875 390.847656 685.890625 395.414062 700.925781 416.023438 Z M 700.925781 416.023438 " fill-opacity="1" fill-rule="evenodd"/></g></svg>