<svg xmlns="http://www.w3.org/2000/svg" xmlns:xlink="http://www.w3.org/1999/xlink" width="1080" zoomAndPan="magnify" viewBox="0 0 810 817.92" height="1080" preserveAspectRatio="xMidYMid meet" version="1.0"><defs><clipPath id="e6a4739041"><path d="M 114.648438 88.335938 L 660.59375 88.335938 L 660.59375 721.273438 L 114.648438 721.273438 Z M 114.648438 88.335938 " clip-rule="nonzero"/></clipPath></defs><g clip-path="url(#e6a4739041)"><path fill="#05439a" d="M 452.464844 368.128906 L 464.519531 368.128906 C 467.144531 368.128906 469.597656 366.816406 471.066406 364.640625 L 478.914062 352.921875 L 494.289062 383.675781 C 495.628906 386.367188 498.371094 388.03125 501.320312 388.03125 C 501.597656 388.03125 501.871094 388.019531 502.148438 387.980469 C 505.402344 387.636719 508.117188 385.316406 508.945312 382.140625 L 521.789062 332.875 L 528.320312 347.414062 C 529.515625 350.078125 532.074219 351.847656 534.972656 352.042969 C 537.886719 352.242188 540.640625 350.824219 542.1875 348.359375 L 550.769531 334.582031 L 555.136719 341.417969 C 556.582031 343.6875 559.085938 345.050781 561.777344 345.050781 L 592.136719 345.050781 C 575.945312 376.761719 538.777344 405.78125 514.53125 420.59375 C 496.335938 409.480469 470.882812 390.367188 452.464844 368.128906 Z M 476.695312 267.527344 C 450.363281 267.527344 428.941406 288.9375 428.941406 315.269531 C 428.941406 327.734375 433.636719 340.328125 441.074219 352.386719 L 460.324219 352.386719 L 473.363281 332.929688 C 474.925781 330.59375 477.589844 329.28125 480.394531 329.453125 C 483.191406 329.636719 485.683594 331.277344 486.941406 333.78125 L 499 357.894531 L 512.199219 307.265625 C 513.035156 304.039062 515.832031 301.691406 519.164062 301.402344 C 522.496094 301.140625 525.632812 302.976562 526.996094 306.035156 L 536.640625 327.496094 L 544 315.675781 C 545.429688 313.382812 547.921875 311.976562 550.625 311.964844 C 550.652344 311.964844 550.664062 311.964844 550.675781 311.964844 C 553.367188 311.964844 555.859375 313.328125 557.300781 315.597656 L 566.078125 329.308594 L 598.25 329.308594 C 599.457031 324.636719 600.125 319.941406 600.125 315.269531 C 600.125 288.9375 578.699219 267.527344 552.382812 267.527344 C 542.320312 267.527344 531.390625 272.933594 519.886719 283.625 C 516.867188 286.421875 512.199219 286.421875 509.179688 283.625 C 497.675781 272.933594 486.746094 267.527344 476.695312 267.527344 Z M 514.53125 437.625 C 515.898438 437.625 517.261719 437.269531 518.480469 436.5625 C 554.652344 415.554688 615.855469 366.371094 615.855469 315.269531 C 615.855469 280.253906 587.398438 251.785156 552.382812 251.785156 C 539.957031 251.785156 527.257812 257.03125 514.53125 267.410156 C 501.808594 257.03125 489.105469 251.785156 476.695312 251.785156 C 441.679688 251.785156 413.195312 280.253906 413.195312 315.269531 C 413.195312 366.371094 474.414062 415.554688 510.582031 436.5625 C 511.804688 437.269531 513.167969 437.625 514.53125 437.625 Z M 626.195312 705.421875 L 512.851562 705.421875 L 512.851562 691.644531 C 512.851562 670.195312 530.300781 652.746094 551.753906 652.746094 L 587.308594 652.746094 C 608.757812 652.746094 626.195312 670.195312 626.195312 691.644531 Z M 368.011719 705.421875 L 254.671875 705.421875 L 254.671875 691.644531 C 254.671875 670.195312 272.121094 652.746094 293.574219 652.746094 L 329.113281 652.746094 C 350.5625 652.746094 368.011719 670.195312 368.011719 691.644531 Z M 311.347656 582.621094 C 325.402344 582.621094 336.855469 594.0625 336.855469 608.125 C 336.855469 622.191406 325.402344 633.628906 311.347656 633.628906 C 297.285156 633.628906 285.84375 622.191406 285.84375 608.125 C 285.84375 594.0625 297.285156 582.621094 311.347656 582.621094 Z M 422.667969 652.746094 L 458.210938 652.746094 C 479.660156 652.746094 497.109375 670.195312 497.109375 691.644531 L 497.109375 705.421875 L 383.757812 705.421875 L 383.757812 691.644531 C 383.757812 670.195312 401.21875 652.746094 422.667969 652.746094 Z M 440.433594 582.621094 C 454.496094 582.621094 465.9375 594.0625 465.9375 608.125 C 465.9375 622.191406 454.496094 633.628906 440.433594 633.628906 C 426.382812 633.628906 414.929688 622.191406 414.929688 608.125 C 414.929688 594.0625 426.382812 582.621094 440.433594 582.621094 Z M 569.53125 582.621094 C 583.59375 582.621094 595.035156 594.0625 595.035156 608.125 C 595.035156 622.191406 583.59375 633.628906 569.53125 633.628906 C 555.464844 633.628906 544.027344 622.191406 544.027344 608.125 C 544.027344 594.0625 555.464844 582.621094 569.53125 582.621094 Z M 597.894531 638.039062 C 605.820312 630.519531 610.777344 619.894531 610.777344 608.125 C 610.777344 585.390625 592.28125 566.878906 569.53125 566.878906 C 546.792969 566.878906 528.28125 585.390625 528.28125 608.125 C 528.28125 619.894531 533.242188 630.519531 541.179688 638.039062 C 525.855469 641.054688 512.8125 650.488281 504.980469 663.425781 C 497.148438 650.488281 484.109375 641.054688 468.796875 638.039062 C 476.722656 630.519531 481.679688 619.894531 481.679688 608.125 C 481.679688 585.390625 463.183594 566.878906 440.433594 566.878906 C 417.695312 566.878906 399.183594 585.390625 399.183594 608.125 C 399.183594 619.894531 404.144531 630.519531 412.082031 638.039062 C 396.757812 641.054688 383.71875 650.488281 375.882812 663.425781 C 368.066406 650.488281 355.023438 641.054688 339.699219 638.039062 C 347.625 630.519531 352.597656 619.894531 352.597656 608.125 C 352.597656 585.390625 334.085938 566.878906 311.347656 566.878906 C 288.601562 566.878906 270.101562 585.390625 270.101562 608.125 C 270.101562 619.894531 275.058594 630.519531 282.984375 638.039062 C 257.898438 642.984375 238.929688 665.128906 238.929688 691.644531 L 238.929688 713.292969 C 238.929688 717.636719 242.445312 721.164062 246.800781 721.164062 L 634.066406 721.164062 C 638.460938 721.164062 641.9375 717.636719 641.9375 713.292969 L 641.9375 691.644531 C 641.949219 665.128906 622.980469 642.984375 597.894531 638.039062 Z M 276.792969 399.378906 C 274.351562 400.785156 272.855469 403.382812 272.855469 406.203125 L 272.855469 532.871094 L 182.84375 532.871094 L 182.84375 520.054688 L 210.105469 524.84375 C 217.492188 526.15625 224.957031 524.476562 231.121094 520.160156 C 237.300781 515.828125 241.410156 509.375 242.707031 501.988281 C 244.007812 494.601562 242.339844 487.136719 238.011719 480.972656 C 237.199219 479.789062 236.265625 478.714844 235.296875 477.691406 L 240.203125 457.449219 C 241.226562 453.222656 238.628906 448.957031 234.402344 447.9375 C 230.179688 446.914062 225.914062 449.511719 224.890625 453.734375 L 221.046875 469.648438 C 220.640625 469.570312 220.261719 469.453125 219.851562 469.386719 L 178.121094 462.039062 L 181.492188 448.078125 C 182.515625 443.855469 179.929688 439.605469 175.691406 438.582031 C 171.480469 437.558594 167.21875 440.15625 166.195312 444.378906 L 160.839844 466.488281 C 160.328125 468.613281 160.710938 470.84375 161.902344 472.652344 C 163.097656 474.476562 164.988281 475.722656 167.125 476.101562 L 217.125 484.894531 C 220.378906 485.457031 223.210938 487.28125 225.128906 490.011719 C 227.03125 492.738281 227.777344 496.019531 227.199219 499.257812 C 226.636719 502.511719 224.8125 505.347656 222.082031 507.261719 C 219.355469 509.179688 216.0625 509.914062 212.835938 509.347656 L 176.453125 502.945312 C 176.375 502.933594 176.296875 502.917969 176.21875 502.90625 L 137.75 496.136719 C 135.179688 495.691406 133.328125 494.472656 131.898438 492.292969 C 130.484375 490.113281 130.101562 487.925781 130.71875 485.40625 L 147.328125 416.816406 C 151.984375 397.542969 168.449219 384.59375 188.273438 384.59375 L 202.011719 384.59375 L 222.554688 403.25 C 225.558594 405.980469 230.140625 405.980469 233.144531 403.25 L 255.300781 383.113281 L 356.691406 324.585938 C 359.539062 322.933594 362.882812 322.511719 366.097656 323.363281 C 369.3125 324.230469 372 326.277344 373.640625 329.125 C 375.292969 331.984375 375.726562 335.328125 374.863281 338.542969 C 373.996094 341.757812 371.949219 344.433594 369.101562 346.089844 Z M 416.777344 138.46875 C 422.378906 145.359375 430.894531 149.765625 440.445312 149.765625 C 449.972656 149.765625 458.5 145.359375 464.101562 138.46875 L 576.101562 188.535156 L 304.777344 188.535156 Z M 440.445312 104.542969 C 448.566406 104.542969 455.179688 111.15625 455.179688 119.277344 C 455.179688 127.410156 448.566406 134.023438 440.445312 134.023438 C 432.3125 134.023438 425.699219 127.410156 425.699219 119.277344 C 425.699219 111.15625 432.3125 104.542969 440.445312 104.542969 Z M 267.554688 308.027344 C 267.554688 286.132812 249.738281 268.328125 227.84375 268.328125 C 205.945312 268.328125 188.144531 286.132812 188.144531 308.027344 C 188.144531 329.925781 205.945312 347.742188 227.84375 347.742188 C 249.738281 347.742188 267.554688 329.925781 267.554688 308.027344 Z M 653.035156 188.535156 L 614.675781 188.535156 L 470.53125 124.105469 C 470.792969 122.542969 470.921875 120.929688 470.921875 119.277344 C 470.921875 102.46875 457.253906 88.800781 440.445312 88.800781 C 423.625 88.800781 409.957031 102.46875 409.957031 119.277344 C 409.957031 120.929688 410.085938 122.542969 410.351562 124.105469 L 266.191406 188.535156 L 227.84375 188.535156 C 223.5 188.535156 219.972656 192.0625 219.972656 196.40625 L 219.972656 253.148438 C 193.117188 256.980469 172.398438 280.121094 172.398438 308.027344 C 172.398438 338.609375 197.273438 363.484375 227.84375 363.484375 C 258.425781 363.484375 283.300781 338.609375 283.300781 308.027344 C 283.300781 280.121094 262.570312 256.980469 235.714844 253.148438 L 235.714844 204.277344 L 645.152344 204.277344 L 645.152344 485.128906 L 288.601562 485.128906 L 288.601562 410.742188 L 376.972656 359.71875 C 383.46875 355.96875 388.113281 349.894531 390.066406 342.613281 C 392.023438 335.328125 391.023438 327.746094 387.273438 321.253906 C 383.535156 314.757812 377.460938 310.113281 370.175781 308.160156 C 362.894531 306.203125 355.3125 307.203125 348.820312 310.953125 L 246.695312 369.898438 C 246.210938 370.1875 245.75 370.515625 245.34375 370.898438 L 227.84375 386.796875 L 210.355469 370.898438 C 208.898438 369.585938 207.007812 368.851562 205.054688 368.851562 L 188.273438 368.851562 C 161.472656 368.851562 138.328125 387.046875 132.015625 413.117188 L 115.421875 481.707031 C 113.78125 488.460938 114.921875 495.101562 118.742188 500.914062 C 122.546875 506.722656 128.171875 510.4375 135.023438 511.644531 L 167.097656 517.285156 L 167.097656 540.742188 C 167.097656 545.085938 170.617188 548.617188 174.972656 548.617188 L 280.726562 548.617188 C 285.070312 548.617188 288.601562 545.085938 288.601562 540.742188 L 288.601562 500.875 L 653.035156 500.875 C 657.378906 500.875 660.90625 497.34375 660.90625 493 L 660.90625 196.40625 C 660.90625 192.0625 657.378906 188.535156 653.035156 188.535156 Z M 653.035156 188.535156 " fill-opacity="1" fill-rule="evenodd"/></g></svg>