<svg xmlns="http://www.w3.org/2000/svg" xmlns:xlink="http://www.w3.org/1999/xlink" width="1080" zoomAndPan="magnify" viewBox="0 0 810 817.92" height="1080" preserveAspectRatio="xMidYMid meet" version="1.0"><defs><clipPath id="9d77c6a82d"><path d="M 120.363281 104.554688 L 689.558594 104.554688 L 689.558594 705.246094 L 120.363281 705.246094 Z M 120.363281 104.554688 " clip-rule="nonzero"/></clipPath></defs><g clip-path="url(#9d77c6a82d)"><path fill="#05439a" d="M 459.035156 328.179688 C 417.019531 328.179688 382.835938 362.359375 382.835938 404.378906 C 382.835938 446.394531 417.019531 480.578125 459.035156 480.578125 C 501.070312 480.578125 535.269531 446.394531 535.269531 404.378906 C 535.269531 362.359375 501.070312 328.179688 459.035156 328.179688 Z M 459.035156 461.179688 C 427.714844 461.179688 402.230469 435.699219 402.230469 404.378906 C 402.230469 373.058594 427.714844 347.578125 459.035156 347.578125 C 490.375 347.578125 515.871094 373.058594 515.871094 404.378906 C 515.871094 435.699219 490.375 461.179688 459.035156 461.179688 Z M 493.734375 379.5625 C 497.523438 383.351562 497.523438 389.492188 493.734375 393.28125 L 457.824219 429.191406 C 455.929688 431.085938 453.449219 432.03125 450.964844 432.03125 C 448.484375 432.03125 446.007812 431.085938 444.113281 429.195312 L 424.339844 409.457031 C 420.546875 405.671875 420.542969 399.53125 424.328125 395.738281 C 428.113281 391.949219 434.253906 391.945312 438.042969 395.730469 L 450.960938 408.625 L 480.019531 379.5625 C 483.808594 375.777344 489.945312 375.777344 493.734375 379.5625 Z M 610.386719 278.175781 C 610.386719 283.53125 606.042969 287.871094 600.6875 287.871094 L 317.414062 287.871094 C 312.058594 287.871094 307.71875 283.53125 307.71875 278.175781 C 307.71875 272.816406 312.058594 268.476562 317.414062 268.476562 L 600.6875 268.476562 C 606.042969 268.476562 610.386719 272.816406 610.386719 278.175781 Z M 610.386719 229.527344 C 610.386719 234.882812 606.042969 239.226562 600.6875 239.226562 L 416.359375 239.226562 C 411.003906 239.226562 406.660156 234.882812 406.660156 229.527344 C 406.660156 224.167969 411.003906 219.828125 416.359375 219.828125 L 600.6875 219.828125 C 606.042969 219.828125 610.386719 224.167969 610.386719 229.527344 Z M 406.660156 180.878906 C 406.660156 175.523438 411.003906 171.179688 416.359375 171.179688 L 600.6875 171.179688 C 606.042969 171.179688 610.386719 175.523438 610.386719 180.878906 C 610.386719 186.234375 606.042969 190.578125 600.6875 190.578125 L 416.359375 190.578125 C 411.003906 190.578125 406.660156 186.234375 406.660156 180.878906 Z M 684.597656 514.996094 C 689.386719 506.773438 690.769531 497.707031 688.496094 489.472656 C 686.328125 481.617188 680.878906 474.9375 673.148438 470.664062 C 665.828125 466.617188 658.324219 465.15625 650.691406 466.210938 L 650.691406 124.917969 C 650.691406 113.699219 641.566406 104.574219 630.347656 104.574219 L 374.339844 104.574219 C 374.011719 104.574219 373.691406 104.59375 373.371094 104.625 C 373.128906 104.648438 372.894531 104.691406 372.660156 104.730469 C 372.582031 104.746094 372.503906 104.75 372.429688 104.765625 C 372.148438 104.820312 371.875 104.894531 371.601562 104.972656 C 371.570312 104.984375 371.542969 104.988281 371.511719 104.996094 C 371.234375 105.082031 370.964844 105.179688 370.699219 105.289062 C 370.675781 105.296875 370.648438 105.304688 370.621094 105.316406 C 370.367188 105.421875 370.121094 105.542969 369.878906 105.667969 C 369.839844 105.6875 369.800781 105.703125 369.761719 105.722656 C 369.542969 105.84375 369.332031 105.972656 369.121094 106.105469 C 369.0625 106.144531 369.003906 106.175781 368.945312 106.214844 C 368.753906 106.34375 368.570312 106.484375 368.386719 106.628906 C 368.320312 106.679688 368.246094 106.726562 368.183594 106.78125 C 367.964844 106.957031 367.761719 107.148438 367.5625 107.34375 C 367.535156 107.367188 367.507812 107.390625 367.480469 107.417969 L 270.21875 204.679688 C 270.191406 204.703125 270.167969 204.734375 270.144531 204.761719 C 269.949219 204.960938 269.757812 205.164062 269.582031 205.378906 C 269.527344 205.445312 269.480469 205.515625 269.429688 205.585938 C 269.285156 205.765625 269.144531 205.949219 269.015625 206.144531 C 268.976562 206.199219 268.945312 206.261719 268.910156 206.320312 C 268.773438 206.53125 268.644531 206.742188 268.523438 206.960938 C 268.503906 207 268.488281 207.039062 268.46875 207.078125 C 268.34375 207.320312 268.222656 207.566406 268.117188 207.820312 C 268.109375 207.84375 268.101562 207.871094 268.089844 207.898438 C 267.980469 208.164062 267.882812 208.433594 267.796875 208.710938 C 267.789062 208.738281 267.785156 208.769531 267.777344 208.800781 C 267.695312 209.070312 267.625 209.347656 267.566406 209.628906 C 267.550781 209.703125 267.546875 209.78125 267.53125 209.859375 C 267.492188 210.09375 267.449219 210.328125 267.425781 210.570312 C 267.394531 210.886719 267.378906 211.210938 267.378906 211.535156 L 267.378906 486.261719 C 250.507812 493.925781 236.558594 500.273438 225.503906 505.308594 L 225.40625 504.953125 C 223.613281 498.1875 219.265625 492.523438 213.171875 489.003906 C 207.085938 485.484375 200.019531 484.550781 193.269531 486.367188 L 139.765625 500.710938 C 133.015625 502.503906 127.363281 506.839844 123.847656 512.921875 C 120.328125 519.011719 119.394531 526.097656 121.214844 532.851562 L 162.203125 685.847656 C 163.996094 692.609375 168.34375 698.273438 174.433594 701.792969 C 178.496094 704.140625 182.988281 705.339844 187.53125 705.339844 C 189.808594 705.335938 192.09375 705.039062 194.34375 704.429688 L 247.84375 690.085938 C 261.8125 686.375 270.152344 671.964844 266.429688 657.945312 L 265.667969 655.109375 L 448.515625 671.832031 C 451.097656 672.066406 453.632812 672.183594 456.132812 672.183594 C 465.777344 672.183594 474.902344 670.429688 484.332031 666.804688 C 579.804688 630.320312 647.183594 579.246094 684.597656 515 Z M 631.292969 124.917969 L 631.292969 474.171875 C 629.273438 475.542969 627.246094 477.082031 625.214844 478.796875 C 591.667969 506.945312 564.914062 527.246094 545.445312 539.339844 C 537.71875 522.671875 518.484375 507.867188 473.664062 510.425781 C 433.847656 512.683594 396.71875 497.023438 372.585938 483.496094 C 345.683594 468.433594 315.703125 466.425781 286.773438 477.429688 L 286.773438 221.234375 L 363.695312 221.234375 C 374.910156 221.234375 384.035156 212.109375 384.035156 200.894531 L 384.035156 123.972656 L 630.347656 123.972656 C 630.859375 123.972656 631.292969 124.40625 631.292969 124.917969 Z M 300.492188 201.839844 L 364.640625 137.6875 L 364.640625 200.894531 C 364.640625 201.386719 364.1875 201.839844 363.695312 201.839844 Z M 242.84375 671.347656 L 189.304688 685.699219 C 187.566406 686.164062 185.730469 685.917969 184.140625 685 C 182.546875 684.078125 181.414062 682.609375 180.945312 680.847656 L 139.949219 527.816406 C 139.476562 526.0625 139.722656 524.21875 140.644531 522.625 C 141.558594 521.042969 143.015625 519.917969 144.765625 519.453125 L 198.289062 505.101562 C 198.296875 505.101562 198.300781 505.097656 198.304688 505.097656 C 198.878906 504.941406 199.464844 504.867188 200.046875 504.867188 C 201.226562 504.867188 202.402344 505.183594 203.46875 505.796875 C 205.066406 506.71875 206.199219 508.1875 206.667969 509.953125 L 247.6875 662.945312 C 248.644531 666.546875 246.433594 670.390625 242.84375 671.34375 Z M 477.390625 648.691406 C 468.25 652.207031 459.882812 653.382812 450.269531 652.515625 L 260.316406 635.140625 L 230.597656 524.304688 C 243.242188 518.542969 260.050781 510.890625 281.085938 501.335938 C 281.285156 501.246094 281.480469 501.148438 281.671875 501.046875 C 308.816406 486.4375 337.738281 486.214844 363.105469 500.417969 C 400.933594 521.621094 439.542969 531.789062 474.761719 529.792969 C 513.992188 527.542969 525.007812 539.882812 528.527344 548.859375 L 489.492188 569.640625 C 478.207031 575.652344 466.628906 577.871094 454.109375 576.425781 L 353.894531 564.789062 C 348.574219 564.164062 343.761719 567.980469 343.144531 573.304688 C 342.523438 578.625 346.339844 583.4375 351.660156 584.054688 L 451.878906 595.695312 C 455.144531 596.074219 458.363281 596.261719 461.539062 596.261719 C 474.460938 596.261719 486.667969 593.121094 498.609375 586.757812 L 544.339844 562.417969 C 544.34375 562.414062 544.347656 562.414062 544.351562 562.410156 C 544.359375 562.40625 544.367188 562.40625 544.375 562.402344 C 565.6875 550.941406 596.207031 528.457031 637.695312 493.640625 C 650.550781 482.8125 657.824219 484.355469 663.765625 487.640625 C 666.976562 489.417969 669.007812 491.769531 669.796875 494.632812 C 670.671875 497.796875 669.972656 501.5625 667.835938 505.238281 C 632.707031 565.558594 568.640625 613.820312 477.390625 648.691406 Z M 477.390625 648.691406 " fill-opacity="1" fill-rule="nonzero"/></g></svg>