<svg xmlns="http://www.w3.org/2000/svg" xmlns:xlink="http://www.w3.org/1999/xlink" width="1080" zoomAndPan="magnify" viewBox="0 0 810 817.92" height="1080" preserveAspectRatio="xMidYMid meet" version="1.0"><defs><clipPath id="59569c3a2c"><path d="M 111.914062 111.875 L 698.355469 111.875 L 698.355469 698 L 111.914062 698 Z M 111.914062 111.875 " clip-rule="nonzero"/></clipPath></defs><g clip-path="url(#59569c3a2c)"><path fill="#05439a" d="M 457.371094 233.59375 C 445.003906 234.121094 430.433594 233.074219 415.320312 238.570312 C 403.144531 243.003906 388.539062 240.839844 375 241.4375 C 369.628906 241.675781 364.242188 241.457031 358.859375 241.484375 C 348.242188 241.53125 343.292969 246.59375 343.242188 257.96875 C 343.136719 282.648438 343.132812 307.332031 343.238281 332.015625 C 343.257812 338.882812 343.117188 345.617188 335.667969 348.929688 C 328.648438 352.054688 324.050781 347.292969 318.632812 343.847656 C 300.921875 332.578125 292.863281 317.59375 295.726562 296.101562 C 297.382812 283.664062 296.113281 270.824219 296 258.167969 C 295.890625 246.539062 290.832031 241.496094 279.542969 241.484375 C 264.347656 241.464844 249.15625 241.578125 233.964844 241.449219 C 214.824219 241.289062 201.460938 229.125 201.226562 211.875 C 200.988281 194.015625 214.023438 181.980469 233.972656 181.578125 C 236.996094 181.515625 240.011719 181.25 244.792969 180.980469 C 235.238281 167.648438 226.652344 155.675781 218.070312 143.695312 C 215.863281 140.613281 213.441406 137.652344 211.503906 134.40625 C 205.191406 123.816406 211.058594 112.429688 223.355469 112.179688 C 242.339844 111.789062 261.335938 112.039062 280.328125 112.035156 C 324.007812 112.027344 367.6875 112.015625 411.367188 111.992188 C 418.257812 111.980469 424.941406 112.1875 428.515625 119.332031 C 432.121094 126.546875 429.273438 132.628906 424.886719 138.597656 C 414.851562 152.246094 405.082031 166.09375 394.503906 180.839844 L 461.140625 191.53125 C 462.695312 176.335938 470.339844 168.6875 482.476562 165.457031 C 482.476562 152.398438 482.335938 140.070312 482.519531 127.746094 C 482.679688 117.027344 487.484375 112.335938 498.269531 112.078125 C 504.914062 111.921875 511.5625 111.921875 518.210938 112.078125 C 528.984375 112.324219 533.882812 117.058594 534.101562 127.695312 C 534.3125 137.816406 534.332031 147.953125 534.082031 158.070312 C 533.957031 162.957031 534.886719 165.859375 540.109375 168.132812 C 544.683594 170.121094 549.527344 174.226562 551.558594 178.632812 C 554.304688 184.597656 557.972656 185.324219 563.425781 185.171875 C 572.914062 184.902344 582.40625 184.898438 591.910156 185.160156 C 603.441406 185.472656 608.542969 190.738281 608.8125 202.214844 C 608.949219 208.226562 608.9375 214.242188 608.816406 220.253906 C 608.574219 232.25 603.480469 237.375 591.273438 237.625 C 581.464844 237.824219 571.617188 237.226562 561.851562 237.925781 C 558.632812 238.15625 555.269531 240.921875 552.59375 243.246094 C 546.835938 248.257812 541.480469 253.738281 534.433594 260.492188 L 534.433594 637 L 545.570312 637 C 587.351562 637 629.132812 637.003906 670.917969 637.007812 C 690.304688 637.023438 697.953125 644.621094 698.019531 663.820312 C 698.039062 668.566406 698.1875 673.328125 697.867188 678.054688 C 697.136719 688.789062 689.089844 696.867188 678.402344 697.773438 C 675.570312 698.011719 672.710938 697.941406 669.863281 697.941406 C 493.242188 697.949219 316.617188 697.949219 139.996094 697.941406 C 137.464844 697.941406 134.925781 697.996094 132.402344 697.828125 C 120.71875 697.050781 112.625 688.8125 112.058594 676.980469 C 111.828125 672.246094 111.941406 667.488281 111.972656 662.742188 C 112.097656 644.890625 120.050781 637.019531 138.226562 636.957031 C 159.433594 636.882812 180.636719 636.9375 201.847656 636.9375 L 213.300781 636.9375 C 213.546875 633.078125 213.933594 629.765625 213.9375 626.453125 C 213.972656 560.949219 214.292969 495.445312 213.609375 429.949219 C 213.503906 419.964844 209.328125 409.808594 205.925781 400.121094 C 200.777344 385.445312 205.882812 377.074219 221.472656 377.050781 C 286.992188 376.949219 352.515625 376.949219 418.035156 377.058594 C 433.035156 377.085938 439.386719 386.015625 433.152344 399.4375 C 426.695312 413.347656 425.070312 427.542969 425.171875 442.648438 C 425.578125 503.085938 425.339844 563.527344 425.339844 623.96875 L 425.339844 636.15625 L 482.472656 636.15625 L 482.472656 625.972656 C 482.472656 506.359375 482.523438 386.746094 482.632812 267.128906 C 482.644531 260.238281 480.519531 257.257812 474.515625 253.558594 C 468.171875 249.648438 464.199219 241.882812 457.371094 233.59375 Z M 405.882812 446.253906 L 408.007812 448.125 L 408.007812 431.65625 C 403.355469 431.65625 399.296875 431.582031 395.242188 431.675781 C 389.207031 431.816406 384.121094 430.332031 384.167969 423.175781 C 384.214844 415.886719 389.714844 415.003906 395.5 414.789062 C 410.503906 414.238281 414.953125 409.589844 415.34375 394.40625 L 221.183594 394.40625 C 234.527344 415.742188 230.046875 438.257812 230.464844 460.140625 C 230.898438 482.917969 230.871094 505.699219 230.378906 528.488281 C 230.226562 535.652344 232.691406 539.308594 239.121094 541.929688 C 265.742188 552.777344 291.082031 550.464844 315.140625 534.996094 C 337.179688 520.859375 361.011719 515.792969 386.753906 520.835938 C 393.773438 522.210938 400.59375 524.617188 408.132812 526.722656 L 408.132812 499.96875 C 403.378906 499.96875 399.042969 499.941406 394.710938 499.976562 C 389.058594 500.019531 384.28125 498.496094 384.171875 491.878906 C 384.050781 484.773438 389.097656 483.0625 395.074219 482.992188 C 399.375 482.9375 403.675781 482.980469 408.167969 482.980469 L 408.167969 466.8125 L 405.933594 468.484375 L 394.488281 457.488281 Z M 406 653.730469 C 337.65625 653.730469 269.308594 653.730469 200.960938 653.730469 C 180.078125 653.730469 159.1875 653.558594 138.3125 653.921875 C 135.101562 653.976562 130.179688 655.675781 129.039062 658.046875 C 122.554688 671.539062 129.453125 681.761719 144.359375 681.761719 C 318.078125 681.765625 491.792969 681.765625 665.507812 681.761719 C 668.355469 681.761719 671.246094 682.023438 674.039062 681.625 C 676.105469 681.328125 679.660156 680.371094 679.789062 679.355469 C 680.691406 672.292969 681.824219 664.984375 680.703125 658.113281 C 680.367188 656.070312 673.0625 653.925781 668.945312 653.914062 C 581.300781 653.675781 493.652344 653.613281 406 653.730469 Z M 408.617188 636.566406 C 408.617188 607.332031 408.800781 579.246094 408.324219 551.167969 C 408.28125 548.5 404.667969 544.742188 401.824219 543.453125 C 375.414062 531.476562 349.628906 533.117188 325.050781 548.589844 C 308.632812 558.917969 291.152344 566.03125 271.566406 564.773438 C 257.964844 563.902344 244.492188 561.035156 231.375 559.121094 L 231.375 636.566406 Z M 227.929688 128.734375 C 240.585938 146.332031 251.839844 162.328125 263.609375 177.933594 C 265.269531 180.132812 269.460938 181.40625 272.492188 181.429688 C 303.800781 181.679688 335.113281 181.765625 366.414062 181.335938 C 370.046875 181.285156 374.785156 178.738281 377.042969 175.824219 C 387.296875 162.589844 396.875 148.835938 406.609375 135.207031 C 407.925781 133.367188 408.777344 131.199219 410.078125 128.734375 Z M 516.5 636.605469 L 516.5 257.664062 L 499.441406 257.664062 L 499.441406 636.605469 Z M 461.328125 205.882812 C 442 206.113281 423.503906 207.796875 406.640625 198.378906 C 404.9375 197.425781 402.285156 198.125 400.074219 198.125 C 345.390625 198.117188 290.710938 198.121094 236.027344 198.136719 C 233.507812 198.136719 230.894531 197.96875 228.484375 198.546875 C 218.800781 200.878906 214.191406 212.355469 220.945312 219.109375 C 224.230469 222.390625 230.359375 224.289062 235.214844 224.320312 C 290.527344 224.671875 345.839844 224.570312 401.15625 224.480469 C 404.566406 224.472656 408.519531 224.492188 411.285156 222.886719 C 422.585938 216.3125 434.808594 216.476562 447.160156 216.761719 C 451.796875 216.867188 456.441406 216.777344 461.328125 216.777344 Z M 507.882812 240.144531 C 514.816406 240.144531 521.753906 240.117188 528.691406 240.148438 C 534.757812 240.179688 538.160156 237.648438 538.109375 231.144531 C 538.003906 217.90625 538.050781 204.667969 538.085938 191.429688 C 538.101562 185.011719 534.699219 182.445312 528.585938 182.472656 C 515.027344 182.542969 501.46875 182.582031 487.914062 182.460938 C 481.609375 182.402344 478.605469 185.210938 478.640625 191.542969 C 478.714844 204.78125 478.765625 218.023438 478.625 231.257812 C 478.554688 237.828125 481.917969 240.242188 488.019531 240.160156 C 494.640625 240.074219 501.261719 240.140625 507.882812 240.144531 Z M 327.285156 327.394531 L 327.285156 241.925781 L 312.410156 241.925781 L 312.410156 273.132812 C 312.410156 283.53125 313.234375 294.011719 312.1875 304.304688 C 311.039062 315.582031 316.195312 321.898438 327.285156 327.394531 Z M 555.566406 220.011719 L 591.875 220.011719 L 591.875 202.429688 L 555.566406 202.429688 Z M 516.507812 165.199219 L 516.507812 128.269531 C 511.585938 128.269531 507.453125 127.816406 503.507812 128.476562 C 501.746094 128.773438 499.078125 131.261719 499.019531 132.835938 C 498.617188 143.4375 498.808594 154.058594 498.808594 165.199219 Z M 516.507812 165.199219 " fill-opacity="1" fill-rule="nonzero"/></g><path fill="#05439a" d="M 319.171875 490.421875 C 298.566406 490.105469 284.746094 468.695312 293.566406 449.828125 C 298.234375 439.839844 304.136719 430.378906 310.027344 421.027344 C 315.210938 412.804688 323.957031 412.785156 329.125 420.976562 C 335.019531 430.324219 340.941406 439.773438 345.605469 449.757812 C 354.609375 469.027344 340.183594 490.742188 319.171875 490.421875 Z M 319.585938 437.808594 C 315.582031 444.648438 312.339844 449.644531 309.652344 454.921875 C 306.667969 460.769531 306.285156 467.507812 312.445312 470.726562 C 316.320312 472.75 324.144531 472.953125 326.621094 470.445312 C 329.664062 467.367188 330.605469 460.214844 329.476562 455.539062 C 328.082031 449.757812 323.625 444.71875 319.585938 437.804688 Z M 319.585938 437.808594 " fill-opacity="1" fill-rule="nonzero"/></svg>