<svg xmlns="http://www.w3.org/2000/svg" xmlns:xlink="http://www.w3.org/1999/xlink" width="1080" zoomAndPan="magnify" viewBox="0 0 810 817.92" height="1080" preserveAspectRatio="xMidYMid meet" version="1.0"><defs><clipPath id="4a8470214d"><path d="M 140.515625 140.476562 L 669.214844 140.476562 L 669.214844 669.175781 L 140.515625 669.175781 Z M 140.515625 140.476562 " clip-rule="nonzero"/></clipPath></defs><g clip-path="url(#4a8470214d)"><path fill="#05439a" d="M 446.253906 374.601562 L 562.953125 374.601562 C 567.523438 374.601562 571.226562 370.898438 571.226562 366.328125 L 571.226562 249.632812 C 571.226562 245.0625 567.523438 241.359375 562.953125 241.359375 L 446.253906 241.359375 C 441.6875 241.359375 437.984375 245.0625 437.984375 249.632812 L 437.984375 366.328125 C 437.984375 370.898438 441.6875 374.601562 446.253906 374.601562 Z M 454.527344 257.90625 L 554.679688 257.90625 L 554.679688 358.054688 L 454.527344 358.054688 Z M 516.097656 297.386719 L 535.667969 297.386719 L 535.667969 318.609375 L 516.097656 318.609375 C 515.617188 318.609375 515.230469 319 515.230469 319.476562 L 515.230469 339.046875 L 494.007812 339.046875 L 494.007812 319.476562 C 494.007812 319 493.617188 318.609375 493.140625 318.609375 L 473.535156 318.609375 L 473.535156 297.386719 L 493.140625 297.386719 C 493.617188 297.386719 494.007812 296.996094 494.007812 296.519531 L 494.007812 276.917969 L 515.230469 276.917969 L 515.230469 296.519531 C 515.230469 296.996094 515.617188 297.386719 516.097656 297.386719 Z M 276.730469 184.976562 C 276.730469 194.113281 269.324219 201.519531 260.214844 201.519531 C 251.109375 201.519531 243.671875 194.113281 243.671875 184.976562 C 243.671875 175.839844 251.078125 168.460938 260.214844 168.460938 C 269.351562 168.460938 276.730469 175.839844 276.730469 184.976562 Z M 326.074219 184.976562 C 326.074219 194.113281 318.664062 201.519531 309.527344 201.519531 C 300.390625 201.519531 293.011719 194.113281 293.011719 184.976562 C 293.011719 175.839844 300.390625 168.460938 309.527344 168.460938 C 318.664062 168.460938 326.074219 175.839844 326.074219 184.976562 Z M 375.390625 184.976562 C 375.390625 194.113281 367.980469 201.519531 358.875 201.519531 C 349.765625 201.519531 342.328125 194.113281 342.328125 184.976562 C 342.328125 175.839844 349.738281 168.460938 358.875 168.460938 C 368.011719 168.460938 375.390625 175.839844 375.390625 184.976562 Z M 238.765625 429.527344 C 238.765625 424.957031 242.46875 421.253906 247.039062 421.253906 L 263.980469 421.253906 L 276.835938 389.898438 C 278.199219 386.574219 281.53125 384.519531 285.125 384.789062 C 288.703125 385.0625 291.695312 387.613281 292.535156 391.101562 L 301.652344 429.019531 L 312.238281 407.921875 C 313.632812 405.140625 316.46875 403.382812 319.578125 403.359375 L 319.632812 403.359375 C 322.722656 403.359375 325.554688 405.082031 326.976562 407.824219 L 333.945312 421.253906 L 350.761719 421.253906 C 355.332031 421.253906 359.035156 424.957031 359.035156 429.527344 C 359.035156 434.09375 355.332031 437.796875 350.761719 437.796875 L 328.917969 437.796875 C 325.828125 437.796875 322.996094 436.078125 321.574219 433.335938 L 319.757812 429.835938 L 306.296875 456.664062 C 304.882812 459.484375 302.003906 461.226562 298.902344 461.226562 C 298.589844 461.226562 298.273438 461.207031 297.957031 461.171875 C 294.503906 460.773438 291.667969 458.265625 290.855469 454.886719 L 282.433594 419.859375 L 277.183594 432.664062 C 275.910156 435.769531 272.882812 437.796875 269.53125 437.796875 L 247.039062 437.796875 C 242.46875 437.796875 238.765625 434.09375 238.765625 429.527344 Z M 247.039062 373.253906 L 350.761719 373.253906 C 355.332031 373.253906 359.035156 369.550781 359.035156 364.980469 L 359.035156 346.152344 C 359.035156 327.128906 348.453125 309.953125 331.316406 300.015625 C 334.746094 294.324219 336.71875 287.667969 336.71875 280.558594 C 336.71875 259.703125 319.753906 242.738281 298.898438 242.738281 C 278.042969 242.738281 261.078125 259.703125 261.078125 280.558594 C 261.078125 287.671875 263.058594 294.335938 266.488281 300.027344 C 249.351562 309.972656 238.765625 327.140625 238.765625 346.152344 L 238.765625 364.980469 C 238.765625 369.550781 242.46875 373.253906 247.039062 373.253906 Z M 298.898438 259.28125 C 310.628906 259.28125 320.171875 268.828125 320.171875 280.558594 C 320.171875 292.289062 310.628906 301.832031 298.898438 301.832031 C 287.167969 301.832031 277.625 292.289062 277.625 280.558594 C 277.625 268.828125 287.167969 259.28125 298.898438 259.28125 Z M 255.3125 346.152344 C 255.3125 331.890625 264.296875 319.019531 278.53125 312.398438 C 284.414062 316.175781 291.402344 318.378906 298.898438 318.378906 C 306.394531 318.378906 313.390625 316.171875 319.28125 312.390625 C 333.507812 319.007812 342.488281 331.878906 342.488281 346.15625 L 342.488281 356.710938 L 255.308594 356.710938 L 255.308594 346.15625 Z M 623.25 190.320312 L 612.664062 190.320312 L 612.664062 177.5625 C 612.664062 157.113281 596.027344 140.476562 575.574219 140.476562 L 234.414062 140.476562 C 213.980469 140.476562 197.355469 157.113281 197.355469 177.5625 L 197.355469 190.320312 L 186.769531 190.320312 C 161.265625 190.320312 140.515625 211.070312 140.515625 236.574219 L 140.515625 531.785156 C 140.515625 557.289062 161.265625 578.039062 186.769531 578.039062 L 328.484375 578.039062 L 323.078125 606.765625 L 281.796875 606.765625 C 264.511719 606.765625 250.449219 620.816406 250.449219 638.085938 L 250.449219 661.160156 C 250.449219 665.730469 254.152344 669.433594 258.722656 669.433594 L 551.265625 669.433594 C 555.835938 669.433594 559.539062 665.730469 559.539062 661.160156 L 559.539062 638.085938 C 559.539062 620.816406 545.492188 606.765625 528.21875 606.765625 L 486.914062 606.765625 L 481.523438 578.039062 L 623.246094 578.039062 C 648.734375 578.039062 669.472656 557.289062 669.472656 531.785156 L 669.472656 236.574219 C 669.472656 211.070312 648.734375 190.320312 623.246094 190.320312 Z M 213.902344 177.5625 C 213.902344 166.238281 223.105469 157.019531 234.414062 157.019531 L 575.574219 157.019531 C 586.902344 157.019531 596.117188 166.234375 596.117188 177.5625 L 596.117188 212.925781 L 213.902344 212.925781 Z M 213.902344 229.472656 L 596.117188 229.472656 L 596.117188 452.601562 C 596.117188 463.910156 586.902344 473.113281 575.574219 473.113281 L 234.414062 473.113281 C 223.105469 473.113281 213.902344 463.910156 213.902344 452.601562 Z M 528.222656 623.308594 C 536.367188 623.308594 542.996094 629.9375 542.996094 638.085938 L 542.996094 652.886719 L 266.992188 652.886719 L 266.992188 638.085938 C 266.992188 629.9375 273.632812 623.308594 281.796875 623.308594 L 329.90625 623.308594 C 329.921875 623.308594 329.9375 623.3125 329.949219 623.3125 C 329.964844 623.3125 329.980469 623.308594 329.996094 623.308594 L 479.996094 623.308594 C 480.011719 623.308594 480.027344 623.3125 480.042969 623.3125 C 480.054688 623.3125 480.070312 623.308594 480.082031 623.308594 Z M 339.914062 606.765625 L 345.324219 578.035156 L 464.691406 578.035156 L 470.082031 606.765625 Z M 652.925781 531.785156 C 652.925781 548.164062 639.613281 561.492188 623.25 561.492188 L 471.71875 561.492188 C 471.707031 561.492188 471.691406 561.492188 471.679688 561.492188 L 186.773438 561.492188 C 170.390625 561.492188 157.0625 548.164062 157.0625 531.785156 L 157.0625 523.394531 L 652.925781 523.394531 Z M 652.925781 506.847656 L 157.0625 506.847656 L 157.0625 236.574219 C 157.0625 220.191406 170.390625 206.863281 186.773438 206.863281 L 197.359375 206.863281 L 197.359375 452.601562 C 197.359375 473.035156 213.980469 489.660156 234.417969 489.660156 L 575.574219 489.660156 C 596.027344 489.660156 612.664062 473.035156 612.664062 452.601562 L 612.664062 206.863281 L 623.25 206.863281 C 639.613281 206.863281 652.925781 220.191406 652.925781 236.574219 L 652.925781 506.851562 Z M 430.164062 408.03125 C 430.164062 403.460938 433.867188 399.757812 438.4375 399.757812 L 562.953125 399.757812 C 567.523438 399.757812 571.226562 403.460938 571.226562 408.03125 C 571.226562 412.601562 567.523438 416.304688 562.953125 416.304688 L 438.4375 416.304688 C 433.867188 416.304688 430.164062 412.597656 430.164062 408.03125 Z M 391.160156 437.988281 C 391.160156 433.421875 394.863281 429.714844 399.433594 429.714844 L 407.164062 429.714844 C 411.730469 429.714844 415.4375 433.417969 415.4375 437.988281 C 415.4375 442.558594 411.730469 446.261719 407.164062 446.261719 L 399.433594 446.261719 C 394.863281 446.261719 391.160156 442.558594 391.160156 437.988281 Z M 430.164062 437.988281 C 430.164062 433.421875 433.867188 429.714844 438.4375 429.714844 L 562.953125 429.714844 C 567.523438 429.714844 571.226562 433.417969 571.226562 437.988281 C 571.226562 442.558594 567.523438 446.261719 562.953125 446.261719 L 438.4375 446.261719 C 433.867188 446.261719 430.164062 442.558594 430.164062 437.988281 Z M 391.160156 408.03125 C 391.160156 403.460938 394.863281 399.757812 399.433594 399.757812 L 407.164062 399.757812 C 411.730469 399.757812 415.4375 403.460938 415.4375 408.03125 C 415.4375 412.601562 411.730469 416.304688 407.164062 416.304688 L 399.433594 416.304688 C 394.863281 416.304688 391.160156 412.597656 391.160156 408.03125 Z M 391.160156 408.03125 " fill-opacity="1" fill-rule="nonzero"/></g></svg>