<svg xmlns="http://www.w3.org/2000/svg" xmlns:xlink="http://www.w3.org/1999/xlink" width="1080" zoomAndPan="magnify" viewBox="0 0 810 817.92" height="1080" preserveAspectRatio="xMidYMid meet" version="1.0"><defs><clipPath id="772e0c6fc6"><path d="M 117.355469 135.652344 L 692.546875 135.652344 L 692.546875 674.097656 L 117.355469 674.097656 Z M 117.355469 135.652344 " clip-rule="nonzero"/></clipPath></defs><g clip-path="url(#772e0c6fc6)"><path fill="#05439a" d="M 659.402344 135.71875 L 150.59375 135.71875 C 132.261719 135.71875 117.355469 150.625 117.355469 168.957031 L 117.355469 518.917969 C 117.355469 537.25 132.261719 552.15625 150.59375 552.15625 L 315.519531 552.15625 L 315.519531 602.597656 L 283.484375 602.597656 C 263.742188 602.597656 247.675781 618.660156 247.675781 638.402344 C 247.675781 658.144531 263.742188 674.210938 283.484375 674.210938 L 526.511719 674.210938 C 546.253906 674.210938 562.320312 658.144531 562.320312 638.402344 C 562.320312 618.660156 546.253906 602.597656 526.511719 602.597656 L 494.476562 602.597656 L 494.476562 552.15625 L 659.402344 552.15625 C 677.734375 552.15625 692.640625 537.25 692.640625 518.917969 L 692.640625 168.957031 C 692.640625 150.625 677.734375 135.71875 659.402344 135.71875 Z M 547.996094 638.402344 C 547.996094 650.242188 538.363281 659.886719 526.511719 659.886719 L 283.484375 659.886719 C 271.644531 659.886719 262 650.253906 262 638.402344 C 262 626.550781 271.632812 616.917969 283.484375 616.917969 L 526.511719 616.917969 C 538.351562 616.917969 547.996094 626.550781 547.996094 638.402344 Z M 480.15625 602.597656 L 329.839844 602.597656 L 329.839844 552.15625 L 480.15625 552.15625 Z M 678.320312 518.917969 C 678.320312 529.347656 669.832031 537.835938 659.402344 537.835938 L 150.59375 537.835938 C 140.164062 537.835938 131.675781 529.347656 131.675781 518.917969 L 131.675781 168.957031 C 131.675781 158.527344 140.164062 150.042969 150.59375 150.042969 L 659.390625 150.042969 C 669.820312 150.042969 678.308594 158.527344 678.308594 168.957031 L 678.308594 518.917969 Z M 627.03125 176.503906 L 182.964844 176.503906 C 171.445312 176.503906 162.078125 185.871094 162.078125 197.390625 L 162.078125 490.476562 C 162.078125 501.992188 171.445312 511.363281 182.964844 511.363281 L 627.03125 511.363281 C 638.550781 511.363281 647.917969 501.992188 647.917969 490.476562 L 647.917969 197.390625 C 647.917969 185.871094 638.550781 176.503906 627.03125 176.503906 Z M 633.597656 490.488281 C 633.597656 494.105469 630.648438 497.050781 627.03125 497.050781 L 182.964844 497.050781 C 179.347656 497.050781 176.398438 494.105469 176.398438 490.488281 L 176.398438 197.390625 C 176.398438 193.773438 179.347656 190.824219 182.964844 190.824219 L 627.03125 190.824219 C 630.648438 190.824219 633.597656 193.773438 633.597656 197.390625 Z M 576.019531 350.605469 L 474.367188 278.203125 C 472.085938 276.582031 469.054688 276.4375 466.632812 277.832031 C 464.210938 279.230469 462.8125 281.925781 463.085938 284.71875 L 474.953125 408.957031 C 475.238281 412.011719 477.445312 414.542969 480.441406 415.246094 C 483.425781 415.949219 486.527344 414.671875 488.164062 412.070312 L 503.824219 387.019531 L 533.171875 437.863281 C 534.128906 439.511719 535.691406 440.703125 537.515625 441.207031 C 538.125 441.371094 538.746094 441.445312 539.367188 441.445312 C 540.609375 441.445312 541.851562 441.121094 542.949219 440.488281 L 569.324219 425.261719 C 572.75 423.277344 573.921875 418.898438 571.949219 415.472656 L 542.589844 364.628906 L 572.117188 363.601562 C 575.183594 363.496094 577.847656 361.441406 578.730469 358.503906 C 579.613281 355.570312 578.527344 352.394531 576.019531 350.617188 Z M 530.175781 350.722656 C 527.671875 350.808594 525.378906 352.214844 524.160156 354.410156 C 522.945312 356.609375 522.96875 359.28125 524.222656 361.464844 L 555.957031 416.429688 L 541.980469 424.496094 L 510.246094 369.535156 C 508.992188 367.363281 506.675781 366 504.167969 365.953125 C 504.132812 365.953125 504.085938 365.953125 504.050781 365.953125 C 501.578125 365.953125 499.289062 367.21875 497.976562 369.320312 L 487.199219 386.566406 L 478.832031 298.972656 L 550.503906 350.019531 L 530.175781 350.734375 Z M 402.707031 415.066406 L 364.917969 467.617188 C 363.617188 469.421875 361.554688 470.53125 359.332031 470.589844 C 357.125 470.652344 354.976562 469.695312 353.570312 467.976562 L 333.96875 444.09375 L 316.496094 467.070312 C 315.195312 468.789062 313.179688 469.828125 311.019531 469.886719 C 308.859375 469.945312 306.792969 469.039062 305.375 467.414062 L 278.816406 436.683594 L 251.101562 475.746094 C 249.835938 477.539062 247.820312 478.636719 245.636719 478.753906 C 245.515625 478.753906 245.386719 478.753906 245.265625 478.753906 C 243.214844 478.753906 241.257812 477.871094 239.882812 476.320312 L 217.410156 450.753906 C 214.796875 447.78125 215.09375 443.257812 218.054688 440.644531 C 221.027344 438.03125 225.550781 438.328125 228.164062 441.289062 L 244.65625 460.050781 L 272.417969 420.914062 C 273.695312 419.125 275.726562 418.015625 277.921875 417.90625 C 280.128906 417.8125 282.242188 418.71875 283.6875 420.378906 L 310.433594 451.339844 L 328.050781 428.183594 C 329.375 426.441406 331.429688 425.402344 333.613281 425.355469 C 335.832031 425.320312 337.898438 426.273438 339.28125 427.96875 L 358.722656 451.660156 L 391.070312 406.675781 C 393.375 403.464844 397.847656 402.738281 401.058594 405.042969 C 404.269531 407.34375 405 411.820312 402.695312 415.03125 Z M 405 221.105469 L 222.792969 221.105469 C 218.839844 221.105469 215.628906 224.316406 215.628906 228.265625 L 215.628906 276.628906 C 215.628906 280.578125 218.839844 283.789062 222.792969 283.789062 L 405 283.789062 C 408.949219 283.789062 412.160156 280.578125 412.160156 276.628906 L 412.160156 228.265625 C 412.160156 224.316406 408.949219 221.105469 405 221.105469 Z M 397.835938 269.46875 L 229.953125 269.46875 L 229.953125 235.425781 L 397.835938 235.425781 Z M 412.160156 317.792969 C 412.160156 321.746094 408.949219 324.953125 405 324.953125 L 222.792969 324.953125 C 218.839844 324.953125 215.628906 321.746094 215.628906 317.792969 C 215.628906 313.84375 218.839844 310.632812 222.792969 310.632812 L 405 310.632812 C 408.949219 310.632812 412.160156 313.84375 412.160156 317.792969 Z M 412.160156 365.84375 C 412.160156 369.796875 408.949219 373.007812 405 373.007812 L 222.792969 373.007812 C 218.839844 373.007812 215.628906 369.796875 215.628906 365.84375 C 215.628906 361.894531 218.839844 358.683594 222.792969 358.683594 L 405 358.683594 C 408.949219 358.683594 412.160156 361.894531 412.160156 365.84375 Z M 412.160156 365.84375 " fill-opacity="1" fill-rule="nonzero"/></g></svg>