<svg xmlns="http://www.w3.org/2000/svg" xmlns:xlink="http://www.w3.org/1999/xlink" width="1080" zoomAndPan="magnify" viewBox="0 0 810 817.92" height="1080" preserveAspectRatio="xMidYMid meet" version="1.0"><defs><clipPath id="e981e9c96e"><path d="M 149.675781 110.214844 L 660.378906 110.214844 L 660.378906 699.65625 L 149.675781 699.65625 Z M 149.675781 110.214844 " clip-rule="nonzero"/></clipPath></defs><g clip-path="url(#e981e9c96e)"><path fill="#05439a" d="M 503.558594 618.082031 C 515.816406 641 526.730469 659.394531 542.449219 685.484375 C 546.183594 691.683594 541.636719 699.488281 534.542969 699.476562 L 534.542969 699.488281 L 275.335938 699.488281 C 268.566406 699.488281 263.109375 691.945312 267.917969 684.738281 C 278.144531 667.558594 286.832031 652.828125 294.542969 639.464844 C 298.96875 631.792969 302.976562 624.730469 306.660156 618.082031 L 183.707031 618.082031 C 164.941406 618.082031 149.621094 602.761719 149.621094 583.996094 L 149.621094 250.738281 C 149.621094 231.972656 164.941406 216.652344 183.707031 216.652344 L 184.878906 216.652344 L 184.878906 144.953125 C 184.878906 125.941406 200.398438 110.421875 219.410156 110.421875 L 590.46875 110.421875 C 609.480469 110.421875 625.003906 125.941406 625.003906 144.953125 L 625.003906 216.652344 C 635.128906 216.652344 643.441406 219.847656 650.253906 226.660156 C 656.425781 232.832031 660.261719 241.359375 660.261719 250.742188 L 660.261719 583.996094 C 660.261719 602.765625 644.941406 618.085938 626.171875 618.085938 L 503.558594 618.085938 Z M 263.085938 371.046875 L 287.105469 371.046875 C 289.488281 374.144531 292.09375 377.125 294.929688 379.960938 L 398.40625 483.4375 C 402.015625 487.046875 407.863281 487.046875 411.472656 483.4375 L 514.949219 379.960938 C 516.78125 378.128906 518.515625 376.238281 520.15625 374.292969 L 546.792969 374.292969 C 551.894531 374.292969 556.03125 370.15625 556.03125 365.054688 C 556.03125 359.949219 551.894531 355.8125 546.792969 355.8125 L 532.25 355.8125 C 549.28125 321.195312 542.960938 278.613281 514.949219 250.605469 C 484.695312 220.347656 436.089844 225.660156 403.089844 247.921875 C 369.640625 228.726562 324.992188 220.539062 294.929688 250.605469 C 267.808594 277.722656 261 318.511719 276.109375 352.566406 L 263.085938 352.566406 C 257.980469 352.566406 253.84375 356.703125 253.84375 361.808594 C 253.84375 366.910156 257.980469 371.046875 263.085938 371.046875 Z M 296.871094 352.566406 L 323.28125 352.566406 L 353.363281 300.460938 C 356.796875 294.523438 365.828125 293.945312 369.597656 300.980469 L 422.253906 392.183594 L 456.9375 332.105469 C 460.511719 325.902344 469.382812 326.03125 472.878906 332.078125 L 472.894531 332.070312 L 486.601562 355.8125 L 510.96875 355.8125 C 529.984375 327.269531 526.617188 288.40625 501.886719 263.671875 C 476.996094 238.78125 434.386719 246.476562 409.308594 266.132812 C 406.332031 268.523438 402.050781 268.890625 398.636719 266.742188 C 371.984375 249.945312 332.871094 238.796875 307.996094 263.667969 C 284.230469 287.433594 280.144531 324.3125 296.871094 352.566406 Z M 494.484375 374.292969 L 481.292969 374.292969 L 481.292969 374.273438 C 478.113281 374.269531 475.023438 372.621094 473.316406 369.671875 L 464.90625 355.109375 L 430.28125 415.082031 C 426.726562 421.335938 417.820312 421.324219 414.277344 415.167969 L 361.351562 323.496094 L 336.902344 365.84375 C 335.402344 368.925781 332.246094 371.046875 328.589844 371.046875 L 312.152344 371.046875 L 404.941406 463.835938 Z M 248.671875 134.113281 C 233.308594 134.113281 220.847656 146.570312 220.847656 161.933594 C 220.847656 186.636719 250.855469 199.097656 268.34375 181.609375 C 285.832031 164.121094 273.371094 134.113281 248.671875 134.113281 Z M 255.277344 155.328125 C 249.410156 149.460938 239.328125 153.632812 239.328125 161.9375 C 239.328125 170.238281 249.410156 174.410156 255.277344 168.542969 C 258.925781 164.894531 258.925781 158.976562 255.277344 155.328125 Z M 312.535156 152.59375 C 304.234375 152.59375 300.0625 162.675781 305.929688 168.542969 C 311.796875 174.410156 321.878906 170.238281 321.878906 161.933594 C 321.878906 156.773438 317.695312 152.59375 312.535156 152.59375 Z M 292.863281 142.261719 C 281.996094 153.128906 281.996094 170.742188 292.863281 181.609375 C 310.351562 199.097656 340.359375 186.636719 340.359375 161.9375 C 340.359375 137.234375 310.351562 124.773438 292.863281 142.261719 Z M 376.402344 134.113281 C 361.039062 134.113281 348.578125 146.570312 348.578125 161.933594 C 348.578125 186.636719 378.585938 199.097656 396.074219 181.609375 C 413.5625 164.121094 401.101562 134.113281 376.402344 134.113281 Z M 383.007812 155.328125 C 377.140625 149.464844 367.058594 153.632812 367.058594 161.9375 C 367.058594 170.238281 377.140625 174.410156 383.007812 168.542969 C 386.65625 164.894531 386.65625 158.976562 383.007812 155.328125 Z M 203.359375 194.96875 L 606.523438 194.96875 L 606.523438 144.953125 C 606.523438 136.144531 599.28125 128.902344 590.46875 128.902344 L 219.410156 128.902344 C 210.601562 128.902344 203.359375 136.144531 203.359375 144.953125 Z M 184.878906 235.132812 C 179.949219 235.132812 176.183594 236.234375 172.691406 239.722656 C 169.859375 242.558594 168.101562 246.457031 168.101562 250.738281 L 168.101562 545.886719 L 641.777344 545.886719 L 641.777344 250.738281 C 641.777344 242.175781 634.734375 235.132812 626.171875 235.132812 L 625.003906 235.132812 L 625.003906 486.160156 C 625.003906 505.175781 609.480469 520.695312 590.46875 520.695312 L 219.410156 520.695312 C 200.398438 520.695312 184.878906 505.171875 184.878906 486.160156 Z M 606.523438 486.160156 L 606.523438 213.449219 L 203.359375 213.449219 L 203.359375 486.160156 C 203.359375 494.972656 210.601562 502.214844 219.410156 502.214844 L 590.46875 502.214844 C 599.28125 502.214844 606.523438 494.972656 606.523438 486.160156 Z M 168.101562 564.367188 L 168.101562 583.996094 C 168.101562 592.5625 175.144531 599.601562 183.707031 599.601562 L 626.171875 599.601562 C 634.738281 599.601562 641.78125 592.558594 641.78125 583.996094 L 641.78125 564.367188 Z M 327.648438 618.082031 C 316.640625 638.425781 304.617188 658.90625 291.519531 681.007812 L 518.253906 681.007812 C 505.640625 659.808594 493.050781 638.019531 482.691406 618.082031 Z M 327.648438 618.082031 " fill-opacity="1" fill-rule="evenodd"/></g></svg>