<svg xmlns="http://www.w3.org/2000/svg" xmlns:xlink="http://www.w3.org/1999/xlink" width="1080" zoomAndPan="magnify" viewBox="0 0 810 817.92" height="1080" preserveAspectRatio="xMidYMid meet" version="1.0"><defs><clipPath id="e621bfa745"><path d="M 110.167969 109 L 699.609375 109 L 699.609375 702 L 110.167969 702 Z M 110.167969 109 " clip-rule="nonzero"/></clipPath></defs><g clip-path="url(#e621bfa745)"><path fill="#05439a" d="M 625.183594 348.765625 C 632.644531 348.765625 640.214844 345.886719 645.867188 340.234375 L 691.078125 295.027344 C 702.488281 283.617188 702.488281 264.957031 691.078125 253.546875 L 660.796875 223.265625 C 660.796875 223.265625 660.796875 223.160156 660.6875 223.050781 C 660.582031 222.945312 660.582031 223.050781 660.476562 222.945312 L 618.144531 180.613281 C 618.144531 180.613281 618.144531 180.507812 618.039062 180.402344 C 617.929688 180.292969 617.929688 180.402344 617.824219 180.292969 L 575.492188 137.960938 C 575.492188 137.960938 575.492188 137.855469 575.386719 137.75 C 575.28125 137.644531 575.28125 137.75 575.171875 137.644531 L 555.339844 117.808594 C 543.929688 106.402344 525.273438 106.402344 513.863281 117.808594 L 468.652344 163.019531 C 459.164062 172.511719 457.667969 186.796875 463.960938 197.996094 L 140.878906 520.972656 C 121.152344 540.695312 110.382812 566.820312 110.382812 594.652344 C 110.382812 622.375 121.257812 648.496094 140.878906 668.011719 C 160.496094 687.628906 186.515625 698.507812 214.34375 698.507812 C 242.066406 698.507812 268.191406 687.628906 287.917969 668.011719 L 418.75 537.179688 C 417.472656 544.640625 416.722656 552.320312 416.722656 560.101562 C 416.722656 638.046875 480.0625 701.386719 558.007812 701.386719 C 635.953125 701.386719 699.289062 638.046875 699.289062 560.101562 C 699.289062 482.160156 635.953125 418.820312 558.007812 418.820312 C 550.117188 418.820312 542.4375 419.675781 534.976562 420.847656 L 610.894531 344.929688 C 615.371094 347.378906 620.171875 348.765625 625.183594 348.765625 Z M 601.085938 185.945312 L 536.894531 250.027344 L 505.546875 218.679688 L 569.734375 154.597656 Z M 643.734375 228.597656 L 579.546875 292.679688 L 548.195312 261.332031 L 612.386719 197.246094 Z M 679.882812 283.617188 L 634.671875 328.828125 C 629.449219 334.050781 621.023438 334.050781 615.800781 328.828125 L 590.953125 303.984375 L 655.144531 239.898438 L 679.988281 264.742188 C 685.214844 269.96875 685.214844 278.390625 679.988281 283.617188 Z M 480.0625 174.324219 L 525.273438 129.113281 C 530.496094 123.886719 538.921875 123.886719 544.144531 129.113281 L 558.433594 143.402344 L 494.242188 207.484375 L 480.0625 193.304688 C 474.835938 188.078125 474.835938 179.65625 480.0625 174.429688 Z M 683.292969 560.101562 C 683.292969 629.199219 627.101562 685.390625 558.007812 685.390625 C 488.910156 685.390625 432.71875 629.199219 432.71875 560.101562 C 432.71875 491.007812 488.910156 434.816406 558.007812 434.816406 C 627.101562 434.816406 683.292969 491.007812 683.292969 560.101562 Z M 503.414062 429.804688 C 469.292969 444.199219 441.996094 471.496094 427.707031 505.617188 L 276.613281 656.707031 C 259.980469 673.34375 237.910156 682.511719 214.34375 682.511719 C 190.886719 682.511719 168.8125 673.34375 152.179688 656.707031 C 135.546875 640.179688 126.375 618.109375 126.375 594.652344 C 126.375 571.085938 135.546875 549.015625 152.179688 532.378906 L 474.410156 210.257812 L 598.738281 334.585938 L 503.414062 429.910156 Z M 503.414062 429.804688 " fill-opacity="1" fill-rule="nonzero"/></g><path fill="#05439a" d="M 436.023438 455.179688 C 436.023438 455.179688 436.023438 454.648438 436.023438 454.328125 C 436.023438 454.113281 435.8125 453.902344 435.703125 453.6875 C 435.597656 453.15625 435.277344 452.730469 435.0625 452.195312 C 434.851562 451.769531 434.53125 451.34375 434.210938 450.917969 C 434.105469 450.703125 433.996094 450.488281 433.785156 450.277344 C 433.570312 450.0625 433.25 449.957031 433.039062 449.742188 C 432.613281 449.421875 432.183594 449.101562 431.757812 448.890625 C 431.226562 448.675781 430.800781 448.464844 430.265625 448.25 C 429.839844 448.144531 429.414062 448.039062 428.878906 447.929688 C 428.347656 447.929688 427.8125 447.929688 427.175781 447.929688 C 426.855469 447.929688 426.640625 447.929688 426.320312 447.929688 C 415.765625 450.167969 405.421875 453.796875 395.503906 458.699219 C 366.289062 473.308594 332.0625 474.800781 301.566406 462.539062 L 285.679688 456.140625 C 282.371094 454.863281 278.960938 453.6875 275.65625 452.730469 C 275.335938 452.730469 275.121094 452.515625 274.800781 452.410156 C 274.480469 452.410156 274.164062 452.410156 273.734375 452.410156 C 273.203125 452.410156 272.667969 452.300781 272.03125 452.300781 C 271.496094 452.300781 271.070312 452.410156 270.644531 452.621094 C 270.109375 452.730469 269.578125 452.835938 269.152344 453.15625 C 268.617188 453.367188 268.296875 453.6875 267.871094 454.007812 C 267.550781 454.222656 267.230469 454.328125 267.019531 454.648438 L 170.734375 550.933594 C 159.109375 562.554688 152.714844 578.015625 152.714844 594.4375 C 152.714844 610.75 159.109375 626.105469 170.734375 637.621094 C 182.25 649.246094 197.605469 655.640625 214.023438 655.640625 C 230.339844 655.640625 245.800781 649.246094 257.421875 637.621094 L 433.570312 461.472656 C 433.570312 461.472656 433.890625 461.046875 433.996094 460.832031 C 434.316406 460.40625 434.636719 459.980469 434.957031 459.445312 C 435.171875 459.019531 435.382812 458.59375 435.492188 458.058594 C 435.597656 457.527344 435.703125 457.101562 435.8125 456.566406 C 435.8125 456.035156 435.8125 455.5 435.8125 454.96875 Z M 246.4375 626.53125 C 237.800781 635.167969 226.5 639.859375 214.34375 639.859375 C 202.296875 639.859375 190.992188 635.167969 182.355469 626.53125 C 173.824219 618.003906 169.027344 606.699219 169.027344 594.652344 C 169.027344 582.496094 173.71875 571.085938 182.355469 562.554688 L 275.121094 469.789062 C 276.828125 470.429688 278.640625 470.960938 280.242188 471.601562 L 295.914062 477.894531 C 311.480469 484.183594 328.007812 487.277344 344.535156 487.277344 C 362.558594 487.277344 380.472656 483.332031 397.210938 475.972656 L 246.4375 626.746094 Z M 246.4375 626.53125 " fill-opacity="1" fill-rule="nonzero"/><path fill="#05439a" d="M 495.097656 268.582031 C 483.6875 257.171875 465.027344 257.171875 453.617188 268.582031 L 393.265625 328.933594 C 387.722656 334.476562 384.628906 341.835938 384.628906 349.621094 C 384.628906 357.402344 387.722656 364.867188 393.265625 370.304688 L 438.476562 415.515625 C 444.019531 421.058594 451.378906 424.152344 459.164062 424.152344 C 466.945312 424.152344 474.410156 421.058594 479.847656 415.515625 L 540.199219 355.164062 C 551.609375 343.753906 551.609375 325.09375 540.199219 313.6875 L 494.988281 268.476562 Z M 529.003906 343.96875 L 468.652344 404.320312 C 463.640625 409.332031 454.898438 409.332031 449.777344 404.320312 L 404.570312 359.109375 C 402.007812 356.550781 400.625 353.246094 400.625 349.726562 C 400.625 346.207031 402.007812 342.796875 404.570312 340.34375 L 464.921875 279.992188 C 467.480469 277.433594 470.785156 276.046875 474.304688 276.046875 C 477.820312 276.046875 481.234375 277.433594 483.6875 279.992188 L 528.898438 325.203125 C 531.457031 327.761719 532.84375 331.066406 532.84375 334.585938 C 532.84375 338.105469 531.457031 341.515625 528.898438 343.96875 Z M 529.003906 343.96875 " fill-opacity="1" fill-rule="nonzero"/><path fill="#05439a" d="M 472.492188 306.222656 C 469.398438 303.128906 464.28125 303.128906 461.1875 306.222656 C 458.097656 309.3125 458.097656 314.433594 461.1875 317.523438 L 491.363281 347.699219 C 492.964844 349.300781 494.988281 350.046875 497.015625 350.046875 C 499.042969 350.046875 501.066406 349.300781 502.667969 347.699219 C 505.757812 344.609375 505.757812 339.488281 502.667969 336.398438 Z M 472.492188 306.222656 " fill-opacity="1" fill-rule="nonzero"/><path fill="#05439a" d="M 442.316406 336.398438 C 439.222656 333.304688 434.105469 333.304688 431.011719 336.398438 C 427.921875 339.488281 427.921875 344.609375 431.011719 347.699219 L 461.1875 377.875 C 462.789062 379.476562 464.8125 380.222656 466.839844 380.222656 C 468.867188 380.222656 470.890625 379.476562 472.492188 377.875 C 475.582031 374.785156 475.582031 369.664062 472.492188 366.574219 Z M 442.316406 336.398438 " fill-opacity="1" fill-rule="nonzero"/><path fill="#05439a" d="M 558.007812 658.734375 C 600.65625 658.734375 635.3125 624.082031 635.3125 581.429688 C 635.3125 538.777344 602.683594 461.472656 558.007812 461.472656 C 513.328125 461.472656 480.699219 540.378906 480.699219 581.429688 C 480.699219 622.480469 515.355469 658.734375 558.007812 658.734375 Z M 558.007812 477.464844 C 589.035156 477.464844 619.316406 543.257812 619.316406 581.429688 C 619.316406 615.230469 591.808594 642.738281 558.007812 642.738281 C 524.207031 642.738281 496.695312 615.230469 496.695312 581.429688 C 496.695312 543.257812 526.976562 477.464844 558.007812 477.464844 Z M 558.007812 477.464844 " fill-opacity="1" fill-rule="nonzero"/></svg>